<svg width="91" height="90" viewBox="0 0 91 90" fill="none" xmlns="http://www.w3.org/2000/svg">
<path d="M46.5396 4.66477C46.2531 4.66477 45.9915 4.59493 45.7548 4.45526C45.5181 4.31321 45.3287 4.12382 45.1866 3.88707C45.0469 3.65033 44.9771 3.38873 44.9771 3.10227C44.9771 2.81345 45.0469 2.55185 45.1866 2.31747C45.3287 2.08073 45.5181 1.89252 45.7548 1.75284C45.9915 1.6108 46.2531 1.53977 46.5396 1.53977C46.8284 1.53977 47.09 1.6108 47.3244 1.75284C47.5612 1.89252 47.7494 2.08073 47.889 2.31747C48.0311 2.55185 48.1021 2.81345 48.1021 3.10227C48.1021 3.38873 48.0311 3.65033 47.889 3.88707C47.7494 4.12382 47.5612 4.31321 47.3244 4.45526C47.09 4.59493 46.8284 4.66477 46.5396 4.66477Z" fill="#676464"/>
<path d="M58.54 8.03737C58.0401 7.87496 57.6448 7.62453 57.354 7.2861C57.0662 6.94614 56.8891 6.54508 56.8227 6.08291C56.7592 5.61921 56.8139 5.12168 56.9865 4.59032C57.1592 4.05895 57.4082 3.62208 57.7335 3.27972C58.0618 2.93584 58.4374 2.70689 58.8602 2.59287C59.2861 2.47734 59.7332 2.49566 60.2015 2.64783C60.4717 2.73562 60.7239 2.86734 60.9581 3.04299C61.1922 3.21865 61.3845 3.44291 61.5348 3.71579C61.6858 3.9864 61.7717 4.30805 61.7925 4.68073C61.8133 5.05341 61.7451 5.48179 61.5878 5.96588L61.4781 6.30361L57.4793 5.00433L57.7032 4.31536L60.8914 5.35127C60.9865 5.05856 61.0128 4.77836 60.9703 4.51066C60.9301 4.24369 60.8246 4.00904 60.6539 3.8067C60.4854 3.60509 60.2571 3.45746 59.9689 3.36382C59.6514 3.26067 59.3511 3.25022 59.068 3.33248C58.7879 3.41321 58.5453 3.55843 58.3402 3.76811C58.1352 3.9778 57.9862 4.22561 57.8933 4.51156L57.7441 4.97088C57.6168 5.36265 57.5764 5.7167 57.623 6.03303C57.6725 6.34785 57.7959 6.61568 57.9929 6.83654C58.1907 7.05515 58.4506 7.21676 58.7726 7.32137C58.982 7.38941 59.1806 7.42159 59.3685 7.41792C59.5594 7.41272 59.7361 7.37058 59.8988 7.29149C60.0621 7.21014 60.2068 7.09038 60.3329 6.9322L61.0327 7.39855C60.8668 7.63339 60.6559 7.81879 60.4002 7.95474C60.1451 8.08844 59.859 8.16473 59.5417 8.18361C59.2251 8.20024 58.8912 8.15149 58.54 8.03737Z" fill="#676464"/>
<path d="M61.0872 8.70223L63.5635 3.8422L64.2849 4.20978L63.898 4.96916L63.9613 5.0014C64.1947 4.79354 64.4608 4.67538 64.7596 4.64695C65.0595 4.6164 65.3676 4.68174 65.684 4.84296C66.0047 5.00633 66.2344 5.21506 66.3733 5.46916C66.5154 5.72223 66.5804 6.00912 66.5685 6.32984L66.6191 6.35563C66.8714 6.16803 67.1597 6.06381 67.4838 6.04298C67.8091 6.02004 68.1457 6.09724 68.4937 6.27458C68.9283 6.49598 69.2144 6.81314 69.3521 7.22605C69.4908 7.63685 69.4146 8.12807 69.1233 8.69971L67.466 11.9524L66.7192 11.5719L68.3766 8.31924C68.5593 7.96064 68.5918 7.65437 68.4741 7.40043C68.3564 7.14649 68.1646 6.95181 67.8988 6.81639C67.5571 6.64227 67.2397 6.61075 66.9466 6.72181C66.6547 6.83076 66.4286 7.04239 66.2684 7.35669L64.6563 10.5208L63.8969 10.1339L65.5929 6.80523C65.7337 6.5289 65.7574 6.26068 65.6641 6.00058C65.5719 5.73836 65.3844 5.53524 65.1018 5.39122C64.9077 5.29234 64.7 5.25159 64.4786 5.26896C64.2592 5.28741 64.0512 5.36207 63.8543 5.49292C63.6606 5.62274 63.503 5.80683 63.3816 6.04519L61.8339 9.08271L61.0872 8.70223Z" fill="#676464"/>
<path d="M68.7375 13.1956C68.4579 12.9924 68.2424 12.7553 68.091 12.4844C67.941 12.2116 67.872 11.9259 67.8841 11.6274C67.8975 11.3269 68.0086 11.0331 68.2173 10.7458C68.401 10.493 68.5997 10.3242 68.8134 10.2395C69.0285 10.1529 69.252 10.1251 69.4841 10.1562C69.7161 10.1872 69.9487 10.2538 70.1818 10.3558C70.4182 10.4574 70.6486 10.5692 70.873 10.6913C71.1662 10.8516 71.4024 10.9837 71.5815 11.0875C71.764 11.1908 71.9095 11.2483 72.0182 11.2599C72.1287 11.2729 72.2236 11.2248 72.3029 11.1156L72.3196 11.0926C72.5256 10.8092 72.608 10.5326 72.567 10.2628C72.5279 9.99442 72.3522 9.74682 72.04 9.52C71.7164 9.28483 71.4111 9.17131 71.1243 9.17946C70.8374 9.1876 70.5982 9.24498 70.4066 9.35159L69.9301 8.6542C70.2398 8.46956 70.5447 8.37211 70.8448 8.36187C71.1481 8.35111 71.4354 8.39884 71.7064 8.50506C71.9808 8.61075 72.229 8.74431 72.4512 8.90573C72.5929 9.0087 72.7432 9.14422 72.902 9.31228C73.0642 9.47982 73.1939 9.67792 73.2911 9.90659C73.3902 10.1366 73.4214 10.3978 73.3847 10.6901C73.3479 10.9823 73.2022 11.3037 72.9475 11.6542L70.8352 14.5616L70.1572 14.069L70.5913 13.4714L70.5569 13.4464C70.4413 13.5087 70.2903 13.5555 70.1037 13.5868C69.9171 13.618 69.7069 13.6073 69.4732 13.5545C69.2394 13.5017 68.9942 13.382 68.7375 13.1956ZM69.2834 12.6616C69.5516 12.8565 69.8159 12.968 70.0763 12.9962C70.3386 13.0259 70.5772 12.9915 70.7921 12.893C71.0089 12.796 71.1841 12.6555 71.3177 12.4716L71.7686 11.8511C71.7148 11.8647 71.6286 11.8504 71.5101 11.8081C71.3948 11.7654 71.2664 11.7086 71.1246 11.6378C70.9862 11.5665 70.8521 11.4954 70.7222 11.4245C70.5956 11.353 70.4925 11.2956 70.4127 11.2523C70.2198 11.1473 70.028 11.0649 69.8372 11.0053C69.6497 10.9452 69.4722 10.9318 69.3046 10.9651C69.1403 10.9979 68.9955 11.1005 68.8703 11.2729C68.6991 11.5084 68.6568 11.7499 68.7435 11.9972C68.8334 12.2439 69.0134 12.4654 69.2834 12.6616Z" fill="#676464"/>
<path d="M73.6732 17.184L77.5302 13.327L78.1228 13.9196L74.2658 17.7766L73.6732 17.184ZM78.4743 12.9855C78.3588 12.87 78.2985 12.7311 78.2935 12.5687C78.2902 12.408 78.3437 12.2724 78.4542 12.1619C78.5647 12.0514 78.7003 11.9979 78.861 12.0012C79.0234 12.0062 79.1623 12.0665 79.2778 12.182C79.3933 12.2975 79.4528 12.4356 79.4561 12.5963C79.4611 12.7587 79.4084 12.8951 79.2979 13.0056C79.1874 13.1161 79.051 13.1688 78.8886 13.1638C78.7279 13.1605 78.5898 13.101 78.4743 12.9855Z" fill="#676464"/>
<path d="M83.9893 18.1682L78.1056 22.443L77.613 21.7649L83.4967 17.4901L83.9893 18.1682Z" fill="#676464"/>
<path d="M84.4305 32.1945C84.342 31.922 84.3276 31.6517 84.3873 31.3833C84.4492 31.1143 84.5708 30.8756 84.7521 30.6674C84.9341 30.4614 85.1613 30.3141 85.4337 30.2256C85.7084 30.1364 85.9788 30.1219 86.2449 30.1824C86.5139 30.2443 86.7514 30.3663 86.9574 30.5483C87.1657 30.7295 87.3141 30.9564 87.4026 31.2288C87.4918 31.5035 87.5051 31.7742 87.4425 32.041C87.3828 32.3093 87.2619 32.5465 87.0799 32.7525C86.9009 32.96 86.6741 33.1084 86.3994 33.1977C86.127 33.2862 85.8562 33.2995 85.5872 33.2375C85.3189 33.1779 85.0806 33.0574 84.8723 32.8761C84.667 32.6964 84.5198 32.4692 84.4305 32.1945Z" fill="#676464"/>
<path d="M84.9318 44.65C84.9318 44.1244 85.0478 43.6711 85.2798 43.2899C85.5142 42.9111 85.8409 42.6187 86.2599 42.4128C86.6813 42.2092 87.1714 42.1074 87.7301 42.1074C88.2888 42.1074 88.7812 42.2092 89.2073 42.4128C89.6358 42.6187 89.9697 42.9052 90.2088 43.2721C90.4502 43.6415 90.571 44.0723 90.571 44.5648C90.571 44.8488 90.5236 45.1294 90.4289 45.4064C90.3342 45.6834 90.1804 45.9355 89.9673 46.1628C89.7566 46.39 89.4772 46.5711 89.1292 46.7061C88.7812 46.841 88.3527 46.9085 87.8437 46.9085H87.4886V42.704H88.213V46.0562C88.5208 46.0562 88.7954 45.9947 89.0369 45.8716C89.2784 45.7508 89.4689 45.578 89.6086 45.3531C89.7483 45.1306 89.8181 44.8678 89.8181 44.5648C89.8181 44.2309 89.7353 43.9421 89.5696 43.6983C89.4062 43.4568 89.1931 43.271 88.9304 43.1407C88.6676 43.0105 88.3858 42.9454 88.0852 42.9454H87.6022C87.1903 42.9454 86.8411 43.0165 86.5546 43.1585C86.2706 43.3029 86.0539 43.503 85.9048 43.7586C85.758 44.0143 85.6846 44.3114 85.6846 44.65C85.6846 44.8702 85.7154 45.069 85.7769 45.2466C85.8409 45.4265 85.9356 45.5816 86.061 45.7118C86.1889 45.842 86.3475 45.9426 86.5369 46.0136L86.3096 46.8233C86.035 46.7381 85.7935 46.5948 85.5852 46.3936C85.3792 46.1924 85.2182 45.9438 85.1022 45.6479C84.9886 45.3519 84.9318 45.0193 84.9318 44.65Z" fill="#676464"/>
<path d="M85.0863 47.2778L90.4737 48.1311L90.3471 48.9308L89.5053 48.7975L89.4942 48.8676C89.764 49.0254 89.9586 49.242 90.078 49.5174C90.1997 49.7931 90.2328 50.1064 90.1772 50.4571C90.1209 50.8125 89.9934 51.0955 89.7947 51.3062C89.5979 51.5195 89.3451 51.67 89.0364 51.7577L89.0275 51.8138C89.2839 51.9959 89.4721 52.2378 89.5921 52.5396C89.7144 52.8419 89.745 53.1859 89.6839 53.5717C89.6076 54.0534 89.3944 54.4235 89.0443 54.682C88.6964 54.9409 88.2057 55.0202 87.572 54.9198L83.9664 54.3488L84.0975 53.521L87.7031 54.0921C88.1006 54.1551 88.402 54.0913 88.6071 53.9009C88.8122 53.7105 88.9381 53.4679 88.9848 53.1733C89.0448 52.7945 88.9767 52.4829 88.7805 52.2385C88.5866 51.9945 88.3155 51.8449 87.9671 51.7897L84.4597 51.2342L84.593 50.3924L88.2828 50.9768C88.5891 51.0253 88.8516 50.965 89.0701 50.7959C89.291 50.6271 89.4262 50.3861 89.4759 50.0728C89.5099 49.8576 89.4845 49.6475 89.3996 49.4423C89.3142 49.2394 89.1789 49.0646 88.9937 48.9178C88.8103 48.7737 88.5866 48.6807 88.3223 48.6389L84.9552 48.1056L85.0863 47.2778Z" fill="#676464"/>
<path d="M83.1768 55.9419C83.2836 55.6132 83.4425 55.335 83.6534 55.1073C83.8665 54.8803 84.1169 54.7264 84.4045 54.6456C84.6944 54.5656 85.0082 54.5804 85.3459 54.6902C85.6431 54.7867 85.865 54.9235 86.0116 55.1006C86.1604 55.2784 86.256 55.4824 86.2981 55.7127C86.3403 55.943 86.3489 56.1847 86.3238 56.438C86.3003 56.6942 86.2652 56.9479 86.2184 57.199C86.1566 57.5274 86.1039 57.7929 86.0605 57.9953C86.0187 58.2008 86.009 58.357 86.0315 58.4638C86.0533 58.573 86.1284 58.6484 86.2567 58.6901L86.2837 58.6989C86.617 58.8072 86.9055 58.8001 87.1494 58.6777C87.3926 58.5576 87.5738 58.314 87.693 57.947C87.8166 57.5665 87.8303 57.2411 87.7339 56.9708C87.6375 56.7005 87.509 56.4907 87.3484 56.3415L87.8644 55.6727C88.1357 55.9103 88.3226 56.1701 88.4251 56.4523C88.5291 56.7375 88.5724 57.0255 88.5552 57.3161C88.5394 57.6097 88.4891 57.8871 88.4043 58.1482C88.3501 58.3148 88.2677 58.4996 88.1569 58.7026C88.0477 58.9086 87.8994 59.0931 87.7119 59.2563C87.5238 59.4217 87.285 59.532 86.9957 59.5874C86.7064 59.6427 86.3557 59.6035 85.9437 59.4696L82.5258 58.3591L82.7848 57.562L83.4873 57.7903L83.5005 57.7497C83.4055 57.6591 83.3143 57.5299 83.2269 57.3621C83.1395 57.1943 83.0848 56.9911 83.0628 56.7525C83.0408 56.5138 83.0788 56.2436 83.1768 55.9419ZM83.8533 56.2961C83.7509 56.6114 83.7265 56.8972 83.7801 57.1535C83.8329 57.4122 83.9394 57.6285 84.0994 57.8025C84.2587 57.9787 84.4465 58.1019 84.6626 58.1721L85.3921 58.4092C85.3626 58.3622 85.3496 58.2759 85.3531 58.1501C85.3582 58.0272 85.3724 57.8875 85.396 57.7309C85.421 57.5772 85.4472 57.4276 85.4745 57.2822C85.5034 57.1397 85.5261 57.0239 85.5426 56.9347C85.5829 56.7187 85.6019 56.5108 85.5997 56.311C85.5989 56.1141 85.5568 55.9411 85.4733 55.792C85.3914 55.6459 85.2491 55.5399 85.0464 55.474C84.7695 55.384 84.5268 55.4185 84.3184 55.5773C84.1115 55.739 83.9564 55.9787 83.8533 56.2961Z" fill="#676464"/>
<path d="M80.9091 61.8684L85.7691 64.3448L85.3886 65.0915L80.5286 62.6152L80.9091 61.8684ZM86.3856 65.1372C86.4598 64.9916 86.5733 64.8914 86.7262 64.8364C86.878 64.7836 87.0235 64.7926 87.1627 64.8635C87.302 64.9345 87.3948 65.0469 87.4413 65.2008C87.4867 65.3567 87.4723 65.5075 87.3981 65.6531C87.324 65.7986 87.211 65.8978 87.0592 65.9507C86.9063 66.0056 86.7603 65.9976 86.621 65.9267C86.4818 65.8557 86.3895 65.7423 86.3441 65.5863C86.2976 65.4324 86.3115 65.2827 86.3856 65.1372Z" fill="#676464"/>
<path d="M83.1609 71.9842L77.2772 67.7094L77.7698 67.0314L83.6535 71.3062L83.1609 71.9842Z" fill="#676464"/>
<path d="M69.9575 76.7384C70.1893 76.57 70.442 76.4728 70.7156 76.4466C70.9906 76.4224 71.2552 76.4643 71.5092 76.5723C71.7614 76.6817 71.9716 76.8523 72.14 77.0841C72.3098 77.3178 72.4071 77.5704 72.4318 77.8422C72.456 78.1172 72.4135 78.3808 72.304 78.6329C72.196 78.887 72.0261 79.0982 71.7943 79.2666C71.5607 79.4364 71.3073 79.5327 71.0342 79.5555C70.7606 79.5817 70.4977 79.54 70.2455 79.4306C69.9928 79.3245 69.7816 79.1546 69.6118 78.9209C69.4435 78.6892 69.3472 78.4358 69.3229 78.1608C69.2968 77.8871 69.3377 77.6233 69.4458 77.3692C69.5533 77.1184 69.7239 76.9082 69.9575 76.7384Z" fill="#676464"/>
<path d="M58.2664 81.0636C58.7663 80.9012 59.2333 80.8714 59.6675 80.9743C60.1002 81.0801 60.4792 81.3005 60.8046 81.6354C61.1284 81.9732 61.3767 82.4078 61.5493 82.9392C61.722 83.4706 61.7773 83.9704 61.7154 84.4385C61.6519 84.9097 61.4826 85.3157 61.2075 85.6565C60.9309 86.0003 60.5584 86.2483 60.0901 86.4004C59.8199 86.4882 59.5385 86.5299 59.2458 86.5254C58.9531 86.521 58.6657 86.4525 58.3837 86.3201C58.1025 86.19 57.8439 85.9802 57.608 85.691C57.3722 85.4017 57.1756 85.015 57.0183 84.5309L56.9085 84.1932L60.9073 82.8939L61.1312 83.5829L57.943 84.6188C58.0381 84.9115 58.1815 85.1537 58.3732 85.3453C58.5626 85.5376 58.7859 85.6655 59.0429 85.7288C59.2977 85.7929 59.5693 85.7781 59.8575 85.6845C60.1749 85.5813 60.424 85.4132 60.6047 85.1803C60.7839 84.9503 60.8948 84.6902 60.9374 84.4001C60.9801 84.1099 60.9549 83.8219 60.862 83.5359L60.7128 83.0766C60.5855 82.6848 60.41 82.3747 60.1864 82.1461C59.9613 81.9206 59.7041 81.7764 59.4148 81.7135C59.1263 81.6529 58.821 81.675 58.4991 81.7796C58.2897 81.8476 58.1101 81.9383 57.9602 82.0517C57.8088 82.1681 57.6906 82.3061 57.6056 82.4657C57.5212 82.6275 57.4746 82.8094 57.4655 83.0115L56.6253 83.0456C56.6215 82.7581 56.6831 82.4841 56.8101 82.2238C56.9378 81.9657 57.1245 81.7358 57.3701 81.5341C57.6164 81.3345 57.9152 81.1777 58.2664 81.0636Z" fill="#676464"/>
<path d="M55.8151 82.0229L56.6683 87.4103L55.8686 87.5369L55.7353 86.6951L55.6652 86.7063C55.5985 87.0116 55.4526 87.2636 55.2276 87.4623C55.003 87.6632 54.7153 87.7915 54.3646 87.8471C54.0091 87.9033 53.7006 87.8695 53.4388 87.7456C53.1752 87.6244 52.9539 87.4305 52.7751 87.164L52.7189 87.1729C52.6251 87.473 52.4531 87.7267 52.2031 87.9341C51.9535 88.1438 51.6358 88.2793 51.25 88.3404C50.7683 88.4167 50.3504 88.3282 49.9963 88.0751C49.6426 87.8243 49.4155 87.3821 49.3152 86.7484L48.7441 83.1428L49.5719 83.0117L50.1429 86.6173C50.2059 87.0148 50.3596 87.2817 50.6041 87.418C50.8486 87.5542 51.1182 87.599 51.4128 87.5523C51.7916 87.4923 52.0669 87.3313 52.2387 87.0692C52.4109 86.8094 52.4694 86.5053 52.4142 86.1569L51.8587 82.6495L52.7005 82.5162L53.2849 86.206C53.3334 86.5123 53.4718 86.7432 53.7002 86.8988C53.929 87.0567 54.2 87.1109 54.5133 87.0613C54.7285 87.0272 54.9205 86.9381 55.0894 86.7939C55.256 86.65 55.3804 86.4673 55.4628 86.2457C55.5432 86.0269 55.5625 85.7853 55.5206 85.5211L54.9873 82.154L55.8151 82.0229Z" fill="#676464"/>
<path d="M46.9847 82.8841C47.3304 82.8841 47.644 82.9492 47.9258 83.0794C48.2075 83.212 48.4312 83.4026 48.5969 83.6512C48.7627 83.9021 48.8455 84.2051 48.8455 84.5603C48.8455 84.8728 48.784 85.1261 48.6609 85.3202C48.5377 85.5167 48.3732 85.6706 48.1672 85.7818C47.9613 85.8931 47.734 85.976 47.4854 86.0304C47.2345 86.0872 46.9823 86.1322 46.729 86.1654C46.3976 86.208 46.1289 86.2399 45.9229 86.2613C45.7146 86.2849 45.5631 86.324 45.4684 86.3784C45.3713 86.4329 45.3228 86.5276 45.3228 86.6625V86.6909C45.3228 87.0413 45.4187 87.3136 45.6104 87.5077C45.7998 87.7018 46.0875 87.7989 46.4734 87.7989C46.8734 87.7989 47.1871 87.7113 47.4144 87.5361C47.6417 87.3609 47.8015 87.1739 47.8938 86.975L48.6893 87.2591C48.5472 87.5906 48.3578 87.8486 48.1211 88.0333C47.882 88.2203 47.6216 88.3505 47.3398 88.4239C47.0557 88.4997 46.7764 88.5375 46.5018 88.5375C46.3266 88.5375 46.1253 88.5162 45.8981 88.4736C45.6684 88.4334 45.4471 88.3493 45.234 88.2215C45.0186 88.0936 44.8398 87.9007 44.6978 87.6426C44.5557 87.3846 44.4847 87.039 44.4847 86.6057V83.012H45.3228V83.7506H45.3654C45.4222 83.6322 45.5169 83.5056 45.6495 83.3706C45.7821 83.2357 45.9584 83.1209 46.1786 83.0262C46.3988 82.9315 46.6675 82.8841 46.9847 82.8841ZM46.8569 83.637C46.5254 83.637 46.2461 83.7021 46.0188 83.8323C45.7892 83.9625 45.6163 84.1306 45.5003 84.3365C45.382 84.5425 45.3228 84.7591 45.3228 84.9864V85.7534C45.3583 85.7108 45.4364 85.6718 45.5572 85.6363C45.6755 85.6031 45.8128 85.5735 45.9691 85.5475C46.123 85.5238 46.2733 85.5025 46.4201 85.4836C46.5645 85.467 46.6817 85.4528 46.7716 85.4409C46.9895 85.4125 47.1931 85.3664 47.3824 85.3024C47.5695 85.2409 47.721 85.1474 47.837 85.0219C47.9506 84.8988 48.0074 84.7307 48.0074 84.5176C48.0074 84.2265 47.8997 84.0063 47.6843 83.8571C47.4665 83.7104 47.1907 83.637 46.8569 83.637Z" fill="#676464"/>
<path d="M40.6475 82.5588L39.7942 87.9462L38.9664 87.8151L39.8197 82.4277L40.6475 82.5588ZM39.2311 88.7774C39.3924 88.803 39.5228 88.8799 39.6223 89.0084C39.7195 89.1364 39.7559 89.2776 39.7314 89.4319C39.707 89.5862 39.6288 89.7093 39.4968 89.801C39.3625 89.8924 39.2147 89.9253 39.0533 89.8998C38.892 89.8742 38.7627 89.7974 38.6655 89.6694C38.566 89.541 38.5285 89.3996 38.5529 89.2453C38.5774 89.0909 38.6568 88.9681 38.7911 88.8767C38.9231 88.7849 39.0697 88.7518 39.2311 88.7774Z" fill="#676464"/>
<path d="M31.7226 87.8264L33.97 80.9096L34.767 81.1686L32.5196 88.0853L31.7226 87.8264Z" fill="#676464"/>
<path d="M23.1214 76.7384C23.3532 76.9067 23.5238 77.117 23.6332 77.3692C23.7412 77.6232 23.7831 77.8878 23.7589 78.1628C23.7327 78.4364 23.6355 78.6891 23.4671 78.9209C23.2973 79.1545 23.0871 79.3251 22.8363 79.4326C22.5822 79.5407 22.3184 79.5816 22.0448 79.5555C21.7697 79.5312 21.5164 79.4349 21.2846 79.2665C21.0509 79.0968 20.881 78.8855 20.7749 78.6329C20.6655 78.3807 20.6239 78.1178 20.65 77.8442C20.6729 77.5711 20.7692 77.3177 20.9389 77.084C21.1073 76.8523 21.3185 76.6824 21.5726 76.5744C21.8248 76.4649 22.0883 76.4223 22.3634 76.4466C22.6351 76.4713 22.8878 76.5686 23.1214 76.7384Z" fill="#676464"/>
<path d="M15.3949 66.9561C15.7038 67.3813 15.8764 67.8163 15.9128 68.261C15.9458 68.7052 15.8533 69.1338 15.6354 69.5467C15.4141 69.9591 15.0775 70.3295 14.6255 70.6579C14.1735 70.9863 13.7153 71.1934 13.2509 71.2792C12.7831 71.3644 12.3447 71.3289 11.9356 71.1725C11.5231 71.0157 11.1722 70.7381 10.8827 70.3397C10.7158 70.1099 10.5892 69.8551 10.503 69.5753C10.4168 69.2956 10.3931 69.0011 10.4319 68.692C10.4687 68.3843 10.5883 68.0736 10.7905 67.7599C10.9927 67.4461 11.2997 67.1397 11.7115 66.8405L11.9988 66.6318L14.4702 70.0333L13.8841 70.4591L11.9137 67.7471C11.6647 67.928 11.4787 68.1392 11.3557 68.3807C11.2313 68.6204 11.1787 68.8722 11.1979 69.1362C11.2157 69.3984 11.3137 69.652 11.4918 69.8972C11.688 70.1672 11.9248 70.3522 12.2022 70.4521C12.4763 70.5514 12.7579 70.5765 13.047 70.5274C13.3362 70.4783 13.6024 70.3654 13.8456 70.1886L14.2363 69.9048C14.5696 69.6626 14.8103 69.3999 14.9586 69.1166C15.1036 68.8328 15.1612 68.5436 15.1316 68.2491C15.1001 67.956 14.9848 67.6725 14.7858 67.3986C14.6564 67.2205 14.5146 67.0777 14.3604 66.9702C14.203 66.8622 14.0352 66.7924 13.8572 66.7609C13.6772 66.7307 13.4897 66.7425 13.2948 66.7964L13.0027 66.0077C13.275 65.9153 13.5545 65.8892 13.8414 65.9296C14.1263 65.9713 14.4026 66.0778 14.6704 66.249C14.9363 66.4216 15.1778 66.6573 15.3949 66.9561Z" fill="#676464"/>
<path d="M13.7249 64.9208L8.86489 67.3971L8.49731 66.6757L9.25669 66.2887L9.22444 66.2255C8.9134 66.2564 8.62866 66.1956 8.37022 66.043C8.10967 65.8914 7.89878 65.6574 7.73756 65.341C7.5742 65.0204 7.51101 64.7165 7.548 64.4293C7.58181 64.141 7.69781 63.8707 7.89601 63.6183L7.87021 63.5676C7.55578 63.5711 7.26133 63.486 6.98684 63.3123C6.71025 63.1397 6.48329 62.8794 6.30595 62.5313C6.08454 62.0968 6.03949 61.672 6.17081 61.2571C6.30001 60.8432 6.65044 60.4906 7.22208 60.1993L10.4748 58.542L10.8552 59.2887L7.60256 60.946C7.24396 61.1287 7.03765 61.3574 6.98362 61.632C6.92959 61.9067 6.97028 62.1769 7.10571 62.4427C7.27982 62.7844 7.51807 62.9965 7.82044 63.0789C8.12071 63.1623 8.42799 63.124 8.74229 62.9639L11.9064 61.3517L12.2933 62.1111L8.96468 63.8071C8.68835 63.9479 8.51149 64.1509 8.4341 64.4162C8.35459 64.6826 8.38685 64.9571 8.53088 65.2397C8.62976 65.4338 8.77387 65.5889 8.96321 65.7049C9.15148 65.8189 9.3637 65.8808 9.59989 65.8907C9.83288 65.8995 10.0686 65.8432 10.3069 65.7217L13.3444 64.174L13.7249 64.9208Z" fill="#676464"/>
<path d="M10.1774 56.7888C10.2842 57.1175 10.3192 57.436 10.2824 57.7442C10.2434 58.0531 10.1313 58.3247 9.94606 58.5591C9.75861 58.7943 9.49601 58.9667 9.15828 59.0765C8.86108 59.173 8.60114 59.1928 8.37847 59.1357C8.15355 59.0793 7.95635 58.9704 7.78688 58.8089C7.61741 58.6474 7.46838 58.4569 7.33978 58.2373C7.20819 58.0162 7.0875 57.7903 6.9777 57.5596C6.83475 57.2576 6.72132 57.0119 6.63741 56.8226C6.55052 56.6318 6.46654 56.4997 6.3855 56.4265C6.30372 56.351 6.19866 56.3341 6.07032 56.3758L6.0433 56.3846C5.71007 56.4929 5.48077 56.6682 5.3554 56.9105C5.2293 57.1507 5.22587 57.4542 5.34512 57.8212C5.46875 58.2017 5.64899 58.473 5.88584 58.635C6.12269 58.797 6.34994 58.8912 6.5676 58.9176L6.54322 59.7619C6.18411 59.7292 5.88017 59.6288 5.63139 59.4607C5.37963 59.2911 5.17532 59.0837 5.01846 58.8384C4.85862 58.5916 4.73627 58.3377 4.65141 58.0765C4.59727 57.9099 4.55535 57.7119 4.52565 57.4826C4.49296 57.2518 4.50449 57.0153 4.56024 56.7731C4.61525 56.5287 4.74351 56.2991 4.94504 56.0843C5.14656 55.8694 5.45334 55.6951 5.86538 55.5612L9.28324 54.4507L9.54221 55.2477L8.83973 55.476L8.8529 55.5165C8.98303 55.534 9.13275 55.5849 9.30206 55.6693C9.47137 55.7537 9.63507 55.8859 9.79317 56.066C9.95127 56.2462 10.0793 56.4871 10.1774 56.7888ZM9.42186 56.8999C9.31944 56.5846 9.1712 56.3391 8.97713 56.1632C8.78234 55.985 8.56907 55.8726 8.33734 55.8259C8.10487 55.777 7.88057 55.7876 7.66442 55.8579L6.93491 56.0949C6.98642 56.1155 7.04771 56.1777 7.11879 56.2816C7.18689 56.3839 7.25747 56.5054 7.33052 56.6459C7.40059 56.7849 7.46731 56.9213 7.53068 57.0551C7.59106 57.1873 7.64079 57.2944 7.67984 57.3763C7.77417 57.5746 7.88099 57.754 8.00031 57.9144C8.11664 58.0732 8.2524 58.1884 8.40758 58.26C8.55977 58.33 8.73719 58.3321 8.93983 58.2663C9.21677 58.1763 9.39288 58.0058 9.46816 57.7548C9.54045 57.5023 9.52502 57.2173 9.42186 56.8999Z" fill="#676464"/>
<path d="M8.52818 50.6612L3.14079 51.5145L3.00969 50.6868L8.39708 49.8335L8.52818 50.6612ZM2.17623 51.2358C2.20179 51.3972 2.16887 51.545 2.07749 51.6793C1.98574 51.8113 1.8627 51.8895 1.70837 51.914C1.55405 51.9384 1.41286 51.902 1.28481 51.8049C1.1564 51.7054 1.07941 51.5749 1.05386 51.4136C1.02831 51.2523 1.0614 51.1056 1.15316 50.9736C1.24454 50.8393 1.36739 50.7599 1.52172 50.7355C1.67604 50.711 1.81742 50.7486 1.94583 50.8481C2.07388 50.9452 2.15068 51.0745 2.17623 51.2358Z" fill="#676464"/>
<path d="M0.76072 43.8011H8.03345V44.6392H0.76072V43.8011Z" fill="#676464"/>
<path d="M8.64842 32.1945C8.5599 32.4669 8.41264 32.6942 8.20664 32.8761C7.99839 33.0574 7.75974 33.179 7.49069 33.2409C7.22237 33.3006 6.95199 33.2862 6.67955 33.1977C6.40486 33.1084 6.17765 32.9612 5.99791 32.7559C5.81665 32.5477 5.69617 32.3094 5.63649 32.0411C5.57455 31.772 5.58785 31.5013 5.67637 31.2288C5.76562 30.9541 5.914 30.7273 6.12152 30.5483C6.32752 30.3663 6.56468 30.2454 6.833 30.1858C7.0998 30.1231 7.37054 30.1364 7.64523 30.2256C7.91767 30.3142 8.14452 30.4625 8.32578 30.6708C8.50777 30.8768 8.62974 31.1143 8.69167 31.3834C8.75209 31.6494 8.73767 31.9198 8.64842 32.1945Z" fill="#676464"/>
<path d="M15.5637 21.8232C15.2548 22.2484 14.8945 22.547 14.4828 22.719C14.0705 22.8877 13.6343 22.9322 13.1743 22.8525C12.7137 22.7696 12.2574 22.5639 11.8054 22.2355C11.3534 21.9071 11.0148 21.5353 10.7897 21.1201C10.5641 20.7016 10.4625 20.2736 10.4847 19.8362C10.5064 19.3955 10.662 18.9759 10.9514 18.5776C11.1184 18.3477 11.3216 18.1486 11.561 17.9802C11.8005 17.8117 12.0732 17.6982 12.3791 17.6396C12.6832 17.5796 13.0156 17.5972 13.3765 17.6926C13.7374 17.788 14.1237 17.9853 14.5355 18.2845L14.8228 18.4932L12.3514 21.8948L11.7653 21.4689L13.7357 18.7569C13.4867 18.576 13.2284 18.4644 12.9607 18.422C12.6943 18.3778 12.4386 18.4056 12.1934 18.5054C11.9496 18.6034 11.7386 18.7749 11.5605 19.0201C11.3643 19.2901 11.2616 19.5725 11.2523 19.8672C11.2425 20.1585 11.3057 20.4341 11.4417 20.6939C11.5778 20.9537 11.7674 21.172 12.0107 21.3487L12.4014 21.6326C12.7347 21.8747 13.0589 22.0225 13.3741 22.076C13.6889 22.1261 13.9817 22.0916 14.2527 21.9724C14.5217 21.8519 14.7557 21.6546 14.9547 21.3807C15.0841 21.2026 15.1761 21.0236 15.2307 20.8438C15.2847 20.6607 15.2992 20.4796 15.2743 20.3005C15.2474 20.12 15.1782 19.9454 15.0667 19.7766L15.7265 19.2551C15.8986 19.4855 16.0097 19.7433 16.06 20.0286C16.1083 20.3124 16.0925 20.6082 16.0124 20.9158C15.9304 21.222 15.7808 21.5245 15.5637 21.8232Z" fill="#676464"/>
<path d="M16.9835 19.6063L13.1266 15.7494L13.6991 15.1769L14.3018 15.7795L14.352 15.7293C14.2264 15.443 14.1963 15.1534 14.2616 14.8605C14.3252 14.5658 14.4826 14.293 14.7337 14.0419C14.9881 13.7874 15.2576 13.6334 15.5422 13.5798C15.8268 13.5229 16.1197 13.5497 16.4211 13.6602L16.4612 13.62C16.3608 13.322 16.3508 13.0157 16.4311 12.701C16.5098 12.3846 16.6872 12.0883 16.9635 11.8121C17.3083 11.4672 17.6983 11.2931 18.1336 11.2898C18.5672 11.2848 19.0108 11.5091 19.4644 11.9627L22.0458 14.5441L21.4532 15.1367L18.8718 12.5553C18.5873 12.2708 18.306 12.1452 18.0281 12.1787C17.7502 12.2122 17.5058 12.3344 17.2949 12.5453C17.0237 12.8165 16.8957 13.1086 16.9107 13.4217C16.9241 13.733 17.0555 14.0134 17.305 14.2628L19.816 16.7739L19.2133 17.3765L16.5717 14.7349C16.3524 14.5156 16.1047 14.4102 15.8285 14.4185C15.5506 14.4252 15.2995 14.5407 15.0752 14.7651C14.9211 14.9191 14.8182 15.104 14.7663 15.32C14.7161 15.5343 14.7228 15.7552 14.7864 15.9829C14.85 16.2072 14.9764 16.414 15.1656 16.6031L17.5761 19.0137L16.9835 19.6063Z" fill="#676464"/>
<path d="M23.6211 13.7191C23.3415 13.9223 23.0494 14.054 22.745 14.1143C22.4391 14.1726 22.1461 14.1499 21.8659 14.0462C21.5844 13.9406 21.3392 13.7442 21.1305 13.4569C20.9468 13.204 20.8477 12.9629 20.8332 12.7335C20.8173 12.5022 20.86 12.281 20.9612 12.0699C21.0624 11.8588 21.1976 11.6582 21.3667 11.468C21.5363 11.2746 21.7138 11.09 21.8993 10.9143C22.1424 10.685 22.341 10.5012 22.4951 10.3629C22.6497 10.2213 22.7493 10.1006 22.7939 10.0009C22.8405 9.89979 22.8241 9.79465 22.7448 9.68548L22.7281 9.6625C22.5221 9.37904 22.2845 9.21513 22.0153 9.1708C21.7479 9.12506 21.4582 9.21561 21.146 9.44243C20.8223 9.6776 20.62 9.93284 20.5391 10.2082C20.4582 10.4835 20.4389 10.7287 20.4811 10.9439L19.6705 11.1816C19.5907 10.83 19.5922 10.5099 19.6752 10.2213C19.7587 9.92947 19.8928 9.67106 20.0776 9.4461C20.2629 9.21782 20.4667 9.02298 20.6888 8.86156C20.8306 8.75859 21.0059 8.65754 21.2148 8.55843C21.4243 8.45601 21.6527 8.39389 21.9002 8.37208C22.1497 8.34888 22.4077 8.39991 22.6743 8.52519C22.9409 8.65046 23.2015 8.88835 23.4562 9.23884L25.5685 12.1462L24.8905 12.6389L24.4563 12.0413L24.4219 12.0663C24.4455 12.1955 24.4433 12.3536 24.4154 12.5407C24.3874 12.7278 24.3122 12.9244 24.1898 13.1304C24.0673 13.3364 23.8778 13.5327 23.6211 13.7191ZM23.282 13.0349C23.5502 12.8401 23.7379 12.6232 23.8452 12.3843C23.9545 12.144 23.9955 11.9064 23.9683 11.6716C23.943 11.4354 23.8635 11.2254 23.73 11.0415L23.2791 10.421C23.2754 10.4763 23.2352 10.5538 23.1584 10.6535C23.0821 10.7499 22.9884 10.8546 22.8773 10.9675C22.7667 11.0771 22.6576 11.1827 22.55 11.2843C22.4429 11.3826 22.3565 11.4629 22.2906 11.5254C22.1311 11.6764 21.9935 11.8334 21.8779 11.9965C21.7628 12.1562 21.6952 12.3209 21.6751 12.4906C21.6555 12.657 21.7083 12.8264 21.8336 12.9987C22.0047 13.2343 22.2213 13.3491 22.4832 13.3432C22.7457 13.3339 23.012 13.2311 23.282 13.0349Z" fill="#676464"/>
<path d="M28.9394 10.2576L26.463 5.39756L27.2098 5.01709L29.6861 9.87712L28.9394 10.2576ZM26.43 4.39409C26.2845 4.46825 26.1337 4.48263 25.9777 4.43723C25.8238 4.39075 25.7114 4.29791 25.6405 4.15869C25.5696 4.01947 25.5605 3.87395 25.6134 3.72215C25.6683 3.56927 25.7686 3.45575 25.9141 3.38159C26.0597 3.30742 26.2094 3.29358 26.3632 3.34006C26.5192 3.38546 26.6327 3.47777 26.7036 3.61699C26.7746 3.75621 26.7826 3.90226 26.7276 4.05514C26.6748 4.20695 26.5756 4.31993 26.43 4.39409Z" fill="#676464"/>
<path d="M33.0635 0.749964L35.3109 7.66674L34.5138 7.92572L32.2664 1.00894L33.0635 0.749964Z" fill="#676464"/>
</svg>
