<svg width="93" height="92" viewBox="0 0 93 92" fill="none" xmlns="http://www.w3.org/2000/svg">
<path d="M46.5394 5.66477C46.2529 5.66477 45.9913 5.59493 45.7546 5.45526C45.5178 5.31321 45.3284 5.12382 45.1864 4.88707C45.0467 4.65033 44.9769 4.38873 44.9769 4.10227C44.9769 3.81345 45.0467 3.55185 45.1864 3.31747C45.3284 3.08073 45.5178 2.89252 45.7546 2.75284C45.9913 2.6108 46.2529 2.53977 46.5394 2.53977C46.8282 2.53977 47.0898 2.6108 47.3242 2.75284C47.5609 2.89252 47.7491 3.08073 47.8888 3.31747C48.0308 3.55185 48.1019 3.81345 48.1019 4.10227C48.1019 4.38873 48.0308 4.65033 47.8888 4.88707C47.7491 5.12382 47.5609 5.31321 47.3242 5.45526C47.0898 5.59493 46.8282 5.66477 46.5394 5.66477Z" fill="#676464"/>
<path d="M56.7579 10.6244C56.3688 10.5128 56.0486 10.3668 55.7974 10.1864C55.5455 10.0083 55.3495 9.8117 55.2092 9.59662C55.0705 9.38446 54.9727 9.17169 54.9157 8.95831L55.6866 8.69174C55.732 8.8082 55.7929 8.94387 55.8692 9.09873C55.9448 9.25587 56.0663 9.40769 56.2336 9.55418C56.4025 9.70361 56.6452 9.82367 56.9615 9.91437C57.3848 10.0357 57.7635 10.0335 58.0976 9.90765C58.4317 9.7818 58.6613 9.5004 58.7866 9.06346L59.092 7.99843L59.0238 7.97885C58.9372 8.05747 58.8191 8.15166 58.6694 8.26143C58.5226 8.36958 58.3323 8.44923 58.0984 8.50039C57.8675 8.54992 57.5813 8.52575 57.24 8.42787C56.8167 8.30649 56.4654 8.09739 56.186 7.80055C55.9089 7.50436 55.7273 7.13704 55.6412 6.6986C55.5574 6.26082 55.5938 5.76884 55.7504 5.22267C55.9044 4.6856 56.133 4.24502 56.436 3.90093C56.7398 3.55457 57.0914 3.32044 57.4908 3.19855C57.8909 3.07438 58.3117 3.0756 58.7532 3.20219C59.0946 3.30007 59.3491 3.43462 59.5167 3.60583C59.6873 3.77542 59.8055 3.94723 59.8713 4.12127C59.9401 4.29369 59.991 4.43389 60.0241 4.54189L60.106 4.56538L60.3448 3.73247L61.1231 3.95564L59.5766 9.34908C59.4474 9.79968 59.2399 10.1367 58.9542 10.3602C58.6701 10.5865 58.3373 10.7165 57.9558 10.7499C57.5759 10.7863 57.1766 10.7445 56.7579 10.6244ZM57.5567 7.73551C57.8799 7.82817 58.1742 7.83252 58.4396 7.74855C58.705 7.66458 58.9356 7.50041 59.1313 7.25606C59.3269 7.0117 59.4803 6.69608 59.5912 6.30921C59.6995 5.93144 59.7382 5.58174 59.7073 5.2601C59.6764 4.93845 59.5729 4.66373 59.3969 4.43593C59.2208 4.20813 58.969 4.04724 58.6413 3.95328C58.2999 3.85539 57.9907 3.8603 57.7135 3.968C57.4386 4.07635 57.2025 4.25986 57.0052 4.51852C56.8101 4.77784 56.6617 5.085 56.5599 5.44002C56.4555 5.80413 56.4201 6.14246 56.4536 6.455C56.4901 6.76591 56.5981 7.03332 56.7777 7.25723C56.9603 7.47951 57.2199 7.63894 57.5567 7.73551Z" fill="#676464"/>
<path d="M62.0797 10.2747L64.2983 5.29171L65.0639 5.63258L62.8453 10.6156L62.0797 10.2747ZM65.0573 4.63454C64.9081 4.5681 64.802 4.45998 64.7392 4.31018C64.6784 4.16135 64.6799 4.01556 64.7434 3.87282C64.807 3.73008 64.9143 3.63148 65.0656 3.57701C65.219 3.52351 65.3703 3.52998 65.5195 3.59642C65.6687 3.66286 65.7737 3.7705 65.8344 3.91933C65.8973 4.06912 65.897 4.21539 65.8334 4.35813C65.7699 4.50087 65.6614 4.599 65.508 4.6525C65.3568 4.70697 65.2065 4.70098 65.0573 4.63454Z" fill="#676464"/>
<path d="M70.9569 8.92635L70.5805 9.52866L68.1833 8.03073L68.5597 7.42843L70.9569 8.92635ZM69.9509 6.75676L70.6616 7.20087L67.9066 11.6098C67.7812 11.8105 67.7162 11.9793 67.7117 12.1161C67.7105 12.2521 67.7453 12.366 67.8164 12.4578C67.8907 12.5489 67.98 12.6271 68.0844 12.6923C68.1627 12.7413 68.2295 12.7774 68.2847 12.8007C68.3411 12.822 68.3863 12.8391 68.4202 12.8519L68.1658 13.5807C68.1063 13.5686 68.0278 13.5447 67.9301 13.5088C67.8313 13.4749 67.7156 13.4166 67.5831 13.3338C67.3823 13.2083 67.2125 13.0422 67.0737 12.8355C66.9369 12.6299 66.8605 12.3993 66.8444 12.1436C66.8303 11.8892 66.9074 11.6274 67.0755 11.3584L69.9509 6.75676Z" fill="#676464"/>
<path d="M72.3663 12.6281L70.2572 15.1417L69.6152 14.603L74.29 9.03177L74.932 9.57047L73.2155 11.6162L73.2699 11.6618C73.5489 11.5282 73.8396 11.4801 74.142 11.5175C74.4477 11.5546 74.7647 11.7108 75.093 11.9863C75.3777 12.2252 75.5791 12.4916 75.6972 12.7854C75.8169 13.0774 75.8375 13.3898 75.7591 13.7227C75.684 14.0552 75.4958 14.4011 75.1945 14.7602L72.9666 17.4152L72.3247 16.8765L74.516 14.265C74.7945 13.9331 74.9236 13.6042 74.9035 13.2783C74.8867 12.9521 74.7269 12.6619 74.4241 12.4078C74.2137 12.2312 73.9878 12.1174 73.7464 12.0663C73.5068 12.0167 73.2674 12.0368 73.0282 12.1266C72.7909 12.2179 72.5703 12.3851 72.3663 12.6281Z" fill="#676464"/>
<path d="M77.6815 19.2138L80.0777 17.0563L80.6385 17.6791L76.585 21.3289L76.0242 20.7061L76.7104 20.0883L76.6723 20.0461C76.381 20.1364 76.0728 20.1462 75.748 20.0756C75.4249 20.0033 75.1255 19.8141 74.8499 19.508C74.6218 19.2547 74.4744 18.9796 74.4078 18.6827C74.343 18.3843 74.3725 18.0774 74.4963 17.762C74.6219 17.4451 74.8571 17.1314 75.2019 16.8209L77.7776 14.5017L78.3384 15.1245L75.8049 17.4057C75.5094 17.6718 75.3481 17.9667 75.321 18.2905C75.2956 18.6161 75.3993 18.9082 75.6322 19.1668C75.7716 19.3216 75.9529 19.4434 76.1763 19.5323C76.4012 19.6228 76.6445 19.649 76.9064 19.6107C77.1698 19.5743 77.4282 19.442 77.6815 19.2138Z" fill="#676464"/>
<path d="M77.3783 22.3665L83.4077 18.2996L83.8763 18.9944L81.6506 20.4956L81.6904 20.5545C81.8033 20.5526 81.951 20.5557 82.1336 20.5639C82.3195 20.5728 82.5181 20.6302 82.7295 20.736C82.9441 20.8426 83.1507 21.043 83.3493 21.3374C83.6061 21.7182 83.7373 22.118 83.7428 22.5369C83.7484 22.9558 83.6314 23.3645 83.3919 23.7631C83.1525 24.1616 82.7952 24.5211 82.3203 24.8414C81.8414 25.1645 81.3713 25.363 80.9101 25.4371C80.4509 25.5098 80.0278 25.4668 79.6408 25.308C79.2559 25.1479 78.9363 24.8794 78.6821 24.5026C78.4862 24.2121 78.3774 23.9471 78.3557 23.7076C78.336 23.4667 78.3562 23.2575 78.4164 23.0798C78.4784 22.9009 78.5335 22.7581 78.5815 22.6515L78.5259 22.5691L77.8311 23.0377L77.3783 22.3665ZM80.1 21.5244C79.7585 21.7548 79.491 22.008 79.2975 22.2842C79.1059 22.559 79.0014 22.8423 78.984 23.1339C78.9685 23.4242 79.0547 23.7087 79.2427 23.9874C79.4386 24.2779 79.6787 24.4687 79.9628 24.5597C80.2502 24.6514 80.5576 24.6583 80.8848 24.5803C81.2153 24.503 81.5415 24.3558 81.8634 24.1387C82.1814 23.9242 82.4348 23.6819 82.6238 23.4117C82.816 23.1421 82.9205 22.8588 82.9373 22.5619C82.9574 22.2657 82.8681 21.9704 82.6695 21.676C82.4789 21.3934 82.2471 21.2042 81.9741 21.1085C81.703 21.0115 81.4068 20.9999 81.0855 21.0739C80.7661 21.1465 80.4376 21.2967 80.1 21.5244Z" fill="#676464"/>
<path d="M84.4305 33.1945C84.342 32.922 84.3276 32.6517 84.3873 32.3833C84.4492 32.1143 84.5708 31.8756 84.7521 31.6674C84.9341 31.4614 85.1613 31.3141 85.4337 31.2256C85.7084 31.1364 85.9788 31.1219 86.2449 31.1824C86.5139 31.2443 86.7514 31.3663 86.9574 31.5483C87.1657 31.7295 87.3141 31.9564 87.4026 32.2288C87.4918 32.5035 87.5051 32.7742 87.4425 33.041C87.3828 33.3093 87.2619 33.5465 87.0799 33.7525C86.9009 33.96 86.6741 34.1084 86.3994 34.1977C86.127 34.2862 85.8562 34.2995 85.5872 34.2375C85.3189 34.1779 85.0806 34.0574 84.8723 33.8761C84.667 33.6964 84.5198 33.4692 84.4305 33.1945Z" fill="#676464"/>
<path d="M82.8715 44.4454C82.8573 44.0408 82.8972 43.6912 82.9912 43.3965C83.0827 43.1019 83.2091 42.8547 83.3703 42.6548C83.5293 42.4574 83.7014 42.2986 83.8867 42.1784L84.3785 42.8293C84.2817 42.9085 84.1715 43.0082 84.0478 43.1286C83.9217 43.2491 83.8149 43.4116 83.7273 43.616C83.6374 43.8228 83.5982 44.0907 83.6096 44.4196C83.625 44.8597 83.7442 45.2191 83.9671 45.498C84.19 45.7768 84.5286 45.9083 84.9829 45.8924L86.0902 45.8538L86.0877 45.7828C85.9862 45.7247 85.8601 45.6415 85.7094 45.5331C85.5612 45.4269 85.4267 45.2705 85.3057 45.0639C85.1873 44.8596 85.1218 44.58 85.1094 44.2251C85.0941 43.785 85.1844 43.3862 85.3804 43.0288C85.5764 42.6737 85.8696 42.3875 86.26 42.1702C86.6505 41.9552 87.1296 41.8378 87.6975 41.8179C88.2558 41.7984 88.7455 41.8797 89.1664 42.0616C89.5897 42.2434 89.921 42.5054 90.1603 42.8477C90.4021 43.1898 90.5309 43.5904 90.547 44.0494C90.5594 44.4043 90.51 44.6879 90.399 44.9003C90.2904 45.1149 90.1636 45.2804 90.0184 45.3968C89.8757 45.5155 89.7581 45.6072 89.6656 45.6721L89.6685 45.7572L90.5345 45.727L90.5627 46.5362L84.9554 46.732C84.4869 46.7483 84.1023 46.6552 83.8014 46.4525C83.4983 46.2522 83.2719 45.9759 83.1222 45.6234C82.9702 45.2734 82.8867 44.8807 82.8715 44.4454ZM85.8658 44.3124C85.8775 44.6483 85.9643 44.9296 86.1262 45.1561C86.2881 45.3826 86.5155 45.5511 86.8083 45.6617C87.1012 45.7723 87.4487 45.8205 87.851 45.8065C88.2437 45.7928 88.5883 45.7215 88.8846 45.5927C89.181 45.4639 89.4103 45.2806 89.5725 45.0428C89.7348 44.805 89.81 44.5157 89.7981 44.175C89.7857 43.8202 89.6854 43.5275 89.4974 43.2972C89.3094 43.0693 89.0619 42.9014 88.7549 42.7937C88.448 42.6884 88.11 42.6421 87.7409 42.655C87.3624 42.6682 87.0296 42.7391 86.7428 42.8675C86.4583 42.9983 86.2374 43.1837 86.0799 43.4237C85.9249 43.666 85.8536 43.9622 85.8658 44.3124Z" fill="#676464"/>
<path d="M84.8484 49.3985L90.2731 49.9687L90.1855 50.8022L84.7608 50.232L84.8484 49.3985ZM91.1327 50.4875C91.1497 50.325 91.2198 50.1908 91.3428 50.0847C91.4656 49.9809 91.6047 49.9372 91.7601 49.9536C91.9155 49.9699 92.0424 50.0416 92.141 50.1686C92.2393 50.2979 92.2799 50.4438 92.2628 50.6063C92.2457 50.7687 92.1758 50.9018 92.053 51.0056C91.93 51.1117 91.7908 51.1565 91.6354 51.1402C91.48 51.1239 91.3531 51.051 91.2548 50.9217C91.1563 50.7947 91.1156 50.65 91.1327 50.4875Z" fill="#676464"/>
<path d="M88.8743 57.4248L88.1852 57.2529L88.869 54.5102L89.5582 54.682L88.8743 57.4248ZM90.6269 55.7976L90.4241 56.6107L85.3797 55.353C85.15 55.2957 84.9694 55.2861 84.8379 55.3241C84.7082 55.3649 84.6106 55.4333 84.5452 55.5293C84.4815 55.6281 84.4348 55.7372 84.405 55.8566C84.3827 55.9462 84.369 56.0209 84.3638 56.0806C84.361 56.1409 84.3587 56.1891 84.357 56.2253L83.5853 56.2085C83.5784 56.1483 83.5769 56.0662 83.5809 55.9622C83.5825 55.8577 83.6022 55.7297 83.64 55.5781C83.6973 55.3483 83.8028 55.1355 83.9566 54.9396C84.1098 54.7461 84.3055 54.6021 84.5437 54.5078C84.7814 54.4158 85.0541 54.4081 85.3619 54.4849L90.6269 55.7976Z" fill="#676464"/>
<path d="M85.7892 59.9091L82.7468 58.6799L83.0608 57.9029L89.8039 60.6273L89.49 61.4043L87.014 60.404L86.9874 60.4698C87.2007 60.6939 87.3363 60.9555 87.3942 61.2546C87.4534 61.5569 87.4027 61.9066 87.2422 62.3039C87.1029 62.6485 86.9118 62.9224 86.6689 63.1256C86.4282 63.3296 86.1374 63.4458 85.7966 63.474C85.4571 63.5054 85.07 63.4333 84.6354 63.2577L81.4219 61.9593L81.7358 61.1823L84.8967 62.4593C85.2984 62.6216 85.6511 62.6429 85.9549 62.523C86.2599 62.4063 86.4865 62.1646 86.6346 61.798C86.7375 61.5434 86.7759 61.2934 86.75 61.048C86.7231 60.8048 86.63 60.5833 86.4707 60.3836C86.3105 60.1861 86.0833 60.0279 85.7892 59.9091Z" fill="#676464"/>
<path d="M81.1681 66.9993L83.9605 68.6115L83.5415 69.3373L78.8177 66.61L79.2368 65.8842L80.0364 66.3458L80.0648 66.2966C79.8888 66.0474 79.7842 65.7574 79.7511 65.4266C79.7199 65.097 79.8074 64.7538 80.0133 64.3971C80.1838 64.1019 80.3999 63.8767 80.6616 63.7217C80.9254 63.5678 81.2264 63.501 81.5646 63.5213C81.9048 63.5428 82.2759 63.6695 82.6777 63.9015L85.6793 65.6345L85.2603 66.3603L82.3079 64.6557C81.9635 64.4569 81.6331 64.3946 81.3168 64.469C80.9993 64.5454 80.7536 64.7343 80.5796 65.0357C80.4754 65.2161 80.4156 65.4262 80.4001 65.6661C80.3835 65.9079 80.4338 66.1475 80.5511 66.3847C80.6672 66.6239 80.8729 66.8288 81.1681 66.9993Z" fill="#676464"/>
<path d="M78.076 67.6851L83.807 72.1627L83.291 72.8231L81.1755 71.1702L81.1318 71.2262C81.1685 71.333 81.2112 71.4745 81.2598 71.6507C81.3088 71.8302 81.3156 72.0368 81.2802 72.2705C81.2453 72.5076 81.1185 72.766 80.8998 73.0458C80.6171 73.4077 80.2773 73.6561 79.8807 73.7908C79.484 73.9255 79.0591 73.9406 78.6061 73.836C78.1531 73.7314 77.7008 73.5027 77.2493 73.15C76.7941 72.7943 76.4601 72.4087 76.2471 71.9929C76.036 71.5786 75.9462 71.163 75.9776 70.7459C76.0109 70.3303 76.1675 69.9434 76.4473 69.5852C76.663 69.3091 76.8815 69.1237 77.1026 69.0291C77.3256 68.9359 77.5308 68.8905 77.7183 68.8928C77.9077 68.8965 78.0605 68.9047 78.1767 68.9175L78.238 68.8391L77.5776 68.3231L78.076 67.6851ZM79.7179 70.0134C79.3933 69.7598 79.0698 69.5836 78.7473 69.4849C78.4267 69.3877 78.1251 69.3758 77.8423 69.4493C77.5614 69.5243 77.3175 69.6942 77.1105 69.9591C76.8948 70.2352 76.7876 70.5225 76.7888 70.8208C76.7904 71.1225 76.8788 71.417 77.0541 71.7041C77.2297 71.9945 77.4705 72.2593 77.7765 72.4983C78.0787 72.7344 78.3875 72.9006 78.7029 72.9968C79.0187 73.0963 79.3204 73.1082 79.6079 73.0324C79.8959 72.96 80.1492 72.7838 80.3678 72.504C80.5777 72.2353 80.6859 71.9564 80.6926 71.6672C80.7011 71.3794 80.6206 71.0942 80.4509 70.8114C80.2831 70.5301 80.0388 70.2641 79.7179 70.0134Z" fill="#676464"/>
<path d="M69.9575 77.7384C70.1893 77.57 70.442 77.4728 70.7156 77.4466C70.9906 77.4224 71.2552 77.4643 71.5092 77.5723C71.7614 77.6817 71.9716 77.8523 72.14 78.0841C72.3098 78.3178 72.4071 78.5704 72.4318 78.8422C72.456 79.1172 72.4135 79.3808 72.304 79.6329C72.196 79.887 72.0261 80.0982 71.7943 80.2666C71.5607 80.4364 71.3073 80.5327 71.0342 80.5555C70.7606 80.5817 70.4977 80.54 70.2455 80.4306C69.9928 80.3245 69.7816 80.1546 69.6118 79.9209C69.4435 79.6892 69.3472 79.4358 69.3229 79.1608C69.2968 78.8871 69.3377 78.6233 69.4458 78.3692C69.5533 78.1184 69.7239 77.9082 69.9575 77.7384Z" fill="#676464"/>
<path d="M58.7753 79.732C59.1557 79.5935 59.5006 79.5234 59.8098 79.5217C60.1183 79.5178 60.3925 79.5616 60.6324 79.6532C60.8693 79.7433 61.0735 79.8579 61.245 79.997L60.778 80.6658C60.6728 80.5983 60.5438 80.5243 60.3911 80.4439C60.2376 80.3612 60.0501 80.3098 59.8286 80.2896C59.6041 80.268 59.3372 80.3135 59.028 80.4261C58.6142 80.5767 58.3091 80.8011 58.1128 81.0993C57.9165 81.3975 57.8961 81.7601 58.0515 82.1873L58.4305 83.2284L58.4972 83.2041C58.5211 83.0896 58.5613 82.944 58.6179 82.7672C58.673 82.5934 58.7802 82.4171 58.9393 82.2383C59.097 82.0625 59.3427 81.9138 59.6764 81.7924C60.0902 81.6418 60.4973 81.6044 60.8978 81.6804C61.2961 81.7571 61.6589 81.9475 61.9863 82.2516C62.3114 82.5565 62.5711 82.976 62.7655 83.5099C62.9566 84.0349 63.0306 84.5257 62.9877 84.9822C62.9455 85.4409 62.7987 85.837 62.5472 86.1704C62.2965 86.506 61.9553 86.7524 61.5238 86.9095C61.1901 87.0309 60.9051 87.0717 60.6688 87.0317C60.4312 86.9947 60.2345 86.9252 60.079 86.8231C59.922 86.7241 59.7984 86.6406 59.7082 86.5726L59.6281 86.6018L59.9244 87.416L59.1636 87.6929L57.2446 82.4205C57.0843 81.98 57.054 81.5854 57.1538 81.2367C57.2506 80.8865 57.4435 80.5858 57.7324 80.3345C58.0184 80.0818 58.366 79.881 58.7753 79.732ZM59.8271 82.5387C59.5112 82.6536 59.2706 82.8231 59.1052 83.0471C58.9398 83.271 58.8498 83.5393 58.8351 83.852C58.8204 84.1648 58.8819 84.5102 59.0196 84.8884C59.154 85.2577 59.3282 85.5634 59.5423 85.8054C59.7563 86.0474 60.0015 86.2089 60.2778 86.2897C60.5542 86.3705 60.8525 86.3526 61.1728 86.236C61.5065 86.1146 61.7539 85.9288 61.9148 85.6788C62.0735 85.4296 62.1566 85.1423 62.1642 84.8171C62.1696 84.4926 62.1091 84.1569 61.9828 83.8099C61.8532 83.4539 61.6831 83.1594 61.4722 82.9262C61.26 82.6961 61.0154 82.5433 60.7385 82.4677C60.4602 82.3952 60.1564 82.4188 59.8271 82.5387Z" fill="#676464"/>
<path d="M54.6759 83.143L55.8099 88.4783L54.9902 88.6526L53.8561 83.3172L54.6759 83.143ZM55.5821 89.4561C55.7419 89.4222 55.8912 89.4473 56.0302 89.5315C56.1668 89.6162 56.2513 89.735 56.2838 89.8879C56.3163 90.0407 56.2874 90.1836 56.197 90.3165C56.1044 90.45 55.9782 90.5337 55.8184 90.5677C55.6586 90.6016 55.5104 90.5762 55.3738 90.4915C55.2349 90.4073 55.1492 90.2888 55.1167 90.1359C55.0842 89.9831 55.1143 89.84 55.2069 89.7065C55.2973 89.5736 55.4223 89.4901 55.5821 89.4561Z" fill="#676464"/>
<path d="M48.2863 89.4517L48.2368 88.7433L51.0566 88.5461L51.1062 89.2546L48.2863 89.4517ZM50.3755 90.6157L49.5394 90.6741L49.1768 85.4879C49.1603 85.2518 49.1136 85.077 49.0369 84.9637C48.9579 84.853 48.8628 84.7813 48.7513 84.7488C48.6377 84.7187 48.5194 84.708 48.3966 84.7166C48.3045 84.7231 48.2293 84.7331 48.1709 84.7466C48.1127 84.7626 48.0661 84.7753 48.0312 84.7849L47.8086 84.0458C47.8638 84.0205 47.9415 83.9938 48.0415 83.9654C48.1414 83.9347 48.2693 83.9139 48.4252 83.903C48.6613 83.8865 48.8963 83.9211 49.1302 84.0068C49.3616 84.0926 49.559 84.2343 49.7223 84.4317C49.8833 84.6293 49.9748 84.8863 49.9969 85.2028L50.3755 90.6157Z" fill="#676464"/>
<path d="M44.9702 87.2856L45.1991 84.0124L46.0351 84.0708L45.5278 91.3258L44.6918 91.2674L44.8781 88.6034L44.8072 88.5985C44.66 88.8706 44.4531 89.0804 44.1865 89.2279C43.9174 89.3775 43.5691 89.4374 43.1416 89.4076C42.7708 89.3816 42.4513 89.2845 42.183 89.1163C41.9146 88.9503 41.7143 88.7097 41.5821 88.3943C41.4473 88.0811 41.3963 87.6907 41.429 87.2231L41.6708 83.7656L42.5068 83.8241L42.269 87.2249C42.2388 87.6571 42.3276 87.9991 42.5354 88.2509C42.7408 88.505 43.0406 88.6458 43.435 88.6734C43.709 88.6925 43.9586 88.6519 44.184 88.5513C44.407 88.4506 44.5888 88.2937 44.7295 88.0804C44.8679 87.867 44.9481 87.6021 44.9702 87.2856Z" fill="#676464"/>
<path d="M36.7993 85.0817L36.1289 88.2356L35.3091 88.0614L36.4432 82.726L37.2629 82.9003L37.071 83.8034L37.1265 83.8152C37.3092 83.5709 37.5527 83.3818 37.857 83.248C38.1609 83.1166 38.5143 83.0937 38.9172 83.1793C39.2507 83.2502 39.5316 83.3861 39.7599 83.5871C39.9878 83.7905 40.1443 84.0561 40.2295 84.384C40.3142 84.7142 40.3083 85.1063 40.2119 85.5602L39.4913 88.9503L38.6715 88.7761L39.3803 85.4415C39.463 85.0525 39.4201 84.719 39.2516 84.4412C39.0809 84.1629 38.8253 83.9875 38.4849 83.9152C38.2811 83.8718 38.0628 83.8799 37.8299 83.9393C37.5947 83.9982 37.3824 84.1201 37.1931 84.305C37.0014 84.4893 36.8701 84.7482 36.7993 85.0817Z" fill="#676464"/>
<path d="M35.1914 82.3528L32.704 89.1869L31.9165 88.9003L32.8347 86.3775L32.7679 86.3532C32.6777 86.4212 32.5563 86.5055 32.4038 86.6062C32.2482 86.7083 32.0538 86.7786 31.8206 86.8171C31.5844 86.8571 31.2994 86.8164 30.9657 86.6949C30.5341 86.5378 30.193 86.2915 29.9422 85.9559C29.6915 85.6202 29.5459 85.2208 29.5054 84.7576C29.4649 84.2944 29.5426 83.7937 29.7386 83.2553C29.9361 82.7125 30.1997 82.2756 30.5293 81.9446C30.8581 81.6158 31.2256 81.4019 31.632 81.3029C32.0376 81.2061 32.4539 81.2355 32.8811 81.391C33.2103 81.5108 33.4541 81.6612 33.6124 81.8423C33.7699 82.0256 33.8766 82.2068 33.9323 82.3858C33.9873 82.567 34.0267 82.7149 34.0505 82.8294L34.144 82.8634L34.4306 82.0759L35.1914 82.3528ZM33.4845 84.6338C33.6253 84.2467 33.6929 83.8846 33.6871 83.5474C33.6806 83.2125 33.5986 82.9219 33.4413 82.6757C33.2832 82.4317 33.0462 82.2522 32.7303 82.1373C32.4011 82.0174 32.0948 82.0042 31.8114 82.0975C31.5249 82.1923 31.2723 82.3674 31.0533 82.6228C30.8314 82.8796 30.654 83.1904 30.5212 83.5553C30.39 83.9157 30.3274 84.2607 30.3334 84.5904C30.3364 84.9215 30.4183 85.2121 30.5792 85.4621C30.7371 85.7136 30.9829 85.9 31.3166 86.0215C31.637 86.1381 31.9357 86.1549 32.2128 86.0718C32.4891 85.991 32.7355 85.8262 32.952 85.5775C33.1677 85.331 33.3452 85.0164 33.4845 84.6338Z" fill="#676464"/>
<path d="M23.1212 77.7384C23.3529 77.9067 23.5235 78.117 23.633 78.3692C23.741 78.6232 23.7829 78.8878 23.7587 79.1628C23.7325 79.4364 23.6352 79.6891 23.4669 79.9209C23.2971 80.1545 23.0868 80.3251 22.8361 80.4326C22.582 80.5407 22.3181 80.5816 22.0445 80.5555C21.7695 80.5312 21.5161 80.4349 21.2844 80.2665C21.0507 80.0968 20.8808 79.8855 20.7747 79.6329C20.6652 79.3807 20.6236 79.1178 20.6498 78.8442C20.6726 78.5711 20.7689 78.3177 20.9387 78.084C21.1071 77.8523 21.3183 77.6824 21.5724 77.5744C21.8245 77.4649 22.0881 77.4223 22.3631 77.4466C22.6348 77.4713 22.8875 77.5686 23.1212 77.7384Z" fill="#676464"/>
<path d="M17.7695 67.7194C18.0187 68.0385 18.192 68.3448 18.2891 68.6383C18.3882 68.9305 18.4313 69.2048 18.4183 69.4612C18.4058 69.7144 18.3599 69.944 18.2806 70.1502L17.5002 69.9127C17.5319 69.7918 17.5624 69.6462 17.5918 69.4761C17.6229 69.3046 17.6139 69.1103 17.5646 68.8935C17.5158 68.6733 17.39 68.4335 17.1874 68.1742C16.9163 67.8272 16.6087 67.6064 16.2644 67.5119C15.9201 67.4173 15.5689 67.51 15.2107 67.7898L14.3376 68.4719L14.3814 68.5279C14.4976 68.5152 14.6486 68.5084 14.8342 68.5076C15.0165 68.5064 15.2173 68.5538 15.4365 68.6499C15.6525 68.7455 15.8698 68.9333 16.0884 69.2131C16.3595 69.5601 16.5208 69.9358 16.5724 70.3402C16.6225 70.7427 16.5535 71.1466 16.3654 71.5519C16.1759 71.9553 15.8573 72.3319 15.4095 72.6817C14.9693 73.0257 14.5254 73.2478 14.0779 73.348C13.6286 73.4497 13.2066 73.4325 12.8118 73.2963C12.4151 73.1616 12.0754 72.9132 11.7926 72.5513C11.574 72.2715 11.4472 72.0131 11.4122 71.776C11.3739 71.5386 11.3792 71.3301 11.4283 71.1506C11.474 70.9707 11.5152 70.8273 11.5519 70.7205L11.4994 70.6533L10.8166 71.1868L10.3182 70.5488L14.7395 67.0944C15.1089 66.8058 15.4749 66.6551 15.8374 66.6423C16.2003 66.6261 16.5459 66.7166 16.8742 66.9138C17.2029 67.1076 17.5013 67.3762 17.7695 67.7194ZM15.4252 69.5871C15.2182 69.3222 14.9827 69.1457 14.7186 69.0576C14.4545 68.9695 14.1715 68.9668 13.8695 69.0495C13.5676 69.1321 13.2581 69.2974 12.9409 69.5451C12.6312 69.7871 12.3944 70.0473 12.2303 70.3256C12.0663 70.604 11.9885 70.8871 11.997 71.1749C12.0056 71.4626 12.1148 71.7408 12.3246 72.0095C12.5433 72.2893 12.7964 72.4671 13.0839 72.5429C13.37 72.6168 13.6688 72.6071 13.9805 72.5139C14.2907 72.4187 14.5913 72.2574 14.8824 72.0301C15.1809 71.7969 15.4084 71.544 15.565 71.2714C15.7182 70.9985 15.788 70.7186 15.7743 70.4319C15.7573 70.1448 15.6409 69.8632 15.4252 69.5871Z" fill="#676464"/>
<path d="M13.259 64.8745L8.53519 67.6018L8.11616 66.876L12.8399 64.1487L13.259 64.8745ZM7.53483 67.6873C7.61651 67.8288 7.63876 67.9786 7.60158 68.1367C7.56322 68.2928 7.47638 68.4099 7.34106 68.4881C7.20575 68.5662 7.06091 68.5828 6.90654 68.538C6.751 68.4911 6.63239 68.397 6.55071 68.2555C6.46903 68.114 6.44737 67.9652 6.48573 67.8091C6.52291 67.651 6.60916 67.5329 6.74447 67.4547C6.87979 67.3766 7.02522 67.361 7.18077 67.4079C7.33513 67.4527 7.45315 67.5458 7.53483 67.6873Z" fill="#676464"/>
<path d="M5.28451 60.7473L5.94302 60.4812L7.00192 63.1021L6.34341 63.3681L5.28451 60.7473ZM4.82313 63.0938L4.50918 62.3168L9.32948 60.3692C9.54899 60.2805 9.70076 60.1822 9.78479 60.0742C9.86574 59.9649 9.90448 59.8522 9.901 59.7362C9.89443 59.6188 9.8681 59.5031 9.82198 59.3889C9.78739 59.3033 9.75462 59.2349 9.72367 59.1835C9.69052 59.1331 9.66401 59.0927 9.64412 59.0625L10.2783 58.6224C10.3193 58.6671 10.3688 58.7327 10.4267 58.8191C10.4868 58.9046 10.5461 59.0198 10.6046 59.1646C10.6933 59.3841 10.733 59.6183 10.7238 59.8672C10.7136 60.1139 10.6399 60.3453 10.5026 60.5617C10.3644 60.7758 10.1483 60.9423 9.85415 61.0611L4.82313 63.0938Z" fill="#676464"/>
<path d="M6.31979 56.924L9.50358 56.1302L9.70632 56.9434L2.64963 58.7028L2.44688 57.8897L5.03801 57.2436L5.02083 57.1747C4.71655 57.1188 4.45308 56.9869 4.23043 56.7789C4.0049 56.5692 3.84031 56.2564 3.73665 55.8407C3.64673 55.48 3.64034 55.1461 3.71747 54.839C3.79231 54.5324 3.95928 54.2675 4.21838 54.0443C4.4746 53.8194 4.83013 53.6503 5.28496 53.5369L8.64792 52.6984L8.85066 53.5115L5.54284 54.3363C5.12247 54.4411 4.82463 54.6312 4.64933 54.9067C4.47116 55.1805 4.4299 55.5092 4.52554 55.8928C4.59198 56.1593 4.70782 56.3842 4.87307 56.5674C5.03775 56.7484 5.24323 56.8728 5.48951 56.9407C5.73522 57.0064 6.01198 57.0008 6.31979 56.924Z" fill="#676464"/>
<path d="M5.89081 48.4721L2.68404 48.8091L2.59644 47.9757L8.0211 47.4055L8.1087 48.239L7.19047 48.3355L7.19641 48.392C7.48524 48.4902 7.74029 48.6633 7.96157 48.9115C8.18049 49.1598 8.31148 49.4888 8.35454 49.8985C8.39018 50.2376 8.34769 50.5467 8.22707 50.826C8.1041 51.1056 7.89985 51.3365 7.61432 51.5189C7.32643 51.7015 6.95175 51.817 6.49028 51.8655L3.04335 52.2278L2.95575 51.3943L6.34617 51.038C6.74172 50.9964 7.04558 50.8526 7.25777 50.6065C7.4697 50.3581 7.55748 50.0608 7.52111 49.7147C7.49933 49.5076 7.42421 49.3024 7.29574 49.0993C7.16702 48.8938 6.98551 48.7296 6.7512 48.6066C6.51665 48.4813 6.22985 48.4365 5.89081 48.4721Z" fill="#676464"/>
<path d="M7.98923 46.0994L0.720936 45.8456L0.750185 45.0081L3.43321 45.1018L3.43569 45.0308C3.3432 44.966 3.22551 44.8766 3.08261 44.7626C2.93744 44.6462 2.81048 44.4831 2.70174 44.2732C2.59071 44.0608 2.54139 43.7772 2.55378 43.4223C2.56981 42.9633 2.69869 42.5627 2.94042 42.2206C3.18215 41.8784 3.51701 41.6165 3.94502 41.4349C4.37302 41.2532 4.8733 41.1724 5.44587 41.1923C6.02317 41.2125 6.52015 41.3282 6.9368 41.5393C7.35109 41.7504 7.66809 42.0339 7.88781 42.3898C8.10517 42.7456 8.20591 43.1507 8.19005 43.6049C8.17782 43.9551 8.11006 44.2334 7.98678 44.44C7.86113 44.6464 7.72179 44.8038 7.56877 44.9122C7.41338 45.0204 7.28492 45.1036 7.1834 45.1617L7.17993 45.261L8.01749 45.2903L7.98923 46.0994ZM5.29237 45.1809C5.70406 45.1953 6.06934 45.1476 6.38823 45.0379C6.70475 44.9282 6.95579 44.7605 7.14133 44.5348C7.32451 44.3091 7.42197 44.0282 7.4337 43.6922C7.44593 43.3421 7.36386 43.0466 7.18749 42.806C7.00884 42.5628 6.76425 42.3766 6.4537 42.2473C6.14087 42.1156 5.79045 42.043 5.40243 42.0294C5.01914 42.016 4.67164 42.0631 4.35993 42.1707C4.04594 42.2758 3.7949 42.4435 3.60683 42.6738C3.41647 42.9017 3.31509 43.1931 3.3027 43.548C3.2908 43.8887 3.36716 44.178 3.53178 44.4159C3.69403 44.6537 3.92688 44.8371 4.23033 44.9661C4.53141 45.0951 4.88543 45.1667 5.29237 45.1809Z" fill="#676464"/>
<path d="M8.64817 33.1945C8.55965 33.4669 8.41239 33.6942 8.20639 33.8761C7.99814 34.0574 7.75949 34.179 7.49044 34.2409C7.22213 34.3006 6.95175 34.2862 6.67931 34.1977C6.40462 34.1084 6.1774 33.9612 5.99766 33.7559C5.8164 33.5477 5.69593 33.3094 5.63625 33.0411C5.57431 32.772 5.5876 32.5013 5.67612 32.2288C5.76537 31.9541 5.91376 31.7273 6.12128 31.5483C6.32728 31.3663 6.56444 31.2454 6.83276 31.1858C7.09955 31.1231 7.3703 31.1364 7.64499 31.2256C7.91743 31.3142 8.14427 31.4625 8.32554 31.6708C8.50753 31.8768 8.62949 32.1143 8.69143 32.3834C8.75184 32.6494 8.73743 32.9198 8.64817 33.1945Z" fill="#676464"/>
<path d="M16.5231 25.0086C16.2967 25.3442 16.0589 25.6036 15.8097 25.7868C15.5625 25.9713 15.3149 26.097 15.067 26.1639C14.8224 26.2302 14.5898 26.2575 14.3693 26.2458L14.354 25.4302C14.4788 25.423 14.6266 25.4071 14.7974 25.3824C14.9703 25.3591 15.1522 25.2904 15.3432 25.1766C15.5375 25.062 15.7267 24.8684 15.9107 24.5956C16.157 24.2305 16.2718 23.8697 16.2554 23.513C16.2389 23.1564 16.0423 22.851 15.6655 22.5968L14.7469 21.9773L14.7072 22.0361C14.7552 22.1428 14.8083 22.2842 14.8664 22.4605C14.9239 22.6335 14.9409 22.8391 14.9173 23.0774C14.893 23.3123 14.7816 23.577 14.583 23.8714C14.3368 24.2364 14.0293 24.5059 13.6607 24.6799C13.2934 24.8519 12.8879 24.9111 12.4443 24.8575C12.0021 24.8019 11.5454 24.6153 11.0744 24.2976C10.6112 23.9851 10.2628 23.6316 10.0292 23.2371C9.79367 22.8412 9.67965 22.4344 9.68716 22.0169C9.69271 21.598 9.82389 21.1982 10.0807 20.8174C10.2793 20.523 10.4859 20.3225 10.7005 20.216C10.9145 20.1062 11.1145 20.0469 11.3003 20.038C11.4856 20.0259 11.6346 20.0208 11.7476 20.0227L11.7952 19.9521L11.0769 19.4675L11.5296 18.7963L16.1812 21.9338C16.5698 22.1959 16.8262 22.4974 16.9505 22.8382C17.078 23.1783 17.0987 23.535 17.0126 23.9081C16.9299 24.2807 16.7667 24.6475 16.5231 25.0086ZM14.0224 23.3562C14.2104 23.0775 14.3055 22.7989 14.3077 22.5205C14.3098 22.2421 14.2249 21.9721 14.053 21.7105C13.8811 21.4489 13.6283 21.2056 13.2946 20.9805C12.9688 20.7608 12.6482 20.6159 12.3327 20.5459C12.0173 20.4759 11.724 20.4894 11.453 20.5865C11.1819 20.6835 10.9511 20.8733 10.7605 21.1559C10.5619 21.4503 10.471 21.746 10.4878 22.0429C10.5059 22.3378 10.6074 22.619 10.7925 22.8866C10.9788 23.1522 11.2251 23.3883 11.5313 23.5948C11.8453 23.8067 12.1561 23.9449 12.4637 24.0096C12.7707 24.071 13.0584 24.0509 13.3268 23.9493C13.5946 23.8444 13.8265 23.6467 14.0224 23.3562Z" fill="#676464"/>
<path d="M17.8348 19.8393L13.7813 16.1895L14.3421 15.5667L18.3956 19.2165L17.8348 19.8393ZM13.3908 15.2646C13.2815 15.3859 13.1459 15.4534 12.984 15.4669C12.8237 15.4787 12.6855 15.4323 12.5694 15.3277C12.4533 15.2232 12.3927 15.0906 12.3876 14.9299C12.3841 14.7675 12.437 14.6256 12.5464 14.5042C12.6557 14.3828 12.7905 14.3162 12.9508 14.3045C13.1127 14.2909 13.2517 14.3365 13.3678 14.441C13.4839 14.5456 13.5437 14.679 13.5472 14.8415C13.5523 15.0021 13.5001 15.1432 13.3908 15.2646Z" fill="#676464"/>
<path d="M19.2957 10.9799L19.7522 11.524L17.5868 13.3409L17.1303 12.7969L19.2957 10.9799ZM16.9214 11.2662L17.5634 10.7275L20.9052 14.7101C21.0574 14.8914 21.1978 15.0054 21.3265 15.0519C21.4554 15.0951 21.5746 15.0972 21.6839 15.058C21.7935 15.0155 21.8954 14.9547 21.9897 14.8755C22.0604 14.8162 22.1154 14.7639 22.1547 14.7186C22.1924 14.6715 22.2226 14.6338 22.2452 14.6055L22.8597 15.0726C22.8299 15.1255 22.7828 15.1928 22.7185 15.2746C22.6558 15.3581 22.5645 15.4501 22.4449 15.5506C22.2635 15.7027 22.0531 15.8129 21.8135 15.881C21.5758 15.9476 21.3328 15.949 21.0847 15.8853C20.8383 15.82 20.6132 15.6659 20.4093 15.4229L16.9214 11.2662Z" fill="#676464"/>
<path d="M23.2515 10.7834L24.9903 13.566L24.2796 14.0101L20.4256 7.84252L21.1363 7.39842L22.5515 9.66309L22.6117 9.62545C22.5708 9.31879 22.6149 9.02745 22.7439 8.75142C22.8737 8.47213 23.1202 8.21895 23.4836 7.99187C23.7988 7.79491 24.1144 7.68565 24.4304 7.6641C24.7451 7.64054 25.0486 7.71749 25.3409 7.89493C25.634 8.06912 25.9047 8.35497 26.1531 8.75249L27.9898 11.6918L27.2791 12.1359L25.4725 9.24479C25.2429 8.87738 24.9701 8.65288 24.6539 8.57129C24.3384 8.48644 24.0131 8.54877 23.6778 8.75828C23.4449 8.90381 23.2668 9.08347 23.1436 9.29727C23.0224 9.50981 22.9675 9.74368 22.979 9.9989C22.9926 10.2529 23.0834 10.5144 23.2515 10.7834Z" fill="#676464"/>
<path d="M31.1576 7.76341L29.8461 4.81775L30.6117 4.47687L32.8303 9.45985L32.0646 9.80072L31.6891 8.95725L31.6372 8.98036C31.6331 9.2854 31.5472 9.58148 31.3796 9.86859C31.2111 10.1535 30.9386 10.3798 30.5623 10.5473C30.2509 10.686 29.9437 10.7411 29.6408 10.7127C29.337 10.6822 29.0542 10.5593 28.7925 10.3441C28.5299 10.1267 28.3042 9.80607 28.1155 9.38217L26.7058 6.2159L27.4714 5.87503L28.858 8.98939C29.0198 9.35273 29.2504 9.59728 29.55 9.72304C29.8518 9.84784 30.1616 9.83946 30.4795 9.69792C30.6699 9.61318 30.8418 9.47834 30.9952 9.29339C31.1509 9.10747 31.251 8.8841 31.2955 8.62326C31.3422 8.36146 31.2962 8.07485 31.1576 7.76341Z" fill="#676464"/>
<path d="M34.0623 9.02598L32.0576 2.03498L32.8632 1.80398L33.6032 4.38464L33.6715 4.36506C33.7046 4.25707 33.7532 4.11751 33.8174 3.9464C33.8833 3.77236 33.9992 3.6012 34.1652 3.43292C34.3329 3.26171 34.5874 3.12716 34.9287 3.02928C35.3702 2.90269 35.791 2.90147 36.1911 3.02564C36.5912 3.14981 36.9438 3.38735 37.2488 3.73826C37.5538 4.08918 37.7853 4.54 37.9432 5.09072C38.1025 5.64599 38.146 6.15439 38.074 6.6159C38.0012 7.07514 37.8296 7.46423 37.559 7.78318C37.2878 8.09985 36.9337 8.32083 36.4967 8.44612C36.1599 8.54269 35.8743 8.56427 35.6398 8.51083C35.4046 8.45513 35.2118 8.37125 35.0615 8.2592C34.9105 8.14488 34.7917 8.04841 34.7051 7.96979L34.6096 7.9972L34.8406 8.8028L34.0623 9.02598ZM34.1025 6.17727C34.216 6.57324 34.3742 6.90592 34.5771 7.17531C34.7793 7.44243 35.0163 7.62935 35.2883 7.73608C35.5596 7.84053 35.8568 7.84642 36.18 7.75376C36.5168 7.65719 36.7724 7.48784 36.9468 7.24573C37.1228 7.0007 37.2243 6.71053 37.2513 6.37523C37.2799 6.03701 37.2407 5.68129 37.1337 5.30807C37.028 4.9394 36.8758 4.62346 36.6772 4.36025C36.4802 4.0941 36.2432 3.90718 35.966 3.79948C35.6904 3.68886 35.382 3.68248 35.0406 3.78037C34.7129 3.87433 34.4614 4.03636 34.286 4.26643C34.11 4.49423 34.0075 4.77237 33.9785 5.10084C33.9489 5.42703 33.9902 5.78584 34.1025 6.17727Z" fill="#676464"/>
</svg>
