<svg width="112" height="114" viewBox="0 0 112 114" fill="none" xmlns="http://www.w3.org/2000/svg">
<path d="M59.7006 17.6648C59.4142 17.6648 59.1526 17.5949 58.9158 17.4553C58.6791 17.3132 58.4897 17.1238 58.3476 16.8871C58.208 16.6503 58.1381 16.3887 58.1381 16.1023C58.1381 15.8134 58.208 15.5518 58.3476 15.3175C58.4897 15.0807 58.6791 14.8925 58.9158 14.7528C59.1526 14.6108 59.4142 14.5398 59.7006 14.5398C59.9895 14.5398 60.2511 14.6108 60.4854 14.7528C60.7222 14.8925 60.9104 15.0807 61.0501 15.3175C61.1921 15.5518 61.2631 15.8134 61.2631 16.1023C61.2631 16.3887 61.1921 16.6503 61.0501 16.8871C60.9104 17.1238 60.7222 17.3132 60.4854 17.4553C60.2511 17.5949 59.9895 17.6648 59.7006 17.6648Z" fill="#676464"/>
<path d="M65.269 20.7527L66.7101 15.492L67.5184 15.7134L66.0773 20.9742L65.269 20.7527ZM67.3613 14.7278C67.2037 14.6846 67.0826 14.5938 66.9978 14.4552C66.9153 14.3172 66.8947 14.1729 66.936 14.0222C66.9773 13.8715 67.0685 13.7578 67.2098 13.6811C67.3534 13.6051 67.5039 13.5886 67.6615 13.6318C67.819 13.675 67.9391 13.7655 68.0215 13.9035C68.1063 14.0421 68.1281 14.1867 68.0868 14.3374C68.0455 14.4881 67.9531 14.6015 67.8095 14.6775C67.6682 14.7542 67.5188 14.7709 67.3613 14.7278Z" fill="#676464"/>
<path d="M70.4469 18.962L69.1659 21.9829L68.3943 21.6558L70.5237 16.634L71.2691 16.9501L70.9364 17.7348L71.0018 17.7625C71.2276 17.5574 71.4932 17.4283 71.7986 17.3752C72.1049 17.3199 72.4477 17.3727 72.8269 17.5335C73.1669 17.6777 73.4349 17.8736 73.6307 18.1212C73.8275 18.3667 73.9371 18.66 73.9596 19.0013C73.983 19.3403 73.9041 19.7234 73.7229 20.1506L72.3699 23.3415L71.5983 23.0144L72.9292 19.8758C73.0965 19.4813 73.1243 19.1305 73.0128 18.8235C72.9022 18.5143 72.6682 18.2839 72.3107 18.1324C72.0644 18.0279 71.8216 17.988 71.5824 18.0125C71.3453 18.038 71.1277 18.1296 70.9297 18.2873C70.7317 18.4451 70.5707 18.67 70.4469 18.962Z" fill="#676464"/>
<path d="M78.7223 22.1321L77.966 21.9317C77.9892 21.7996 77.9912 21.6591 77.9721 21.5102C77.9562 21.3605 77.901 21.2122 77.8063 21.0654C77.7117 20.9185 77.5595 20.783 77.3497 20.6587C77.0625 20.4886 76.7839 20.413 76.5141 20.432C76.2474 20.4502 76.0544 20.5601 75.9349 20.7617C75.8287 20.941 75.8101 21.1212 75.8789 21.3023C75.9477 21.4834 76.1002 21.6906 76.3362 21.9239L76.9315 22.5076C77.2907 22.858 77.5111 23.199 77.5926 23.5307C77.6752 23.8603 77.6195 24.1891 77.4252 24.5171C77.266 24.7859 77.0462 24.9804 76.7659 25.1006C76.4877 25.2219 76.1749 25.2623 75.8275 25.2216C75.4801 25.181 75.1241 25.0527 74.7595 24.8367C74.2808 24.5532 73.9462 24.2146 73.7555 23.8211C73.5649 23.4275 73.5461 23.0064 73.699 22.5577L74.4848 22.7919C74.4004 23.0831 74.4114 23.3456 74.5179 23.5792C74.6264 23.8141 74.8283 24.019 75.1237 24.1939C75.4598 24.393 75.7689 24.4798 76.0509 24.4542C76.3362 24.4278 76.5385 24.3138 76.658 24.1121C76.7545 23.9492 76.7783 23.7789 76.7294 23.6014C76.6817 23.4218 76.556 23.2345 76.3522 23.0396L75.6786 22.393C75.3092 22.0365 75.087 21.6917 75.012 21.3584C74.9402 21.0242 75.0003 20.6952 75.1921 20.3713C75.349 20.1065 75.5621 19.9163 75.8314 19.8007C76.1028 19.6863 76.4022 19.6476 76.7297 19.6847C77.0592 19.7231 77.3889 19.84 77.7189 20.0354C78.1833 20.3105 78.4876 20.6283 78.6318 20.9888C78.7779 21.3506 78.8081 21.7316 78.7223 22.1321Z" fill="#676464"/>
<path d="M83.572 24.2761L83.1318 24.8335L80.9134 23.0816L81.3536 22.5242L83.572 24.2761ZM82.8101 22.0092L83.4678 22.5286L80.2458 26.6087C80.0991 26.7945 80.016 26.9551 79.9965 27.0905C79.9803 27.2256 80.0025 27.3427 80.063 27.4417C80.1269 27.5404 80.2071 27.6279 80.3037 27.7042C80.3762 27.7614 80.4386 27.8047 80.4909 27.8339C80.5447 27.8613 80.5877 27.8832 80.62 27.8997L80.2872 28.5961C80.2294 28.5776 80.1539 28.5452 80.0608 28.4988C79.9663 28.4543 79.8577 28.3837 79.7351 28.2868C79.5493 28.1401 79.3987 27.9564 79.2835 27.7356C79.17 27.5163 79.1194 27.2787 79.1314 27.0228C79.1453 26.7683 79.2506 26.5166 79.4472 26.2677L82.8101 22.0092Z" fill="#676464"/>
<path d="M82.423 30.8756C82.1827 30.6271 82.0114 30.3564 81.9091 30.0634C81.8086 29.7687 81.7901 29.4754 81.8535 29.1834C81.9187 28.8899 82.0789 28.6196 82.3342 28.3728C82.5588 28.1555 82.7837 28.0237 83.0088 27.9772C83.2357 27.9291 83.4607 27.9404 83.6838 28.0111C83.907 28.0818 84.1246 28.1875 84.3365 28.3284C84.5518 28.4693 84.7594 28.6192 84.9594 28.7783C85.2204 28.9869 85.4302 29.1578 85.5887 29.2911C85.7505 29.4244 85.8839 29.5061 85.9889 29.5363C86.0955 29.5683 86.1973 29.5373 86.2943 29.4435L86.3148 29.4237C86.5666 29.1802 86.6957 28.922 86.7019 28.6492C86.7098 28.3781 86.5796 28.1038 86.3113 27.8264C86.0332 27.5389 85.7521 27.3743 85.4682 27.3327C85.1843 27.2911 84.9388 27.3063 84.7316 27.3781L84.3828 26.6088C84.7198 26.4805 85.037 26.4373 85.3343 26.4791C85.635 26.5209 85.9096 26.6176 86.1582 26.7691C86.4102 26.9207 86.6316 27.0951 86.8225 27.2925C86.9443 27.4185 87.0689 27.5779 87.1963 27.7709C87.327 27.964 87.4204 28.1815 87.4767 28.4235C87.5345 28.6673 87.5201 28.9299 87.4334 29.2114C87.3466 29.4929 87.1475 29.7842 86.8361 30.0854L84.2528 32.5838L83.6702 31.9813L84.2012 31.4678L84.1715 31.4372C84.047 31.4787 83.8901 31.4986 83.7009 31.4972C83.5118 31.4957 83.3066 31.4487 83.0855 31.3563C82.8643 31.2638 82.6435 31.1036 82.423 30.8756ZM83.053 30.4441C83.2834 30.6824 83.5244 30.8379 83.776 30.9107C84.0293 30.9853 84.2702 30.9927 84.4989 30.9329C84.7293 30.8748 84.9261 30.7667 85.0895 30.6087L85.6409 30.0755C85.5855 30.0796 85.5032 30.0506 85.3937 29.9885C85.2876 29.9264 85.1708 29.8483 85.0435 29.7541C84.9195 29.6599 84.7997 29.5667 84.684 29.4743C84.5717 29.3821 84.48 29.3077 84.409 29.2513C84.2372 29.1144 84.0624 29.0002 83.8848 28.9085C83.7106 28.8168 83.538 28.7729 83.3672 28.7768C83.1997 28.7807 83.0393 28.8567 82.8862 29.0048C82.6769 29.2072 82.5935 29.4377 82.6361 29.6963C82.682 29.9549 82.8209 30.2042 83.053 30.4441Z" fill="#676464"/>
<path d="M84.2282 36.1539C83.9881 35.828 83.8236 35.5169 83.7347 35.2207C83.6439 34.9259 83.6086 34.6505 83.6288 34.3945C83.6485 34.1418 83.7008 33.9136 83.7859 33.7097L84.5593 33.9692C84.5242 34.0891 84.4896 34.2337 84.4555 34.4029C84.4195 34.5736 84.423 34.768 84.4661 34.9862C84.5088 35.2076 84.6277 35.4508 84.8229 35.7158C85.0841 36.0703 85.3854 36.2996 85.7269 36.4039C86.0683 36.5081 86.422 36.4254 86.788 36.1558L87.6799 35.4986L87.6378 35.4414C87.5213 35.4508 87.3702 35.4533 87.1846 35.4489C87.0023 35.445 86.803 35.3919 86.5865 35.2897C86.3734 35.188 86.1614 34.9942 85.9508 34.7083C85.6896 34.3538 85.5389 33.9737 85.4988 33.568C85.4601 33.1643 85.5405 32.7625 85.7399 32.3627C85.9407 31.9647 86.2699 31.5972 86.7273 31.2602C87.1771 30.9288 87.627 30.7193 88.0771 30.6317C88.5291 30.5428 88.9506 30.5719 89.3414 30.7192C89.7341 30.8651 90.0666 31.1229 90.3391 31.4926C90.5497 31.7785 90.6692 32.0404 90.6975 32.2784C90.7291 32.5168 90.7178 32.725 90.6638 32.9031C90.613 33.0816 90.5678 33.2238 90.528 33.3295L90.5786 33.3981L91.2762 32.8841L91.7564 33.536L87.2393 36.8642C86.862 37.1422 86.4919 37.2826 86.1292 37.2852C85.766 37.2911 85.4231 37.1909 85.1005 36.9845C84.7774 36.7815 84.4866 36.5046 84.2282 36.1539ZM86.6243 34.3532C86.8237 34.6238 87.0542 34.8069 87.3157 34.9024C87.5772 34.9979 87.86 35.0086 88.1642 34.9345C88.4683 34.8604 88.7824 34.7039 89.1064 34.4652C89.4228 34.2321 89.6669 33.9787 89.8387 33.7051C90.0106 33.4314 90.0963 33.1506 90.0959 32.8628C90.0955 32.5749 89.9942 32.2937 89.792 32.0192C89.5813 31.7333 89.3334 31.5485 89.0481 31.4646C88.7642 31.3826 88.4652 31.3839 88.151 31.4683C87.8382 31.5547 87.5332 31.7074 87.2359 31.9265C86.9309 32.1512 86.6963 32.3975 86.5321 32.6656C86.3712 32.9341 86.2936 33.2118 86.2992 33.4988C86.3081 33.7863 86.4165 34.0711 86.6243 34.3532Z" fill="#676464"/>
<path d="M88.0048 37.9545L92.7882 35.3332L93.1773 36.0432L92.4548 36.4391L92.4821 36.489C92.7665 36.4465 93.0451 36.499 93.3176 36.6466C93.5902 36.7942 93.8049 37.0112 93.962 37.2977C93.9915 37.3517 94.0275 37.4198 94.0698 37.5019C94.1121 37.584 94.1425 37.6469 94.1611 37.6907L93.4137 38.1003C93.4063 38.072 93.3843 38.0098 93.3479 37.9137C93.3146 37.8185 93.2713 37.7221 93.2178 37.6246C93.0904 37.392 92.9278 37.2112 92.7301 37.0819C92.5356 36.9537 92.3242 36.8832 92.096 36.8706C91.8709 36.859 91.6504 36.9123 91.4345 37.0306L88.4076 38.6895L88.0048 37.9545Z" fill="#676464"/>
<path d="M90.1912 42.4863C90.067 42.1638 90.015 41.8477 90.0353 41.538C90.0577 41.2274 90.1552 40.9502 90.3276 40.7062C90.5022 40.4613 90.7552 40.2751 91.0866 40.1475C91.3782 40.0352 91.6367 40.0016 91.8621 40.0467C92.0897 40.0909 92.2925 40.1892 92.4703 40.3414C92.6482 40.4936 92.8072 40.6759 92.9474 40.8883C93.0906 41.102 93.2232 41.3212 93.3451 41.5456C93.504 41.8396 93.6304 42.0789 93.7243 42.2634C93.8213 42.4493 93.9122 42.5767 93.9971 42.6455C94.0828 42.7165 94.1886 42.7277 94.3145 42.6792L94.341 42.669C94.668 42.5431 94.8876 42.3558 94.9998 42.1071C95.1129 41.8605 95.1001 41.5572 94.9614 41.1971C94.8176 40.8238 94.6231 40.5625 94.378 40.4134C94.1328 40.2643 93.9008 40.1824 93.6821 40.1677L93.6613 39.3233C94.0216 39.3367 94.3305 39.4207 94.5879 39.5753C94.8484 39.7312 95.0635 39.9274 95.2332 40.1639C95.406 40.4018 95.5418 40.6489 95.6405 40.9052C95.7034 41.0686 95.7559 41.2641 95.7978 41.4915C95.8428 41.7202 95.8439 41.957 95.8012 42.2018C95.7593 42.4488 95.6435 42.6849 95.4537 42.9102C95.264 43.1355 94.967 43.326 94.5627 43.4817L91.2091 44.7734L90.9079 43.9913L91.5971 43.7258L91.5818 43.686C91.4509 43.6756 91.2987 43.6327 91.1251 43.5575C90.9516 43.4823 90.781 43.359 90.6135 43.1875C90.446 43.0161 90.3053 42.7824 90.1912 42.4863ZM90.9397 42.3351C91.0589 42.6444 91.22 42.8817 91.4232 43.0469C91.6272 43.2144 91.8462 43.3153 92.0801 43.3495C92.3149 43.386 92.5383 43.3633 92.7504 43.2817L93.4661 43.006C93.4136 42.9882 93.3491 42.9293 93.2726 42.8294C93.1991 42.7308 93.1221 42.6133 93.0417 42.4769C92.9643 42.3418 92.8903 42.2092 92.8199 42.079C92.7525 41.9502 92.6972 41.8459 92.6538 41.7662C92.549 41.5732 92.4328 41.3998 92.305 41.246C92.1804 41.0936 92.0387 40.9858 91.8799 40.9227C91.7241 40.8609 91.5469 40.8683 91.348 40.9449C91.0763 41.0495 90.9096 41.2292 90.8478 41.4838C90.7891 41.7398 90.8198 42.0236 90.9397 42.3351Z" fill="#676464"/>
<path d="M91.3389 45.9803L96.6449 44.7158L96.8326 45.5034L96.0035 45.701L96.02 45.7701C96.3296 45.8131 96.5921 45.9392 96.8074 46.1483C97.025 46.3568 97.175 46.6338 97.2573 46.9793C97.3407 47.3293 97.3307 47.6396 97.2272 47.91C97.1266 48.1822 96.9503 48.4177 96.6983 48.6165L96.7115 48.6718C97.0179 48.7423 97.2841 48.8943 97.5101 49.1276C97.7384 49.3604 97.8978 49.6668 97.9883 50.0468C98.1014 50.5212 98.0453 50.9446 97.8202 51.3171C97.5973 51.689 97.1738 51.9494 96.5497 52.0981L92.9986 52.9444L92.8043 52.1291L96.3554 51.2828C96.7469 51.1895 97.0012 51.0158 97.1183 50.7615C97.2353 50.5073 97.2593 50.2351 97.1902 49.9449C97.1012 49.5719 96.9195 49.3097 96.645 49.1586C96.3728 49.0068 96.0651 48.9719 95.7219 49.0536L92.2675 49.8769L92.07 49.0478L95.704 48.1818C96.0057 48.1099 96.2253 47.9541 96.3629 47.7144C96.5028 47.4742 96.536 47.1998 96.4624 46.8912C96.4119 46.6794 96.3083 46.4948 96.1516 46.3374C95.9954 46.1824 95.8036 46.0723 95.5764 46.0072C95.352 45.9439 95.1097 45.9432 94.8495 46.0052L91.5332 46.7955L91.3389 45.9803Z" fill="#676464"/>
<path d="M94.425 58.4075C94.4346 58.1212 94.5131 57.8621 94.6606 57.6301C94.8105 57.3983 95.0061 57.2153 95.2475 57.0813C95.4888 56.9496 95.7526 56.8885 96.0388 56.8981C96.3275 56.9077 96.5866 56.9863 96.8162 57.1337C97.0481 57.2836 97.2299 57.4792 97.3615 57.7204C97.4956 57.9618 97.5578 58.2256 97.5483 58.5119C97.5386 58.8006 97.4589 59.0597 97.3091 59.2892C97.1616 59.5211 96.9672 59.7029 96.7259 59.8346C96.4869 59.9688 96.2231 60.031 95.9344 60.0213C95.6481 60.0118 95.389 59.9321 95.1572 59.7822C94.9252 59.6347 94.7422 59.4402 94.6082 59.1989C94.4764 58.96 94.4154 58.6962 94.425 58.4075Z" fill="#676464"/>
<path d="M91.5698 67.4907L96.7794 69.1068L96.5311 69.9072L91.3215 68.2912L91.5698 67.4907ZM97.5215 69.7831C97.5698 69.6271 97.6647 69.509 97.8061 69.4289C97.9467 69.3511 98.0916 69.3353 98.2409 69.3816C98.3901 69.4279 98.5007 69.523 98.5726 69.6667C98.6438 69.8127 98.6552 69.9638 98.6068 70.1198C98.5584 70.2758 98.4639 70.3927 98.3232 70.4706C98.1819 70.5506 98.0366 70.5675 97.8874 70.5213C97.7381 70.475 97.6279 70.3788 97.5567 70.2328C97.4848 70.089 97.4731 69.9391 97.5215 69.7831Z" fill="#676464"/>
<path d="M93.1866 72.7255L90.2102 71.3443L90.563 70.5841L95.5108 72.8801L95.1699 73.6146L94.3968 73.2558L94.367 73.3202C94.5644 73.5528 94.6845 73.8226 94.7274 74.1295C94.7724 74.4375 94.7082 74.7783 94.5348 75.152C94.3793 75.487 94.1746 75.7482 93.9206 75.9357C93.6687 76.1242 93.3718 76.2239 93.03 76.235C92.6904 76.247 92.3101 76.1553 91.8892 75.96L88.7453 74.5011L89.0981 73.7409L92.1904 75.1759C92.5791 75.3563 92.9288 75.3959 93.2393 75.2946C93.552 75.1944 93.7901 74.9682 93.9535 74.616C94.0662 74.3734 94.1142 74.1321 94.0977 73.8921C94.0801 73.6543 93.9958 73.4338 93.8448 73.2306C93.6938 73.0274 93.4744 72.8591 93.1866 72.7255Z" fill="#676464"/>
<path d="M89.7418 80.8902L89.9673 80.141C90.0985 80.1686 90.2388 80.1753 90.3883 80.1612C90.5385 80.1503 90.6885 80.1001 90.8385 80.0104C90.9884 79.9208 91.129 79.7732 91.2602 79.5676C91.4398 79.2863 91.5246 79.0104 91.5146 78.74C91.5054 78.4729 91.402 78.2763 91.2045 78.1502C91.0288 78.0381 90.8494 78.0134 90.6661 78.0761C90.4828 78.1389 90.2706 78.2843 90.0295 78.5124L89.4262 79.0878C89.064 79.4352 88.7158 79.6441 88.3817 79.7144C88.0495 79.786 87.7227 79.7193 87.4014 79.5142C87.138 79.346 86.951 79.1199 86.8403 78.8357C86.7283 78.5536 86.6984 78.2396 86.7506 77.8938C86.8029 77.548 86.943 77.1964 87.171 76.8393C87.4704 76.3703 87.8199 76.0472 88.2197 75.8698C88.6194 75.6924 89.0409 75.6877 89.4842 75.8555L89.2238 76.633C88.9356 76.5389 88.673 76.5412 88.4359 76.6398C88.1975 76.7404 87.986 76.9354 87.8013 77.2247C87.5911 77.554 87.4941 77.86 87.5102 78.1427C87.527 78.4287 87.6342 78.6348 87.8318 78.7609C87.9914 78.8628 88.1608 78.8923 88.3399 78.8493C88.5209 78.8076 88.7123 78.6882 88.914 78.4912L89.5827 77.8395C89.9513 77.4822 90.3034 77.2716 90.639 77.2078C90.9754 77.1473 91.3022 77.2183 91.6195 77.4208C91.8789 77.5864 92.0619 77.8058 92.1684 78.0788C92.2737 78.3539 92.3023 78.6544 92.2543 78.9805C92.205 79.3085 92.0771 79.6342 91.8708 79.9574C91.5803 80.4124 91.2525 80.7059 90.8874 80.8379C90.521 80.9719 90.1391 80.9894 89.7418 80.8902Z" fill="#676464"/>
<path d="M87.4371 85.6658L86.8947 85.2073L88.7197 83.0486L89.2621 83.5072L87.4371 85.6658ZM89.7281 84.98L89.187 85.62L85.2169 82.2635C85.0361 82.1107 84.8784 82.0222 84.7437 81.9982C84.6092 81.9776 84.4915 81.9958 84.3904 82.053C84.2897 82.1135 84.1995 82.1908 84.1201 82.2848C84.0604 82.3553 84.0152 82.4162 83.9842 82.4675C83.955 82.5204 83.9317 82.5626 83.9142 82.5943L83.2292 82.2385C83.2496 82.1813 83.2845 82.107 83.334 82.0155C83.3816 81.9225 83.4559 81.8163 83.5568 81.697C83.7096 81.5162 83.8983 81.3719 84.1228 81.264C84.3457 81.158 84.5849 81.1153 84.8403 81.1359C85.0941 81.1583 85.3422 81.272 85.5844 81.4768L89.7281 84.98Z" fill="#676464"/>
<path d="M80.8794 84.2969C81.1358 84.065 81.4121 83.9029 81.7083 83.8105C82.0062 83.7198 82.3 83.7111 82.5896 83.7843C82.8809 83.8593 83.1456 84.0284 83.3838 84.2918C83.5934 84.5236 83.7177 84.7527 83.7566 84.9793C83.7971 85.2076 83.7783 85.4321 83.7002 85.6528C83.6221 85.8734 83.5091 86.0873 83.3613 86.2945C83.2132 86.5049 83.0564 86.7074 82.8908 86.9019C82.6736 87.1559 82.4957 87.3598 82.3573 87.5138C82.2186 87.6711 82.1325 87.8017 82.0987 87.9056C82.0633 88.0111 82.0908 88.1139 82.1813 88.2139L82.2004 88.235C82.4354 88.4949 82.6891 88.6325 82.9616 88.6478C83.2323 88.6647 83.5107 88.5438 83.7969 88.2849C84.0936 88.0166 84.2675 87.7412 84.3186 87.4588C84.3696 87.1764 84.3627 86.9305 84.2978 86.7211L85.0783 86.3982C85.1952 86.7393 85.2279 87.0577 85.1762 87.3535C85.1243 87.6526 85.0185 87.9238 84.8588 88.1673C84.6989 88.414 84.5171 88.6295 84.3134 88.8137C84.1835 88.9312 84.02 89.0504 83.8228 89.1712C83.6255 89.2954 83.405 89.3816 83.1612 89.4297C82.9157 89.4794 82.6537 89.4562 82.3752 89.3601C82.0968 89.264 81.8123 89.0553 81.5217 88.734L79.111 86.0686L79.7326 85.5065L80.228 86.0543L80.2597 86.0257C80.2224 85.8998 80.2077 85.7424 80.2155 85.5533C80.2233 85.3643 80.2771 85.1609 80.3768 84.9429C80.4766 84.725 80.6441 84.5097 80.8794 84.2969ZM81.2896 84.941C81.0438 85.1633 80.8803 85.399 80.799 85.648C80.7161 85.8986 80.7006 86.1392 80.7528 86.3698C80.8031 86.6019 80.9045 86.8023 81.057 86.9708L81.5715 87.5397C81.5693 87.4843 81.601 87.4029 81.6667 87.2956C81.7323 87.1916 81.8143 87.0775 81.9127 86.9534C82.0109 86.8326 82.1081 86.716 82.2043 86.6035C82.3003 86.4943 82.3777 86.4052 82.4365 86.3361C82.5789 86.1689 82.699 85.9981 82.7966 85.8236C82.894 85.6525 82.9436 85.4815 82.9455 85.3107C82.9472 85.1431 82.8766 84.9804 82.7337 84.8223C82.5383 84.6064 82.3107 84.5153 82.0509 84.5492C81.7909 84.5865 81.5372 84.7171 81.2896 84.941Z" fill="#676464"/>
<path d="M75.5438 85.925C75.8776 85.6959 76.194 85.5419 76.493 85.463C76.7907 85.3821 77.0671 85.356 77.3223 85.3848C77.5742 85.4129 77.8006 85.4728 78.0014 85.5647L77.7163 86.3289C77.5976 86.2898 77.4542 86.2504 77.2862 86.2107C77.1169 86.169 76.9225 86.166 76.703 86.2018C76.4802 86.2371 76.2332 86.3478 75.9619 86.534C75.5988 86.7832 75.3595 87.0767 75.2439 87.4145C75.1284 87.7523 75.1992 88.1085 75.4564 88.4833L76.0835 89.3967L76.142 89.3565C76.1365 89.2397 76.1391 89.0887 76.1497 88.9033C76.1597 88.7213 76.2194 88.5238 76.3288 88.3109C76.4376 88.1012 76.6383 87.8959 76.9311 87.695C77.2941 87.4458 77.679 87.3079 78.0858 87.2813C78.4906 87.2561 78.8895 87.3499 79.2825 87.5626C79.6735 87.7766 80.0297 88.1178 80.3513 88.5862C80.6675 89.0469 80.8618 89.5036 80.9343 89.9563C81.0081 90.4111 80.9649 90.8313 80.8047 91.2169C80.6458 91.6045 80.377 91.9283 79.9983 92.1882C79.7056 92.3892 79.4398 92.4999 79.2011 92.5202C78.9617 92.5438 78.7539 92.5256 78.5778 92.4656C78.401 92.4089 78.2605 92.3589 78.1562 92.3157L78.0859 92.3639L78.5763 93.0783L77.9088 93.5365L74.7333 88.9107C74.4681 88.5243 74.3402 88.1498 74.3497 87.7871C74.3559 87.4239 74.4675 87.0846 74.6846 86.769C74.8983 86.4529 75.1847 86.1716 75.5438 85.925ZM77.2635 88.3799C76.9863 88.5702 76.7957 88.7944 76.6915 89.0526C76.5873 89.3108 76.5672 89.5931 76.6311 89.8995C76.695 90.206 76.8408 90.5251 77.0686 90.8569C77.291 91.1809 77.5361 91.4334 77.8038 91.6142C78.0716 91.7951 78.3493 91.8902 78.6371 91.8994C78.9248 91.9086 79.2092 91.8168 79.4903 91.6238C79.7831 91.4229 79.9761 91.1812 80.0695 90.8989C80.1609 90.6179 80.1696 90.319 80.0957 90.0022C80.0199 89.6867 79.8774 89.3767 79.6684 89.0723C79.454 88.76 79.2157 88.5173 78.9533 88.3442C78.6903 88.1744 78.4152 88.0875 78.1282 88.0835C77.8406 88.0829 77.5524 88.1817 77.2635 88.3799Z" fill="#676464"/>
<path d="M73.6181 89.6392L76.0781 94.5075L75.3555 94.8727L74.9839 94.1374L74.9332 94.163C74.9662 94.4487 74.9044 94.7253 74.7478 94.9928C74.5911 95.2603 74.367 95.4677 74.0754 95.615C74.0205 95.6428 73.9513 95.6764 73.8678 95.7159C73.7844 95.7555 73.7204 95.7838 73.676 95.8009L73.2916 95.0403C73.3202 95.0338 73.3831 95.0139 73.4804 94.9807C73.5766 94.9506 73.6744 94.9105 73.7737 94.8603C74.0103 94.7408 74.1965 94.5843 74.3323 94.3911C74.467 94.201 74.5445 93.9921 74.5647 93.7644C74.5838 93.5398 74.5379 93.3177 74.4268 93.0979L72.8701 90.0172L73.6181 89.6392Z" fill="#676464"/>
<path d="M69.1721 91.9012C69.4986 91.7878 69.8163 91.7464 70.1251 91.777C70.4348 91.8098 70.7086 91.9165 70.9467 92.097C71.1856 92.2797 71.3633 92.5387 71.4797 92.8742C71.5823 93.1694 71.6072 93.4289 71.5546 93.6527C71.5027 93.8787 71.3978 94.078 71.2397 94.2507C71.0816 94.4234 70.8941 94.5762 70.6772 94.7092C70.4587 94.8452 70.2353 94.9704 70.0069 95.0848C69.7078 95.2337 69.4644 95.3521 69.2768 95.4398C69.0878 95.5305 68.9575 95.6171 68.8859 95.6996C68.8121 95.7828 68.7973 95.8882 68.8415 96.0157L68.8509 96.0425C68.9658 96.3735 69.1457 96.5993 69.3905 96.7197C69.6331 96.841 69.9367 96.8384 70.3012 96.7118C70.6792 96.5805 70.9467 96.3949 71.104 96.1548C71.2612 95.9148 71.3508 95.6857 71.3728 95.4675L72.2174 95.475C72.192 95.8347 72.0977 96.1406 71.9346 96.3927C71.7701 96.6478 71.5668 96.8562 71.3247 97.018C71.0812 97.1827 70.8297 97.3101 70.5703 97.4002C70.4048 97.4577 70.2077 97.5036 69.9791 97.5379C69.7489 97.5752 69.5123 97.5684 69.269 97.5175C69.0236 97.4674 68.7914 97.3438 68.5726 97.1466C68.3538 96.9494 68.1733 96.6462 68.0312 96.2369L66.8524 92.842L67.6441 92.5671L67.8863 93.2649L67.9266 93.2509C67.9414 93.1204 67.9894 92.9697 68.0703 92.7988C68.1513 92.6278 68.2803 92.4615 68.4572 92.2998C68.6341 92.1381 68.8724 92.0053 69.1721 91.9012ZM69.2983 92.6543C68.9852 92.763 68.7426 92.9162 68.5706 93.1137C68.3964 93.3121 68.2883 93.5275 68.2463 93.7602C68.202 93.9936 68.2172 94.2176 68.2917 94.4323L68.5433 95.1569C68.5629 95.105 68.6239 95.0425 68.7263 94.9693C68.8272 94.8992 68.9472 94.8262 69.0863 94.7503C69.2239 94.6775 69.3589 94.6081 69.4914 94.542C69.6224 94.479 69.7284 94.4271 69.8095 94.3864C70.0059 94.2882 70.1831 94.1778 70.3411 94.0552C70.4976 93.9358 70.61 93.7977 70.6785 93.6411C70.7454 93.4876 70.744 93.3101 70.6741 93.1089C70.5786 92.8338 70.4046 92.6611 70.1521 92.5909C69.8982 92.5237 69.6136 92.5448 69.2983 92.6543Z" fill="#676464"/>
<path d="M65.4851 93.7365L66.5716 99.0817L65.7782 99.243L65.6084 98.4078L65.5388 98.422C65.4854 98.73 65.3507 98.9881 65.1345 99.1963C64.9188 99.4068 64.637 99.5475 64.289 99.6182C63.9363 99.6899 63.6266 99.6695 63.3597 99.557C63.091 99.4474 62.8615 99.2633 62.6713 99.0048L62.6156 99.0161C62.5349 99.32 62.3741 99.581 62.1334 99.799C61.8931 100.019 61.5815 100.168 61.1987 100.246C60.7208 100.343 60.2995 100.273 59.9347 100.036C59.5705 99.8006 59.3244 99.3686 59.1966 98.7399L58.4695 95.1625L59.2908 94.9956L60.0179 98.573C60.0981 98.9674 60.2633 99.2273 60.5134 99.3528C60.7636 99.4783 61.0349 99.5114 61.3272 99.452C61.703 99.3756 61.9711 99.2027 62.1313 98.9334C62.2921 98.6664 62.3373 98.36 62.2671 98.0144L61.5597 94.5344L62.3949 94.3646L63.139 98.0255C63.2008 98.3295 63.3492 98.5542 63.5841 98.6997C63.8195 98.8475 64.0926 98.8899 64.4035 98.8267C64.6169 98.7833 64.8049 98.6859 64.9674 98.5345C65.1276 98.3836 65.244 98.1956 65.3166 97.9707C65.3874 97.7485 65.3962 97.5064 65.3429 97.2442L64.6639 93.9034L65.4851 93.7365Z" fill="#676464"/>
<path d="M52.9625 95.372C53.2483 95.3911 53.5047 95.4782 53.7316 95.6334C53.9583 95.791 54.1346 95.9926 54.2605 96.2383C54.3841 96.4838 54.4363 96.7495 54.4171 97.0353C54.3979 97.3235 54.3107 97.5799 54.1557 97.8044C53.9981 98.0311 53.7966 98.2062 53.5511 98.3298C53.3054 98.4557 53.0396 98.5091 52.7538 98.49C52.4656 98.4707 52.2093 98.3823 51.985 98.225C51.7581 98.0698 51.5829 97.8694 51.4593 97.6239C51.3332 97.3805 51.2798 97.1148 51.2991 96.8266C51.3183 96.5408 51.4066 96.2845 51.5641 96.0578C51.7193 95.8309 51.9198 95.6545 52.1655 95.5286C52.4086 95.4049 52.6743 95.3527 52.9625 95.372Z" fill="#676464"/>
<path d="M43.9794 92.2151L42.1901 97.3678L41.3984 97.0929L43.1877 91.9402L43.9794 92.2151ZM41.4894 98.0868C41.6437 98.1404 41.7585 98.2392 41.8338 98.3831C41.9069 98.5263 41.9178 98.6717 41.8666 98.8193C41.8153 98.9669 41.7167 99.0742 41.5706 99.1413C41.4222 99.2075 41.2709 99.2139 41.1166 99.1603C40.9623 99.1067 40.8486 99.0084 40.7755 98.8652C40.7002 98.7212 40.6882 98.5755 40.7394 98.4279C40.7907 98.2803 40.8905 98.1733 41.0388 98.107C41.1849 98.04 41.3351 98.0332 41.4894 98.0868Z" fill="#676464"/>
<path d="M38.6933 93.6558L40.1732 90.7273L40.9212 91.1052L38.4611 95.9735L37.7385 95.6084L38.1229 94.8477L38.0595 94.8157C37.8204 95.0052 37.5468 95.1163 37.2386 95.1488C36.9293 95.1835 36.5908 95.108 36.2231 94.9222C35.8935 94.7556 35.6393 94.5423 35.4604 94.2821C35.2804 94.0241 35.1907 93.7241 35.191 93.3821C35.1904 93.0422 35.2947 92.6652 35.504 92.2511L37.0671 89.1577L37.8151 89.5357L36.2776 92.5783C36.0843 92.9608 36.0331 93.3089 36.1238 93.6227C36.2136 93.9386 36.4317 94.1841 36.7782 94.3592C37.017 94.4798 37.2565 94.5359 37.4969 94.5274C37.7352 94.5178 37.9584 94.441 38.1665 94.2968C38.3746 94.1526 38.5502 93.939 38.6933 93.6558Z" fill="#676464"/>
<path d="M30.6487 89.9405L31.3899 90.1909C31.3579 90.3212 31.3465 90.4612 31.3556 90.6111C31.3615 90.7615 31.4067 90.9132 31.4913 91.066C31.5759 91.2188 31.7187 91.3643 31.9198 91.5023C32.195 91.6912 32.4679 91.7852 32.7384 91.7843C33.0057 91.784 33.2056 91.6872 33.3383 91.494C33.4562 91.3222 33.4868 91.1437 33.4303 90.9584C33.3737 90.7731 33.2354 90.5562 33.0155 90.3076L32.4606 89.6854C32.1255 89.3118 31.9284 88.9568 31.8693 88.6205C31.8088 88.2861 31.8864 87.9617 32.1021 87.6475C32.279 87.3899 32.5113 87.2105 32.7989 87.1093C33.0847 87.0068 33.3995 86.9874 33.7434 87.0512C34.0872 87.115 34.4339 87.2668 34.7832 87.5066C35.2419 87.8215 35.5532 88.1816 35.7171 88.587C35.881 88.9924 35.8717 89.4139 35.6891 89.8514L34.9208 89.5651C35.0245 89.2802 35.031 89.0177 34.9403 88.7774C34.8477 88.5358 34.6599 88.3179 34.3769 88.1236C34.0549 87.9025 33.7523 87.7953 33.4692 87.802C33.1828 87.8093 32.9733 87.9095 32.8406 88.1027C32.7334 88.2589 32.6983 88.4272 32.7353 88.6076C32.7709 88.79 32.8838 88.9852 33.074 89.1933L33.7029 89.8835C34.0478 90.2638 34.2465 90.6227 34.299 90.9603C34.3483 91.2985 34.2664 91.6228 34.0533 91.9331C33.8792 92.1869 33.6538 92.3624 33.3774 92.4598C33.099 92.5558 32.7976 92.5744 32.4734 92.5155C32.1472 92.4552 31.826 92.3166 31.5098 92.0995C31.0648 91.794 30.7824 91.4566 30.6626 91.0873C30.5409 90.7166 30.5363 90.3343 30.6487 89.9405Z" fill="#676464"/>
<path d="M25.9526 87.4775L26.429 86.9508L28.5255 88.8469L28.049 89.3737L25.9526 87.4775ZM26.5614 89.7902L25.9399 89.2281L29.4272 85.3723C29.586 85.1967 29.6796 85.042 29.7081 84.9082C29.7333 84.7745 29.7189 84.6562 29.6652 84.5533C29.6081 84.4506 29.5339 84.3579 29.4426 84.2754C29.3741 84.2134 29.3147 84.1661 29.2645 84.1334C29.2126 84.1025 29.1712 84.0778 29.1401 84.0592L29.5186 83.3865C29.5751 83.4089 29.6482 83.4463 29.738 83.4987C29.8294 83.5495 29.933 83.6272 30.0489 83.732C30.2245 83.8908 30.3624 84.0842 30.4626 84.3122C30.5612 84.5385 30.5959 84.779 30.5667 85.0336C30.5358 85.2865 30.414 85.5306 30.2012 85.7659L26.5614 89.7902Z" fill="#676464"/>
<path d="M27.54 80.9694C27.7632 81.2333 27.916 81.5149 27.9985 81.8141C28.0791 82.1148 28.078 82.4087 27.9952 82.6958C27.9105 82.9843 27.7326 83.2433 27.4614 83.4725C27.2228 83.6743 26.9896 83.7908 26.7619 83.8221C26.5324 83.855 26.3086 83.8287 26.0907 83.7433C25.8727 83.6578 25.6627 83.5377 25.4606 83.3831C25.2552 83.2281 25.0581 83.0646 24.8692 82.8926C24.6227 82.667 24.4248 82.4824 24.2756 82.3389C24.123 82.1951 23.9953 82.1046 23.8926 82.0674C23.7884 82.0285 23.6847 82.0525 23.5817 82.1397L23.56 82.158C23.2924 82.3842 23.1464 82.6332 23.122 82.905C23.096 83.175 23.2076 83.4573 23.4567 83.752C23.715 84.0575 23.9844 84.2405 24.265 84.3009C24.5455 84.3614 24.7915 84.3627 25.003 84.3048L25.2996 85.0957C24.9548 85.2012 24.6354 85.2232 24.3416 85.1616C24.0444 85.0997 23.7768 84.9849 23.5389 84.8172C23.2976 84.6491 23.0883 84.4603 22.911 84.2506C22.7979 84.1168 22.6842 83.9493 22.5701 83.7483C22.4525 83.5469 22.3738 83.3236 22.3339 83.0784C22.2924 82.8313 22.3243 82.5703 22.4297 82.2952C22.535 82.0201 22.7531 81.7427 23.084 81.463L25.8284 79.1428L26.3694 79.7828L25.8054 80.2596L25.8329 80.2922C25.96 80.2592 26.1178 80.2497 26.3065 80.2638C26.4951 80.2779 26.6967 80.3385 26.9111 80.4455C27.1256 80.5525 27.3352 80.7271 27.54 80.9694ZM26.8826 81.3578C26.6686 81.1047 26.4385 80.9334 26.1924 80.8439C25.9447 80.7526 25.7047 80.7291 25.4726 80.7735C25.2388 80.8161 25.0352 80.9108 24.8617 81.0575L24.2759 81.5527C24.3314 81.5523 24.4116 81.5868 24.5167 81.6561C24.6184 81.7251 24.7297 81.8108 24.8505 81.9133C24.9679 82.0155 25.0812 82.1166 25.1904 82.2164C25.2963 82.316 25.3828 82.3963 25.45 82.4574C25.6123 82.6054 25.779 82.7311 25.9501 82.8344C26.1178 82.9375 26.2871 82.9928 26.4578 83.0004C26.6252 83.0077 26.7902 82.9426 26.9529 82.805C27.1753 82.617 27.2739 82.3926 27.2487 82.1318C27.2201 81.8707 27.0981 81.6127 26.8826 81.3578Z" fill="#676464"/>
<path d="M26.0909 75.5823C26.3087 75.9236 26.4521 76.2449 26.5209 76.5464C26.5918 76.8466 26.6087 77.1238 26.5714 77.3779C26.5349 77.6287 26.4674 77.8529 26.3689 78.0506L25.6146 77.7401C25.6577 77.6227 25.7018 77.4808 25.7472 77.3142C25.7945 77.1464 25.804 76.9522 25.7755 76.7316C25.7478 76.5078 25.6454 76.2572 25.4683 75.9798C25.2313 75.6086 24.946 75.3596 24.6123 75.2328C24.2785 75.106 23.9201 75.1649 23.537 75.4095L22.6031 76.0057L22.6413 76.0655C22.7582 76.0639 22.9091 76.0715 23.094 76.0883C23.2756 76.1044 23.471 76.1707 23.6801 76.2871C23.886 76.4028 24.0845 76.6104 24.2756 76.9097C24.5125 77.2809 24.6375 77.6701 24.6504 78.0776C24.662 78.483 24.555 78.8785 24.3293 79.2642C24.1024 79.6478 23.7494 79.9925 23.2705 80.2982C22.7996 80.5988 22.3367 80.7778 21.8817 80.8351C21.4248 80.8937 21.0063 80.8364 20.6262 80.6634C20.2441 80.4916 19.9295 80.2122 19.6823 79.8251C19.4912 79.5257 19.3895 79.2564 19.3772 79.0171C19.3616 78.7771 19.3867 78.5701 19.4526 78.3961C19.5152 78.2213 19.5698 78.0825 19.6165 77.9797L19.5706 77.9078L18.8403 78.3741L18.4046 77.6916L23.1339 74.6725C23.529 74.4203 23.9076 74.305 24.2697 74.3266C24.6325 74.345 24.968 74.4679 25.2761 74.6953C25.5849 74.9195 25.8565 75.2152 26.0909 75.5823ZM23.5799 77.219C23.399 76.9356 23.1813 76.7376 22.9267 76.6248C22.6722 76.5121 22.3907 76.4825 22.0823 76.5362C21.7739 76.5898 21.45 76.7249 21.1108 76.9415C20.7796 77.1529 20.5191 77.3894 20.3293 77.651C20.1396 77.9125 20.0353 78.187 20.0165 78.4742C19.9976 78.7615 20.0799 79.0488 20.2634 79.3362C20.4545 79.6355 20.6895 79.8365 20.9686 79.9393C21.2463 80.04 21.5448 80.0587 21.8639 79.9954C22.1817 79.9302 22.4963 79.7982 22.8076 79.5994C23.1269 79.3956 23.3774 79.1655 23.5591 78.909C23.7376 78.6518 23.8337 78.3799 23.8472 78.0932C23.8575 77.8057 23.7684 77.5143 23.5799 77.219Z" fill="#676464"/>
<path d="M22.4431 73.533L17.4954 75.829L17.1546 75.0946L17.9019 74.7478L17.878 74.6963C17.5913 74.7197 17.3169 74.6486 17.0548 74.4832C16.7927 74.3177 16.5929 74.0868 16.4554 73.7904C16.4295 73.7346 16.3982 73.6643 16.3615 73.5796C16.3248 73.4948 16.2986 73.43 16.283 73.385L17.056 73.0263C17.0616 73.055 17.0793 73.1186 17.1093 73.2169C17.1361 73.3141 17.1729 73.4131 17.2198 73.5141C17.3314 73.7546 17.4815 73.9459 17.6701 74.088C17.8556 74.229 18.0618 74.3134 18.2887 74.3412C18.5125 74.3679 18.736 74.3294 18.9594 74.2258L22.0904 72.7728L22.4431 73.533Z" fill="#676464"/>
<path d="M20.8386 69.4425C20.941 69.7726 20.9717 70.0915 20.9308 70.3992C20.8877 70.7075 20.7719 70.9777 20.5836 71.2096C20.393 71.4422 20.1282 71.6111 19.789 71.7163C19.4905 71.8089 19.2304 71.8252 19.0085 71.7651C18.7843 71.7058 18.5886 71.5942 18.4213 71.4305C18.254 71.2667 18.1075 71.0742 17.9819 70.8529C17.8533 70.6301 17.7356 70.4026 17.6289 70.1705C17.49 69.8665 17.3799 69.6193 17.2985 69.4289C17.2141 69.237 17.132 69.1038 17.0519 69.0295C16.9711 68.953 16.8663 68.9347 16.7374 68.9746L16.7103 68.9831C16.3756 69.0869 16.144 69.2591 16.0154 69.4998C15.8861 69.7382 15.8786 70.0417 15.993 70.4102C16.1115 70.7924 16.2881 71.066 16.5228 71.2312C16.7574 71.3963 16.9834 71.4935 17.2007 71.5228L17.165 72.3667C16.8064 72.3293 16.5038 72.2248 16.2573 72.0534C16.0078 71.8804 15.8063 71.6703 15.6527 71.423C15.4962 71.1741 15.3773 70.9185 15.2959 70.6562C15.244 70.4889 15.2047 70.2904 15.1781 70.0607C15.1485 69.8294 15.1632 69.5931 15.2222 69.3517C15.2804 69.1081 15.4118 68.8802 15.6161 68.6681C15.8205 68.456 16.1296 68.2857 16.5434 68.1574L19.9758 67.0926L20.2241 67.8931L19.5186 68.1119L19.5312 68.1526C19.6611 68.1718 19.8102 68.2247 19.9783 68.3114C20.1465 68.398 20.3084 68.5324 20.4641 68.7147C20.6198 68.8969 20.7446 69.1395 20.8386 69.4425ZM20.0817 69.5434C19.9835 69.2269 19.8385 68.9794 19.6468 68.8009C19.4544 68.6201 19.2427 68.5049 19.0116 68.4551C18.7798 68.4031 18.5554 68.4107 18.3383 68.478L17.6057 68.7053C17.6569 68.7266 17.7174 68.7896 17.7871 68.8944C17.8538 68.9977 17.9227 69.12 17.9939 69.2616C18.0621 69.4015 18.127 69.5388 18.1886 69.6734C18.2472 69.8064 18.2955 69.9141 18.3334 69.9965C18.4251 70.1961 18.5295 70.3769 18.6467 70.5389C18.7609 70.6993 18.8951 70.8163 19.0493 70.8899C19.2005 70.9619 19.3779 70.9664 19.5814 70.9033C19.8595 70.817 20.0379 70.6489 20.1165 70.3989C20.1922 70.1474 20.1806 69.8623 20.0817 69.5434Z" fill="#676464"/>
<path d="M19.5864 66.3004L14.2078 67.2076L14.0731 66.4092L14.9135 66.2675L14.9017 66.1974C14.5957 66.1338 14.3422 65.9905 14.1414 65.7675C13.9381 65.5449 13.807 65.2585 13.7479 64.9083C13.6881 64.5535 13.7188 64.2446 13.8401 63.9816C13.9587 63.7168 14.1503 63.4936 14.415 63.3121L14.4056 63.256C14.1045 63.1652 13.8491 62.9958 13.6392 62.7479C13.427 62.5004 13.2884 62.184 13.2234 61.7988C13.1423 61.3179 13.2265 60.8992 13.4761 60.5426C13.7233 60.1864 14.1633 59.9549 14.7959 59.8482L18.3956 59.241L18.535 60.0674L14.9353 60.6746C14.5384 60.7415 14.2731 60.8979 14.1393 61.1438C14.0055 61.3896 13.9634 61.6596 14.013 61.9538C14.0768 62.3319 14.2406 62.6056 14.5045 62.7748C14.766 62.9444 15.0706 62.9998 15.4184 62.9411L18.9201 62.3505L19.0619 63.1909L15.3781 63.8123C15.0723 63.8638 14.8428 64.0046 14.6895 64.2345C14.5338 64.4648 14.4824 64.7364 14.5352 65.0492C14.5714 65.264 14.6625 65.4551 14.8084 65.6226C14.9539 65.7877 15.1378 65.9103 15.3602 65.9905C15.5799 66.0687 15.8216 66.0855 16.0854 66.041L19.447 65.474L19.5864 66.3004Z" fill="#676464"/>
<path d="M17.4041 52.6973C17.3755 52.9824 17.2798 53.2357 17.1171 53.4572C16.9521 53.6786 16.7447 53.8481 16.4949 53.9657C16.2454 54.081 15.9781 54.1243 15.6931 54.0956C15.4057 54.0667 15.1524 53.971 14.9332 53.8086C14.7119 53.6436 14.5435 53.4363 14.4283 53.1867C14.3106 52.937 14.2662 52.6696 14.2948 52.3845C14.3237 52.0972 14.4206 51.844 14.5854 51.625C14.7481 51.4034 14.9542 51.235 15.2037 51.1197C15.4511 51.0019 15.7185 50.9574 16.0059 50.9863C16.2909 51.015 16.5441 51.1118 16.7654 51.2768C16.987 51.4395 17.1566 51.6457 17.2742 51.8955C17.3897 52.1427 17.433 52.41 17.4041 52.6973Z" fill="#676464"/>
<path d="M20.859 43.8251L15.7689 41.8647L16.0701 41.0826L21.1602 43.043L20.859 43.8251ZM15.0737 41.1403C15.015 41.2927 14.9125 41.4042 14.7661 41.4747C14.6206 41.5429 14.4749 41.549 14.3291 41.4928C14.1833 41.4367 14.0793 41.3345 14.0172 41.1862C13.9559 41.0358 13.9546 40.8843 14.0133 40.7319C14.072 40.5794 14.1741 40.4691 14.3197 40.4008C14.466 40.3304 14.6121 40.3232 14.7579 40.3794C14.9037 40.4355 15.0073 40.5388 15.0686 40.6893C15.1307 40.8375 15.1324 40.9879 15.0737 41.1403Z" fill="#676464"/>
<path d="M19.596 38.4939L22.4735 40.0708L22.0707 40.8057L17.2873 38.1843L17.6764 37.4743L18.4238 37.8839L18.458 37.8216C18.2765 37.5764 18.1747 37.2992 18.1524 36.9901C18.1281 36.6798 18.2149 36.344 18.4129 35.9828C18.5903 35.6589 18.8121 35.4119 19.0781 35.2418C19.342 35.0706 19.6448 34.9909 19.9866 35.0027C20.3263 35.0134 20.6996 35.1302 21.1065 35.3532L24.1459 37.0189L23.7432 37.7538L20.7536 36.1155C20.3778 35.9095 20.0316 35.8467 19.715 35.9269C19.3963 36.006 19.1436 36.2158 18.957 36.5563C18.8284 36.7909 18.7644 37.0285 18.7649 37.269C18.7665 37.5075 18.8359 37.7331 18.973 37.9459C19.1101 38.1588 19.3178 38.3414 19.596 38.4939Z" fill="#676464"/>
<path d="M23.5778 30.5776L23.3028 31.31C23.1737 31.2737 23.0341 31.2576 22.8841 31.2618C22.7335 31.2626 22.5804 31.3027 22.4248 31.3821C22.2693 31.4616 22.1191 31.5995 21.9745 31.7958C21.7765 32.0645 21.6734 32.3341 21.6653 32.6045C21.6567 32.8717 21.7467 33.0748 21.9354 33.2138C22.1031 33.3374 22.2805 33.374 22.4676 33.3236C22.6547 33.2732 22.8761 33.1423 23.1319 32.9309L23.7723 32.397C24.1569 32.0746 24.5182 31.8895 24.8564 31.8416C25.1926 31.7923 25.5142 31.8808 25.821 32.1069C26.0726 32.2922 26.2442 32.5304 26.3357 32.8213C26.4285 33.1103 26.4374 33.4255 26.3622 33.7671C26.2869 34.1087 26.1236 34.45 25.8723 34.7912C25.5422 35.2391 25.1719 35.5382 24.7612 35.6884C24.3506 35.8387 23.9297 35.8153 23.4985 35.6182L23.8103 34.8598C24.0915 34.973 24.3538 34.9883 24.5969 34.9057C24.8415 34.8212 25.0656 34.6408 25.2692 34.3645C25.5009 34.05 25.6181 33.7512 25.621 33.468C25.6233 33.1815 25.5301 32.9687 25.3414 32.8297C25.1889 32.7174 25.0219 32.6766 24.8403 32.7075C24.6568 32.737 24.4579 32.8434 24.2436 33.0265L23.5328 33.632C23.1412 33.964 22.7758 34.1506 22.4366 34.1918C22.097 34.2297 21.7756 34.137 21.4726 33.9138C21.2248 33.7312 21.0569 33.5001 20.9688 33.2206C20.8821 32.9391 20.8737 32.6373 20.9434 32.3152C21.0145 31.9912 21.1638 31.6748 21.3913 31.3661C21.7115 30.9315 22.0581 30.6606 22.4313 30.5532C22.8059 30.444 23.188 30.4521 23.5778 30.5776Z" fill="#676464"/>
<path d="M26.1966 25.9664L26.7071 26.4601L24.742 28.492L24.2315 27.9983L26.1966 25.9664ZM23.8649 26.4976L24.4475 25.8951L28.1845 29.5094C28.3547 29.6739 28.5062 29.7727 28.639 29.8056C28.7718 29.8352 28.8905 29.8249 28.9951 29.7746C29.0997 29.7209 29.1948 29.6498 29.2804 29.5614C29.3446 29.495 29.3938 29.4372 29.4282 29.3881C29.4608 29.3373 29.4869 29.2967 29.5065 29.2663L30.1661 29.6671C30.142 29.7228 30.1021 29.7946 30.0467 29.8826C29.9929 29.9722 29.9117 30.0732 29.8031 30.1855C29.6385 30.3557 29.4407 30.4871 29.2095 30.5797C28.98 30.6705 28.7385 30.6972 28.485 30.6596C28.2332 30.6202 27.9933 30.4903 27.7653 30.2698L23.8649 26.4976Z" fill="#676464"/>
<path d="M32.6483 27.7703C32.3771 27.9846 32.0906 28.1279 31.7888 28.2003C31.4855 28.2708 31.1918 28.2599 30.9077 28.1675C30.6221 28.0733 30.3693 27.8868 30.1492 27.6081C29.9555 27.3629 29.8468 27.1259 29.8232 26.8973C29.798 26.6668 29.8317 26.444 29.9244 26.2291C30.0171 26.0141 30.1441 25.8082 30.3055 25.6114C30.4672 25.4113 30.6372 25.2198 30.8154 25.0368C31.0492 24.7979 31.2402 24.6063 31.3887 24.4619C31.5375 24.3142 31.6322 24.1897 31.6728 24.0883C31.7152 23.9854 31.6946 23.881 31.611 23.7751L31.5934 23.7528C31.3762 23.4778 31.1322 23.3235 30.8614 23.29C30.5925 23.2551 30.3066 23.3572 30.0037 23.5963C29.6897 23.8443 29.4978 24.1074 29.4281 24.3858C29.3583 24.6641 29.3488 24.9099 29.3995 25.1232L28.5992 25.3932C28.5053 25.0451 28.494 24.7252 28.5653 24.4336C28.6371 24.1386 28.7608 23.875 28.9364 23.6428C29.1124 23.4073 29.3081 23.2044 29.5237 23.0342C29.6612 22.9257 29.8323 22.8177 30.0371 22.7103C30.2422 22.5995 30.468 22.5283 30.7145 22.4966C30.9628 22.4634 31.2226 22.504 31.494 22.6185C31.7654 22.733 32.0354 22.9603 32.3039 23.3003L34.5311 26.1206L33.8734 26.64L33.4156 26.0603L33.3822 26.0868C33.411 26.2149 33.4151 26.373 33.3947 26.561C33.3743 26.7491 33.307 26.9485 33.1929 27.1593C33.0788 27.37 32.8973 27.5737 32.6483 27.7703ZM32.2821 27.1003C32.5422 26.8949 32.7211 26.6706 32.8188 26.4276C32.9183 26.1831 32.9498 25.9441 32.9131 25.7105C32.8784 25.4755 32.7906 25.2689 32.6497 25.0905L32.1744 24.4885C32.1729 24.544 32.1358 24.623 32.0631 24.7257C31.9907 24.8251 31.9013 24.9334 31.7948 25.0507C31.6887 25.1647 31.5839 25.2745 31.4805 25.3804C31.3774 25.4829 31.2942 25.5667 31.231 25.6317C31.0776 25.789 30.9465 25.9514 30.8375 26.1189C30.7288 26.2831 30.6679 26.4504 30.6546 26.6208C30.6417 26.7878 30.7013 26.955 30.8333 27.1222C31.0138 27.3507 31.2348 27.4567 31.4963 27.4403C31.7582 27.4205 32.0201 27.3072 32.2821 27.1003Z" fill="#676464"/>
<path d="M38.0802 26.5021C37.7319 26.7084 37.4059 26.8409 37.1023 26.8997C36.7999 26.9605 36.5223 26.968 36.2696 26.9224C36.0202 26.8775 35.7983 26.8025 35.604 26.6975L35.9395 25.954C36.0554 26.0009 36.1958 26.0498 36.3608 26.1007C36.5269 26.1536 36.7207 26.1695 36.9421 26.1485C37.1667 26.1282 37.4206 26.0342 37.7038 25.8665C38.0826 25.6421 38.341 25.3653 38.4789 25.036C38.6168 24.7067 38.5699 24.3465 38.3383 23.9554L37.7736 23.0021L37.7125 23.0383C37.7102 23.1552 37.6976 23.3058 37.6746 23.49C37.6525 23.6709 37.5797 23.864 37.4564 24.0691C37.3338 24.271 37.1198 24.4625 36.8142 24.6434C36.4354 24.8678 36.0421 24.9797 35.6345 24.979C35.2289 24.9771 34.8371 24.8569 34.4593 24.6185C34.0835 24.3788 33.7508 24.0146 33.4612 23.5257C33.1765 23.045 33.0131 22.5763 32.971 22.1197C32.9277 21.6611 32.9989 21.2447 33.1846 20.8706C33.369 20.4945 33.6588 20.1894 34.054 19.9553C34.3595 19.7743 34.6321 19.6817 34.8716 19.6774C35.112 19.6698 35.3181 19.7018 35.4899 19.7735C35.6624 19.8418 35.7993 19.9011 35.9006 19.9512L35.9739 19.9078L35.5323 19.1622L36.2289 18.7496L39.0883 23.5772C39.3272 23.9805 39.4298 24.3627 39.396 24.7239C39.3656 25.0859 39.2315 25.417 38.9939 25.7173C38.7596 26.0185 38.455 26.2801 38.0802 26.5021ZM36.5283 23.9378C36.8176 23.7665 37.0228 23.5555 37.144 23.3048C37.2652 23.0542 37.3042 22.7739 37.2609 22.4638C37.2175 22.1538 37.0933 21.8256 36.8882 21.4794C36.688 21.1412 36.4603 20.873 36.2052 20.6746C35.9502 20.4762 35.6794 20.3629 35.3929 20.3344C35.1064 20.306 34.8165 20.3787 34.5232 20.5524C34.2176 20.7334 34.0089 20.9616 33.8969 21.237C33.7869 21.5113 33.7582 21.8089 33.8108 22.13C33.8654 22.4498 33.9868 22.7686 34.175 23.0864C34.3681 23.4123 34.5897 23.6704 34.84 23.8606C35.091 24.0476 35.3596 24.1526 35.6457 24.1758C35.9327 24.1957 36.2269 24.1163 36.5283 23.9378Z" fill="#676464"/>
<path d="M40.2503 22.9248L38.1209 17.9031L38.8663 17.587L39.1879 18.3455L39.2403 18.3233C39.2264 18.0361 39.3066 17.7642 39.4807 17.5078C39.6549 17.2514 39.8923 17.0594 40.1931 16.9319C40.2498 16.9078 40.3211 16.8789 40.407 16.845C40.4929 16.8112 40.5586 16.7872 40.604 16.773L40.9368 17.5577C40.9078 17.5622 40.8437 17.5778 40.7445 17.6045C40.6465 17.6281 40.5462 17.6616 40.4438 17.705C40.1997 17.8085 40.0034 17.9522 39.8551 18.1359C39.708 18.3166 39.6167 18.5199 39.5814 18.7457C39.5472 18.9685 39.5782 19.1932 39.6744 19.4199L41.0219 22.5977L40.2503 22.9248Z" fill="#676464"/>
<path d="M44.8935 20.8434C44.5601 20.9347 44.2404 20.9548 43.9343 20.9036C43.6275 20.8502 43.3614 20.7255 43.1359 20.5295C42.9098 20.3313 42.7498 20.0609 42.656 19.7184C42.5734 19.417 42.5659 19.1564 42.6333 18.9367C42.7001 18.7146 42.8182 18.5228 42.9874 18.361C43.1567 18.1993 43.354 18.0593 43.5793 17.9411C43.8064 17.82 44.0376 17.71 44.2732 17.6112C44.5816 17.4825 44.8323 17.3807 45.0253 17.3057C45.22 17.2278 45.3558 17.1501 45.4328 17.0726C45.512 16.9944 45.5338 16.8903 45.4981 16.7601L45.4906 16.7327C45.3981 16.3948 45.2337 16.1576 44.9974 16.021C44.7635 15.8838 44.4604 15.8662 44.0882 15.9681C43.7024 16.0738 43.423 16.2412 43.25 16.4702C43.0771 16.6992 42.9724 16.9218 42.9359 17.138L42.0937 17.0742C42.1431 16.717 42.2576 16.418 42.4371 16.1774C42.6183 15.9338 42.8351 15.7395 43.0874 15.5943C43.3414 15.4461 43.6008 15.3358 43.8657 15.2632C44.0347 15.217 44.2344 15.1843 44.4648 15.1654C44.6969 15.1435 44.9326 15.1661 45.1719 15.2331C45.4135 15.2995 45.6368 15.4384 45.842 15.6497C46.0472 15.8611 46.207 16.1757 46.3214 16.5935L47.2709 20.0596L46.4626 20.281L46.2675 19.5686L46.2264 19.5799C46.2028 19.709 46.145 19.8562 46.0528 20.0214C45.9605 20.1866 45.8208 20.3439 45.6334 20.4934C45.4461 20.6429 45.1995 20.7596 44.8935 20.8434ZM44.8179 20.0835C45.1376 19.9959 45.3898 19.8593 45.5746 19.6737C45.7617 19.4875 45.8839 19.2797 45.9414 19.0504C46.0012 18.8205 46.001 18.5959 45.941 18.3767L45.7383 17.6369C45.7153 17.6874 45.6503 17.7457 45.5432 17.8119C45.4378 17.8751 45.3132 17.9399 45.1694 18.0063C45.0272 18.0698 44.8879 18.1301 44.7513 18.1871C44.6164 18.2413 44.5071 18.2859 44.4235 18.3211C44.2209 18.4061 44.0368 18.5044 43.871 18.6161C43.7069 18.7248 43.5854 18.855 43.5067 19.0067C43.4296 19.1555 43.4193 19.3326 43.4755 19.5381C43.5525 19.8189 43.7145 20.0028 43.9617 20.0898C44.2106 20.1738 44.496 20.1717 44.8179 20.0835Z" fill="#676464"/>
<path d="M48.2515 19.3115L47.5245 13.9057L48.3269 13.7977L48.4405 14.6424L48.5109 14.6329C48.5847 14.3292 48.7364 14.0807 48.966 13.8874C49.1953 13.6917 49.4859 13.5702 49.8379 13.5229C50.1945 13.4749 50.5022 13.5159 50.761 13.646C51.0217 13.7733 51.2384 13.9723 51.411 14.2429L51.4673 14.2354C51.5682 13.9375 51.746 13.6879 52.0008 13.4864C52.2552 13.2826 52.576 13.1546 52.9632 13.1026C53.4465 13.0376 53.8622 13.1357 54.2103 13.3971C54.558 13.6561 54.7747 14.1035 54.8602 14.7393L55.3467 18.3573L54.5162 18.469L54.0296 14.851C53.9759 14.4522 53.8285 14.1818 53.5873 14.0398C53.346 13.8979 53.0776 13.8468 52.7819 13.8866C52.4018 13.9377 52.1228 14.0922 51.9449 14.3503C51.7667 14.6059 51.7011 14.9086 51.7482 15.2582L52.2215 18.7776L51.3768 18.8912L50.8789 15.1888C50.8375 14.8814 50.7045 14.6473 50.4798 14.4864C50.2549 14.3232 49.9852 14.2627 49.6707 14.305C49.4549 14.334 49.2608 14.4186 49.0886 14.5588C48.9187 14.6987 48.79 14.8785 48.7025 15.0981C48.617 15.315 48.5921 15.556 48.6277 15.8212L49.0821 19.1998L48.2515 19.3115Z" fill="#676464"/>
</svg>
