<svg width="86" height="86" viewBox="0 0 86 86" fill="none" xmlns="http://www.w3.org/2000/svg">
<path d="M43 5.66477C42.7135 5.66477 42.4519 5.59493 42.2152 5.45526C41.9785 5.31321 41.7891 5.12382 41.647 4.88707C41.5073 4.65033 41.4375 4.38873 41.4375 4.10227C41.4375 3.81345 41.5073 3.55185 41.647 3.31747C41.7891 3.08073 41.9785 2.89252 42.2152 2.75284C42.4519 2.6108 42.7135 2.53977 43 2.53977C43.2888 2.53977 43.5504 2.6108 43.7848 2.75284C44.0215 2.89252 44.2098 3.08073 44.3494 3.31747C44.4915 3.55185 44.5625 3.81345 44.5625 4.10227C44.5625 4.38873 44.4915 4.65033 44.3494 4.88707C44.2098 5.12382 44.0215 5.31321 43.7848 5.45526C43.5504 5.59493 43.2888 5.66477 43 5.66477Z" fill="#676464"/>
<path d="M56.0396 0.825271L53.9443 7.78964L53.1418 7.54819L55.237 0.583825L56.0396 0.825271Z" fill="#676464"/>
<path d="M58.199 9.41646L60.5142 4.47765L61.273 4.83337L58.9578 9.77218L58.199 9.41646ZM61.2859 3.83539C61.138 3.76605 61.0341 3.65589 60.9741 3.5049C60.9163 3.35491 60.9206 3.20918 60.9869 3.0677C61.0532 2.92623 61.1625 2.82973 61.3148 2.77822C61.4692 2.72772 61.6203 2.73714 61.7682 2.80647C61.9161 2.87581 62.019 2.98547 62.0768 3.13546C62.1368 3.28645 62.1336 3.43268 62.0672 3.57416C62.0009 3.71563 61.8906 3.81162 61.7362 3.86213C61.5839 3.91364 61.4338 3.90473 61.2859 3.83539Z" fill="#676464"/>
<path d="M63.9899 8.76848L62.1794 11.505L61.4804 11.0426L64.4901 6.49354L65.1653 6.94029L64.6951 7.65108L64.7543 7.69027C65.0138 7.5298 65.2984 7.45132 65.6084 7.45482C65.9196 7.45635 66.247 7.57076 66.5906 7.79805C66.8986 8.00183 67.1263 8.24332 67.2737 8.52252C67.4224 8.79974 67.4767 9.10815 67.4365 9.44776C67.3976 9.7854 67.2502 10.1477 66.9942 10.5347L65.0818 13.4253L64.3828 12.9628L66.2639 10.1197C66.5003 9.76229 66.5917 9.4225 66.538 9.10029C66.4857 8.77611 66.2976 8.50691 65.9738 8.29268C65.7507 8.14507 65.5192 8.06151 65.2795 8.042C65.0418 8.0238 64.8111 8.07418 64.5876 8.19316C64.3642 8.31214 64.1649 8.50391 63.9899 8.76848Z" fill="#676464"/>
<path d="M68.0016 13.2653L68.683 12.4836L68.81 12.5973L72.2082 12.3808L72.9804 13.0727L69.3711 13.2908L69.3182 13.2434L68.0016 13.2653ZM66.0927 14.2251L70.946 8.80855L71.5701 9.36781L66.7169 14.7843L66.0927 14.2251ZM68.674 16.5379L68.8882 13.1061L69.7211 13.0704L69.4675 17.2489L68.674 16.5379Z" fill="#676464"/>
<path d="M71.2928 19.5922C70.9566 19.1882 70.7558 18.7656 70.6903 18.3242C70.6282 17.8831 70.6923 17.4494 70.8826 17.023C71.0763 16.597 71.3878 16.2052 71.8173 15.8478C72.2468 15.4905 72.6904 15.2537 73.1482 15.1376C73.6093 15.0218 74.0491 15.0285 74.4676 15.1576C74.8895 15.287 75.2579 15.541 75.5729 15.9195C75.7546 16.1378 75.8977 16.3837 76.0021 16.6572C76.1065 16.9307 76.1495 17.2229 76.1311 17.5339C76.1145 17.8434 76.0156 18.1613 75.8344 18.4876C75.6533 18.814 75.367 19.1399 74.9758 19.4655L74.7028 19.6927L72.0133 16.4609L72.5701 15.9975L74.7145 18.5742C74.9511 18.3773 75.1228 18.1543 75.2296 17.9053C75.338 17.658 75.374 17.4032 75.3375 17.141C75.3025 16.8806 75.1881 16.634 74.9942 16.401C74.7807 16.1445 74.5322 15.9754 74.2489 15.894C73.9689 15.8129 73.6862 15.8064 73.4009 15.8744C73.1156 15.9424 72.8575 16.0725 72.6263 16.2649L72.2551 16.5738C71.9385 16.8373 71.7155 17.1153 71.5862 17.4077C71.4602 17.7004 71.4217 17.9927 71.4706 18.2847C71.5213 18.5751 71.655 18.8504 71.8715 19.1106C72.0123 19.2799 72.1632 19.413 72.3241 19.5102C72.4883 19.6076 72.6603 19.6662 72.84 19.686C73.0216 19.7043 73.2079 19.6802 73.3989 19.6136L73.7421 20.3813C73.4765 20.4915 73.1993 20.5359 72.9104 20.5145C72.6234 20.4915 72.3406 20.4034 72.0622 20.2502C71.7855 20.0954 71.5291 19.8761 71.2928 19.5922Z" fill="#676464"/>
<path d="M74.3226 23.844C74.0858 23.456 73.9748 23.0536 73.9895 22.6369C74.0062 22.219 74.1433 21.8164 74.4006 21.4292C74.66 21.0407 75.0362 20.696 75.5293 20.3951C76.0183 20.0966 76.4939 19.9215 76.9559 19.8697C77.418 19.8179 77.8383 19.8817 78.2169 20.0612C78.5954 20.2406 78.9043 20.5264 79.1436 20.9184C79.3286 21.2215 79.4242 21.4918 79.4304 21.7293C79.4399 21.9676 79.4094 22.172 79.3388 22.3427C79.2715 22.5141 79.2135 22.6508 79.1647 22.7526L79.2017 22.8133L81.4933 21.4147L81.9299 22.1301L75.7219 25.9187L75.3001 25.2276L76.0155 24.791L75.9637 24.7062C75.8468 24.7054 75.694 24.696 75.5055 24.678C75.319 24.6586 75.1203 24.5899 74.9095 24.4717C74.7008 24.3523 74.5051 24.143 74.3226 23.844ZM75.0244 23.5488C75.1995 23.8357 75.4223 24.0326 75.6927 24.1394C75.9651 24.2449 76.2662 24.2678 76.5958 24.2081C76.9275 24.1471 77.2691 24.0093 77.6207 23.7948C77.9683 23.5826 78.2416 23.3465 78.4406 23.0864C78.6417 22.825 78.7545 22.5509 78.7792 22.2641C78.8058 21.976 78.7303 21.6865 78.5527 21.3955C78.3678 21.0923 78.1358 20.8872 77.8569 20.7801C77.5812 20.6738 77.2801 20.6509 76.9538 20.7114C76.6306 20.7727 76.3054 20.9032 75.978 21.103C75.6466 21.3053 75.3763 21.5396 75.1672 21.8059C74.9613 22.073 74.8396 22.3552 74.8021 22.6527C74.7678 22.951 74.8419 23.2497 75.0244 23.5488Z" fill="#676464"/>
<path d="M76.7263 28.2019L81.7463 26.0686L82.0741 26.8399L77.054 28.9732L76.7263 28.2019ZM82.7497 26.1053C82.6858 25.9549 82.6819 25.8035 82.738 25.6511C82.795 25.5008 82.8955 25.3951 83.0393 25.334C83.1831 25.2729 83.3289 25.2739 83.4766 25.3372C83.6253 25.4026 83.7316 25.5105 83.7955 25.6608C83.8594 25.8112 83.8628 25.9615 83.8058 26.1118C83.7497 26.2642 83.6497 26.371 83.5059 26.4321C83.3621 26.4932 83.2159 26.4911 83.0672 26.4256C82.9194 26.3624 82.8136 26.2556 82.7497 26.1053Z" fill="#676464"/>
<path d="M81.4716 31.5836L78.297 32.4136L78.085 31.6028L83.3622 30.2231L83.567 31.0065L82.7425 31.222L82.7604 31.2907C83.0607 31.3444 83.3251 31.4759 83.5536 31.6853C83.7844 31.8942 83.9519 32.1979 84.0561 32.5964C84.1495 32.9537 84.1579 33.2855 84.0814 33.5918C84.0072 33.8975 83.8418 34.1634 83.5852 34.3896C83.331 34.6151 82.9794 34.7865 82.5305 34.9039L79.1773 35.7805L78.9653 34.9697L82.2635 34.1074C82.6781 33.9991 82.9729 33.807 83.1479 33.5312C83.3253 33.2548 83.3648 32.9288 83.2666 32.5532C83.199 32.2944 83.0824 32.0777 82.9169 31.9032C82.7519 31.731 82.5465 31.6146 82.3007 31.5541C82.0549 31.4935 81.7785 31.5034 81.4716 31.5836Z" fill="#676464"/>
<path d="M81.1415 44.4279C81.152 44.1417 81.2314 43.8828 81.3796 43.6513C81.5302 43.4199 81.7264 43.2376 81.9681 43.1043C82.2098 42.9733 82.4738 42.9131 82.7601 42.9235C83.0487 42.9341 83.3076 43.0134 83.5367 43.1616C83.7681 43.3122 83.9493 43.5083 84.0802 43.75C84.2135 43.9918 84.2749 44.2558 84.2645 44.5421C84.2539 44.8307 84.1734 45.0895 84.0229 45.3186C83.8746 45.55 83.6797 45.7313 83.438 45.8622C83.1986 45.9956 82.9346 46.057 82.6459 46.0465C82.3597 46.036 82.1008 45.9555 81.8694 45.8049C81.638 45.6566 81.4556 45.4616 81.3223 45.2199C81.1912 44.9805 81.131 44.7166 81.1415 44.4279Z" fill="#676464"/>
<path d="M84.602 57.6978L77.7188 55.3496L77.9894 54.5564L84.8726 56.9046L84.602 57.6978Z" fill="#676464"/>
<path d="M75.9371 59.542L80.788 62.0361L80.4048 62.7814L75.5539 60.2873L75.9371 59.542ZM81.4017 62.8307C81.4764 62.6854 81.5902 62.5856 81.7433 62.5312C81.8953 62.4789 82.0408 62.4885 82.1798 62.5599C82.3187 62.6314 82.4112 62.7441 82.4571 62.8982C82.5019 63.0543 82.487 63.205 82.4123 63.3503C82.3376 63.4956 82.2242 63.5944 82.0723 63.6467C81.9192 63.7011 81.7732 63.6925 81.6342 63.6211C81.4952 63.5496 81.4033 63.4358 81.3585 63.2797C81.3126 63.1257 81.327 62.976 81.4017 62.8307Z" fill="#676464"/>
<path d="M76.3735 65.3528L73.7049 63.4436L74.1926 62.762L78.6287 65.9358L78.1576 66.5943L77.4644 66.0984L77.4231 66.1562C77.574 66.4213 77.642 66.7087 77.6272 67.0183C77.6143 67.3292 77.488 67.6522 77.2483 67.9873C77.0334 68.2876 76.7838 68.5064 76.4994 68.6435C76.2169 68.782 75.9067 68.8249 75.5688 68.7724C75.2328 68.7212 74.8762 68.5606 74.4988 68.2906L71.68 66.274L72.1676 65.5924L74.9402 67.576C75.2887 67.8253 75.6249 67.929 75.9489 67.8872C76.2748 67.8467 76.5507 67.6686 76.7766 67.3528C76.9322 67.1352 77.0242 66.907 77.0524 66.6682C77.0793 66.4312 77.0374 66.1989 76.9266 65.9712C76.8159 65.7436 76.6315 65.5374 76.3735 65.3528Z" fill="#676464"/>
<path d="M71.7329 69.1979L72.4892 69.9074L72.3709 70.0301L72.4633 73.434L71.7435 74.1805L71.6574 70.5656L71.7067 70.5144L71.7329 69.1979ZM70.8435 67.2553L76.0792 72.3031L75.4975 72.9064L70.2618 67.8586L70.8435 67.2553ZM68.4379 69.7504L71.8597 70.0897L71.8649 70.9234L67.6985 70.5173L68.4379 69.7504Z" fill="#676464"/>
<path d="M65.2899 72.2563C65.7059 71.9351 66.1357 71.7499 66.5791 71.7005C67.0222 71.6545 67.4533 71.7344 67.8724 71.9402C68.2911 72.1493 68.6712 72.475 69.0127 72.9172C69.3541 73.3594 69.5745 73.8114 69.6738 74.2731C69.7727 74.7381 69.75 75.1774 69.6057 75.591C69.4609 76.0078 69.1937 76.3667 68.8039 76.6677C68.5791 76.8413 68.3281 76.9753 68.051 77.0696C67.7739 77.1639 67.4803 77.1962 67.1702 77.1665C66.8615 77.1386 66.5474 77.0282 66.2279 76.8352C65.9084 76.6423 65.5931 76.3443 65.282 75.9415L65.065 75.6604L68.3929 73.0907L68.8356 73.6641L66.1823 75.7129C66.3704 75.9565 66.587 76.1362 66.832 76.2521C67.0751 76.3695 67.3284 76.4147 67.5918 76.3878C67.8533 76.3623 68.104 76.257 68.3438 76.0718C68.608 75.8678 68.786 75.6257 68.8777 75.3455C68.969 75.0686 68.9859 74.7864 68.9283 74.4988C68.8708 74.2112 68.7501 73.9484 68.5664 73.7105L68.2712 73.3282C68.0194 73.0022 67.7498 72.7692 67.4623 72.6293C67.1744 72.4927 66.8836 72.4435 66.5901 72.4817C66.298 72.5218 66.018 72.6453 65.7501 72.8522C65.5758 72.9868 65.4372 73.1327 65.3343 73.2899C65.2309 73.4505 65.1661 73.6202 65.1397 73.7991C65.1148 73.9798 65.1321 74.1669 65.1916 74.3602L64.4119 74.6752C64.3115 74.4057 64.2773 74.127 64.3092 73.8392C64.3426 73.5531 64.441 73.2738 64.6043 73.0011C64.7691 72.7303 64.9976 72.4821 65.2899 72.2563Z" fill="#676464"/>
<path d="M60.9307 75.1287C61.3271 74.9063 61.7332 74.81 62.1491 74.84C62.5661 74.872 62.9634 75.0236 63.341 75.2949C63.7198 75.5683 64.0505 75.9569 64.3332 76.4606C64.6136 76.9602 64.7712 77.4418 64.8061 77.9055C64.841 78.3692 64.7619 78.7868 64.5687 79.1586C64.3756 79.5303 64.0787 79.8286 63.6782 80.0534C63.3685 80.2272 63.0949 80.3129 62.8574 80.3104C62.6189 80.3112 62.4157 80.2732 62.2478 80.1965C62.0789 80.1229 61.9444 80.0599 61.8444 80.0075L61.7825 80.0422L63.0964 82.3834L62.3656 82.7936L58.8062 76.4514L59.5122 76.0551L59.9224 76.786L60.0091 76.7373C60.0141 76.6205 60.0291 76.4682 60.054 76.2804C60.0801 76.0948 60.1561 75.8987 60.2819 75.6924C60.4089 75.4881 60.6251 75.3002 60.9307 75.1287ZM61.2 75.8409C60.9069 76.0054 60.702 76.2208 60.5854 76.4872C60.47 76.7555 60.4361 77.0555 60.4838 77.3871C60.5326 77.7208 60.6578 78.0673 60.8594 78.4265C61.0587 78.7816 61.2847 79.0633 61.5374 79.2717C61.7912 79.4822 62.061 79.6049 62.3468 79.64C62.6337 79.6772 62.9258 79.6124 63.223 79.4455C63.5327 79.2717 63.7462 79.0474 63.8634 78.7726C63.9797 78.501 64.0136 78.201 63.9651 77.8726C63.9156 77.5474 63.797 77.2176 63.6093 76.8832C63.4193 76.5446 63.195 76.2659 62.9366 76.0472C62.6772 75.8317 62.3995 75.6998 62.1036 75.6514C61.8068 75.6062 61.5056 75.6694 61.2 75.8409Z" fill="#676464"/>
<path d="M56.488 77.3714L58.4365 82.466L57.6538 82.7654L55.7052 77.6708L56.488 77.3714ZM58.3633 83.4673C58.5158 83.409 58.6673 83.4106 58.8176 83.4723C58.9657 83.5348 59.0676 83.639 59.1235 83.7849C59.1793 83.9308 59.1729 84.0765 59.1043 84.2219C59.0335 84.3681 58.9218 84.4704 58.7692 84.5287C58.6166 84.5871 58.4663 84.585 58.3182 84.5225C58.1679 84.4609 58.0648 84.3571 58.009 84.2111C57.9532 84.0652 57.9607 83.9191 58.0315 83.7729C58.1001 83.6276 58.2107 83.5257 58.3633 83.4673Z" fill="#676464"/>
<path d="M52.9352 81.9901L52.2218 78.7874L53.0398 78.6052L54.2258 83.9292L53.4355 84.1053L53.2502 83.2734L53.1809 83.2888C53.1163 83.587 52.9752 83.8464 52.7576 84.0671C52.5404 84.2901 52.2308 84.4464 51.8288 84.536C51.4683 84.6163 51.1364 84.6126 50.8331 84.5249C50.5303 84.4396 50.2706 84.2646 50.054 83.9999C49.8379 83.7376 49.6794 83.38 49.5785 82.9271L48.8249 79.5441L49.6429 79.3619L50.3842 82.6894C50.4773 83.1076 50.6585 83.4093 50.9277 83.5943C51.1975 83.7816 51.5218 83.833 51.9008 83.7486C52.1619 83.6904 52.3827 83.5818 52.5631 83.4228C52.7412 83.2643 52.865 83.0633 52.9345 82.8198C53.004 82.5763 53.0042 82.2998 52.9352 81.9901Z" fill="#676464"/>
<path d="M40.1115 81.191C40.3972 81.2119 40.653 81.3007 40.8789 81.4572C41.1046 81.6162 41.2797 81.8189 41.4041 82.0654C41.5261 82.3117 41.5767 82.5777 41.5558 82.8634C41.5347 83.1514 41.4459 83.4072 41.2895 83.6308C41.1306 83.8565 40.9279 84.0304 40.6816 84.1524C40.4352 84.2768 40.1691 84.3286 39.8834 84.3077C39.5953 84.2866 39.3396 84.1966 39.1162 84.0379C38.8903 83.8813 38.7163 83.6798 38.5943 83.4335C38.4698 83.1894 38.418 82.9233 38.4391 82.6353C38.46 82.3496 38.5499 82.0939 38.7089 81.8681C38.8655 81.6422 39.067 81.4671 39.3135 81.3427C39.5574 81.2205 39.8234 81.1699 40.1115 81.191Z" fill="#676464"/>
<path d="M26.724 84.1644L29.3221 77.3715L30.1048 77.6709L27.5068 84.4638L26.724 84.1644Z" fill="#676464"/>
<path d="M25.1975 75.4382L22.5279 80.1949L21.7971 79.7847L24.4667 75.0281L25.1975 75.4382ZM21.7114 80.7791C21.8539 80.859 21.9495 80.9765 21.9982 81.1315C22.0449 81.2853 22.0301 81.4303 21.9536 81.5666C21.8771 81.7028 21.7611 81.7911 21.6055 81.8313C21.4478 81.8704 21.2977 81.85 21.1553 81.7701C21.0128 81.6901 20.9182 81.5732 20.8715 81.4194C20.8228 81.2645 20.8366 81.1189 20.9131 80.9826C20.9895 80.8463 21.1066 80.7587 21.2643 80.7196C21.4199 80.6793 21.569 80.6991 21.7114 80.7791Z" fill="#676464"/>
<path d="M19.3745 75.6617L21.3799 73.0646L22.0432 73.5768L18.7096 77.8941L18.0687 77.3992L18.5896 76.7247L18.5334 76.6813C18.2629 76.8224 17.9733 76.8799 17.6644 76.8537C17.3541 76.8295 17.036 76.6915 16.7099 76.4397C16.4176 76.214 16.2081 75.9565 16.0815 75.6673C15.9534 75.38 15.9218 75.0684 15.9867 74.7327C16.0501 74.3988 16.2236 74.0482 16.5072 73.6809L18.6254 70.9377L19.2888 71.4499L17.2052 74.1482C16.9433 74.4873 16.8274 74.8195 16.8574 75.1448C16.8859 75.4719 17.0539 75.7542 17.3612 75.9914C17.5729 76.1549 17.7976 76.2552 18.0353 76.2921C18.2711 76.3276 18.5047 76.2942 18.7363 76.1919C18.9679 76.0895 19.1806 75.9128 19.3745 75.6617Z" fill="#676464"/>
<path d="M15.7018 70.8846L14.9652 71.6145L14.8469 71.4918L11.442 71.4597L10.7223 70.7132L14.3379 70.7592L14.3872 70.8103L15.7018 70.8846ZM17.6757 70.0667L12.4401 75.1145L11.8584 74.5112L17.094 69.4634L17.6757 70.0667ZM15.2701 67.5716L14.806 70.9787L13.9727 70.9534L14.5307 66.8047L15.2701 67.5716Z" fill="#676464"/>
<path d="M12.8806 64.3338C13.1864 64.7612 13.3558 65.1975 13.3889 65.6424C13.4187 66.0869 13.3231 66.5148 13.1022 66.9261C12.8779 67.3369 12.5386 67.7048 12.0842 68.0299C11.6298 68.355 11.1701 68.5587 10.705 68.6411C10.2367 68.7229 9.79853 68.6842 9.39055 68.5249C8.97927 68.365 8.63036 68.0848 8.34384 67.6843C8.17854 67.4533 8.05382 67.1976 7.96966 66.9172C7.88551 66.6368 7.86396 66.3422 7.905 66.0334C7.94412 65.726 8.06594 65.4162 8.27046 65.1039C8.47497 64.7917 8.78421 64.4875 9.19817 64.1913L9.48698 63.9847L11.9334 67.4042L11.3443 67.8257L9.39371 65.0993C9.14341 65.2784 8.95588 65.4883 8.83112 65.7289C8.70498 65.9676 8.65054 66.219 8.66781 66.4832C8.6837 66.7455 8.7798 66.9998 8.95612 67.2463C9.15035 67.5178 9.38579 67.7045 9.66246 67.8064C9.93581 67.9077 10.2172 67.9349 10.5067 67.8879C10.7962 67.8409 11.0632 67.7299 11.3077 67.5549L11.7005 67.2739C12.0355 67.0342 12.2782 66.7733 12.4285 66.4911C12.5755 66.2083 12.6353 65.9196 12.6079 65.6249C12.5785 65.3315 12.4653 65.0472 12.2683 64.7719C12.1402 64.5928 11.9994 64.449 11.8461 64.3404C11.6894 64.2312 11.5221 64.1602 11.3443 64.1273C11.1646 64.0958 10.9771 64.1063 10.7817 64.1587L10.4954 63.368C10.7684 63.2775 11.0481 63.2535 11.3346 63.2959C11.6192 63.3398 11.8948 63.4483 12.1613 63.6214C12.4259 63.796 12.6657 64.0334 12.8806 64.3338Z" fill="#676464"/>
<path d="M10.1695 59.8727C10.3773 60.2769 10.4587 60.6863 10.4136 61.1008C10.3664 61.5164 10.2003 61.9079 9.91538 62.2753C9.62835 62.6438 9.22797 62.9602 8.71424 63.2243C8.20472 63.4863 7.71766 63.6262 7.25304 63.6441C6.78842 63.6621 6.3739 63.5677 6.00946 63.3611C5.64502 63.1545 5.3578 62.847 5.1478 62.4385C4.98543 62.1227 4.90979 61.8461 4.92089 61.6088C4.92879 61.3705 4.97417 61.1688 5.05702 61.0038C5.13668 60.8377 5.20455 60.7057 5.26062 60.6076L5.22815 60.5445L2.84057 61.772L2.45737 61.0267L8.92531 57.7013L9.29552 58.4213L8.55019 58.8045L8.59566 58.893C8.71223 58.9022 8.86387 58.9228 9.05058 58.9546C9.23518 58.9874 9.42829 59.0705 9.6299 59.2037C9.82941 59.3381 10.0093 59.5611 10.1695 59.8727ZM9.44799 60.1158C9.29427 59.8169 9.08647 59.6043 8.82458 59.478C8.56059 59.3529 8.26203 59.3081 7.92891 59.3436C7.59368 59.3802 7.24289 59.4926 6.87654 59.681C6.5144 59.8672 6.22459 60.0827 6.00711 60.3276C5.78753 60.5736 5.65498 60.8388 5.60947 61.1231C5.56186 61.4084 5.61599 61.7027 5.77187 62.0059C5.93424 62.3217 6.15061 62.5432 6.42098 62.6704C6.68816 62.7966 6.98672 62.8414 7.31666 62.8048C7.64341 62.7673 7.97733 62.6608 8.31841 62.4855C8.6637 62.3079 8.95035 62.094 9.17836 61.8437C9.40318 61.5923 9.54517 61.3197 9.60433 61.0257C9.66031 60.7307 9.60819 60.4274 9.44799 60.1158Z" fill="#676464"/>
<path d="M8.09086 55.3505L2.92846 57.1117L2.65787 56.3185L7.82027 54.5573L8.09086 55.3505ZM1.93047 57.0019C1.98322 57.1565 1.97604 57.3078 1.90895 57.4557C1.8411 57.6015 1.73323 57.6995 1.58535 57.75C1.43747 57.8004 1.29215 57.7887 1.14938 57.7149C1.00585 57.6388 0.907715 57.5234 0.854972 57.3688C0.802229 57.2142 0.809784 57.064 0.877638 56.9183C0.944728 56.7704 1.05221 56.6712 1.20009 56.6207C1.34798 56.5703 1.49368 56.5831 1.63721 56.6592C1.77997 56.7331 1.87773 56.8473 1.93047 57.0019Z" fill="#676464"/>
<path d="M3.60467 51.6315L6.83134 51.0355L6.98356 51.8596L1.61975 52.8504L1.47269 52.0542L2.31078 51.8994L2.29788 51.8295C2.00228 51.7541 1.74818 51.6036 1.53559 51.3781C1.32067 51.153 1.1758 50.8379 1.10098 50.4328C1.03389 50.0696 1.0497 49.7381 1.14838 49.4382C1.24473 49.1387 1.4291 48.8856 1.70146 48.6788C1.9715 48.4724 2.33467 48.3271 2.79097 48.2428L6.19922 47.6133L6.35145 48.4374L2.99906 49.0566C2.57769 49.1344 2.26964 49.3045 2.07493 49.5668C1.87789 49.8295 1.81463 50.1517 1.88516 50.5335C1.93375 50.7966 2.03422 51.0212 2.18656 51.2073C2.33848 51.3911 2.53482 51.5221 2.77558 51.6005C3.01635 51.6788 3.29271 51.6891 3.60467 51.6315Z" fill="#676464"/>
<path d="M4.87154 38.8457C4.84021 39.1304 4.74218 39.3828 4.57744 39.6029C4.41036 39.8227 4.20139 39.9902 3.95053 40.1055C3.69993 40.2185 3.43226 40.2593 3.14752 40.2279C2.86043 40.1963 2.60803 40.0983 2.39034 39.9338C2.17056 39.7668 2.00419 39.5579 1.89124 39.3073C1.77594 39.0565 1.73396 38.7887 1.76529 38.5039C1.79687 38.2168 1.89608 37.9646 2.06291 37.7471C2.22764 37.5271 2.43531 37.3606 2.68591 37.2476C2.93441 37.1321 3.20221 37.0901 3.4893 37.1217C3.77404 37.153 4.02631 37.2522 4.24609 37.4193C4.46614 37.584 4.63381 37.7918 4.74911 38.0427C4.86232 38.2909 4.90313 38.5586 4.87154 38.8457Z" fill="#676464"/>
<path d="M2.38865 25.3583L9.08208 28.2027L8.75431 28.974L2.06088 26.1296L2.38865 25.3583Z" fill="#676464"/>
<path d="M11.1652 24.1516L6.50926 21.3101L6.94585 20.5948L11.6018 23.4363L11.1652 24.1516ZM5.95526 20.4728C5.87016 20.6122 5.74929 20.7035 5.59265 20.7466C5.43724 20.7876 5.29285 20.7675 5.15948 20.6861C5.0261 20.6047 4.94214 20.4855 4.90759 20.3285C4.87428 20.1695 4.90017 20.0203 4.98527 19.8808C5.07036 19.7414 5.19062 19.6511 5.34603 19.6101C5.50267 19.567 5.64768 19.5862 5.78105 19.6676C5.91443 19.749 5.99777 19.8692 6.03108 20.0282C6.06563 20.1852 6.04036 20.3334 5.95526 20.4728Z" fill="#676464"/>
<path d="M11.1544 18.3249L13.6766 20.4238L13.1405 21.068L8.94786 17.5789L9.46578 16.9565L10.1209 17.5017L10.1663 17.4471C10.0352 17.1717 9.9883 16.8801 10.0257 16.5724C10.0612 16.2632 10.2108 15.9503 10.4743 15.6337C10.7105 15.3498 10.9755 15.1498 11.2691 15.0339C11.5609 14.9164 11.8734 14.8961 12.2066 14.9732C12.538 15.0488 12.882 15.235 13.2386 15.5318L15.9027 17.7488L15.3666 18.393L12.7462 16.2123C12.4169 15.9382 12.0891 15.8102 11.763 15.8283C11.435 15.8449 11.1468 16.0024 10.8985 16.3008C10.7274 16.5065 10.619 16.7274 10.5734 16.9635C10.5293 17.1979 10.5541 17.4326 10.648 17.6678C10.7418 17.9029 10.9106 18.122 11.1544 18.3249Z" fill="#676464"/>
<path d="M16.0629 14.8287L15.3603 14.0659L15.4873 13.9521L15.6437 10.5506L16.416 9.85865L16.238 13.4702L16.1851 13.5176L16.0629 14.8287ZM16.8081 16.8311L11.9548 11.4146L12.579 10.8553L17.4322 16.2718L16.8081 16.8311ZM19.3894 14.5182L16.0015 13.93L16.0572 13.0982L20.1828 13.8073L19.3894 14.5182Z" fill="#676464"/>
<path d="M22.7118 12.2487C22.2735 12.5387 21.8314 12.6921 21.3855 12.7089C20.9402 12.7224 20.5161 12.6113 20.1131 12.3755C19.7108 12.1363 19.3555 11.7838 19.0472 11.3178C18.739 10.8519 18.5522 10.385 18.4868 9.91729C18.4222 9.44628 18.4769 9.00982 18.651 8.60793C18.8258 8.20277 19.1185 7.86433 19.5292 7.59263C19.7661 7.43587 20.0262 7.32057 20.3095 7.24671C20.5927 7.17286 20.8879 7.16208 21.195 7.21437C21.5008 7.26469 21.806 7.39775 22.1106 7.61353C22.4151 7.82931 22.7078 8.14946 22.9887 8.57396L23.1846 8.87012L19.678 11.1901L19.2783 10.5859L22.0741 8.7362C21.9043 8.47953 21.7014 8.28446 21.4655 8.15099C21.2316 8.01622 20.9823 7.95264 20.7177 7.96024C20.455 7.96654 20.1973 8.05329 19.9446 8.22049C19.6662 8.40468 19.471 8.63315 19.3591 8.9059C19.2478 9.17538 19.2104 9.45562 19.2468 9.74662C19.2832 10.0376 19.3844 10.3085 19.5502 10.5593L19.8167 10.962C20.044 11.3056 20.2959 11.5576 20.5724 11.7182C20.8496 11.8754 21.136 11.9457 21.4315 11.929C21.7258 11.9103 22.014 11.8076 22.2964 11.6208C22.48 11.4993 22.6289 11.3639 22.743 11.2146C22.8578 11.062 22.9349 10.8975 22.9742 10.721C23.0123 10.5426 23.0087 10.3548 22.9634 10.1576L23.7641 9.90041C23.8445 10.1765 23.8583 10.4569 23.8054 10.7417C23.7512 11.0245 23.6327 11.2959 23.45 11.5559C23.2659 11.814 23.0198 12.0449 22.7118 12.2487Z" fill="#676464"/>
<path d="M27.2692 9.70198C26.8576 9.89492 26.4455 9.96128 26.0329 9.90107C25.6193 9.83871 25.2342 9.65846 24.8774 9.36031C24.5196 9.06001 24.2181 8.64835 23.9729 8.12531C23.7297 7.60657 23.6077 7.11471 23.6067 6.64975C23.6058 6.18479 23.7152 5.77398 23.935 5.41734C24.1547 5.06069 24.4726 4.78489 24.8884 4.58995C25.21 4.43922 25.4891 4.37373 25.7258 4.39349C25.9637 4.41009 26.1636 4.46281 26.3255 4.55163C26.4885 4.6373 26.618 4.70995 26.714 4.76956L26.7783 4.73942L25.6388 2.3086L26.3976 1.95287L29.4845 8.53795L28.7514 8.88162L28.3957 8.12279L28.3057 8.16499C28.2922 8.28115 28.2661 8.43194 28.2275 8.61736C28.1879 8.80064 28.0979 8.99059 27.9573 9.1872C27.8158 9.38167 27.5864 9.55326 27.2692 9.70198ZM27.0525 8.97209C27.3569 8.8294 27.5769 8.6295 27.7126 8.3724C27.8473 8.11316 27.903 7.81643 27.8797 7.48223C27.8554 7.14589 27.7558 6.79122 27.581 6.41824C27.4081 6.04955 27.2033 5.75206 26.9665 5.52578C26.7287 5.29736 26.4686 5.15522 26.1861 5.09936C25.9027 5.04135 25.6067 5.0847 25.298 5.2294C24.9765 5.38013 24.7472 5.58827 24.6102 5.85381C24.4744 6.11621 24.4187 6.41293 24.4431 6.74398C24.4687 7.07188 24.5629 7.40947 24.7257 7.75673C24.8905 8.10827 25.0938 8.40255 25.3357 8.63954C25.5786 8.87339 25.8459 9.02524 26.1375 9.0951C26.4302 9.16182 26.7352 9.12081 27.0525 8.97209Z" fill="#676464"/>
<path d="M31.8643 7.78969L30.2929 2.56642L31.0954 2.32497L32.6669 7.54825L31.8643 7.78969ZM30.4391 1.5731C30.2826 1.62016 30.1317 1.60747 29.9863 1.53502C29.8432 1.46189 29.7491 1.35051 29.7041 1.20089C29.6591 1.05126 29.6761 0.906465 29.7551 0.766493C29.8364 0.625839 29.9552 0.531982 30.1117 0.48492C30.2681 0.437858 30.4179 0.450893 30.561 0.524023C30.7064 0.596472 30.8016 0.707509 30.8467 0.857134C30.8917 1.00676 30.8735 1.1519 30.7922 1.29255C30.7132 1.43252 30.5955 1.52604 30.4391 1.5731Z" fill="#676464"/>
<path d="M35.7445 3.4427L36.2222 6.68899L35.3931 6.81101L34.5989 1.41459L35.3999 1.2967L35.524 2.1399L35.5943 2.12955C35.6804 1.8369 35.8401 1.58847 36.0733 1.38426C36.3061 1.1777 36.6263 1.04444 37.0338 0.98446C37.3992 0.930687 37.7299 0.958585 38.026 1.06816C38.3218 1.17538 38.568 1.36887 38.7647 1.6486C38.9611 1.926 39.0931 2.29423 39.1606 2.7533L39.6653 6.18228L38.8361 6.3043L38.3398 2.93154C38.2774 2.5076 38.1187 2.19355 37.8637 1.98939C37.6084 1.78289 37.2886 1.70791 36.9045 1.76444C36.6399 1.80339 36.4117 1.89559 36.2202 2.04103C36.031 2.18613 35.8928 2.37756 35.8058 2.6153C35.7187 2.85305 35.6983 3.12885 35.7445 3.4427Z" fill="#676464"/>
</svg>
