<svg width="498" height="455" viewBox="0 0 498 455" fill="none" xmlns="http://www.w3.org/2000/svg">
<rect width="498" height="455" fill="white"/>
<path d="M177.344 233C177.227 233 177.131 232.963 177.056 232.888C176.981 232.813 176.944 232.717 176.944 232.6V225.08C176.944 224.963 176.981 224.867 177.056 224.792C177.131 224.717 177.227 224.68 177.344 224.68H179.088C179.205 224.68 179.301 224.717 179.376 224.792C179.451 224.867 179.488 224.963 179.488 225.08V225.624C179.701 225.336 180 225.085 180.384 224.872C180.768 224.648 181.221 224.531 181.744 224.52C182.971 224.499 183.813 224.963 184.272 225.912C184.517 225.507 184.869 225.176 185.328 224.92C185.787 224.653 186.288 224.52 186.832 224.52C187.387 224.52 187.883 224.648 188.32 224.904C188.768 225.149 189.125 225.533 189.392 226.056C189.659 226.568 189.792 227.235 189.792 228.056V232.6C189.792 232.717 189.749 232.813 189.664 232.888C189.589 232.963 189.499 233 189.392 233H187.536C187.419 233 187.317 232.963 187.232 232.888C187.157 232.813 187.12 232.717 187.12 232.6V228.168C187.12 227.795 187.067 227.501 186.96 227.288C186.853 227.064 186.709 226.904 186.528 226.808C186.347 226.712 186.139 226.664 185.904 226.664C185.712 226.664 185.52 226.712 185.328 226.808C185.147 226.904 184.997 227.064 184.88 227.288C184.773 227.501 184.72 227.795 184.72 228.168V232.6C184.72 232.717 184.683 232.813 184.608 232.888C184.533 232.963 184.437 233 184.32 233H182.464C182.347 233 182.251 232.963 182.176 232.888C182.101 232.813 182.064 232.717 182.064 232.6V228.168C182.064 227.795 182.005 227.501 181.888 227.288C181.771 227.064 181.621 226.904 181.44 226.808C181.259 226.712 181.056 226.664 180.832 226.664C180.64 226.664 180.448 226.712 180.256 226.808C180.075 226.904 179.925 227.064 179.808 227.288C179.701 227.501 179.648 227.789 179.648 228.152V232.6C179.648 232.717 179.605 232.813 179.52 232.888C179.445 232.963 179.349 233 179.232 233H177.344ZM195.521 233.16C194.625 233.16 193.867 233.016 193.249 232.728C192.641 232.44 192.171 232.029 191.841 231.496C191.521 230.952 191.339 230.307 191.297 229.56C191.286 229.347 191.281 229.107 191.281 228.84C191.281 228.563 191.286 228.323 191.297 228.12C191.339 227.363 191.531 226.717 191.873 226.184C192.214 225.651 192.689 225.24 193.297 224.952C193.915 224.664 194.657 224.52 195.521 224.52C196.395 224.52 197.137 224.664 197.745 224.952C198.363 225.24 198.843 225.651 199.185 226.184C199.526 226.717 199.718 227.363 199.761 228.12C199.771 228.323 199.777 228.563 199.777 228.84C199.777 229.107 199.771 229.347 199.761 229.56C199.718 230.307 199.531 230.952 199.201 231.496C198.881 232.029 198.411 232.44 197.793 232.728C197.185 233.016 196.427 233.16 195.521 233.16ZM195.521 231.208C196.001 231.208 196.347 231.064 196.561 230.776C196.785 230.488 196.913 230.056 196.945 229.48C196.955 229.32 196.961 229.107 196.961 228.84C196.961 228.573 196.955 228.36 196.945 228.2C196.913 227.635 196.785 227.208 196.561 226.92C196.347 226.621 196.001 226.472 195.521 226.472C195.051 226.472 194.705 226.621 194.481 226.92C194.257 227.208 194.134 227.635 194.113 228.2C194.102 228.36 194.097 228.573 194.097 228.84C194.097 229.107 194.102 229.32 194.113 229.48C194.134 230.056 194.257 230.488 194.481 230.776C194.705 231.064 195.051 231.208 195.521 231.208ZM201.75 233C201.633 233 201.537 232.963 201.462 232.888C201.388 232.813 201.35 232.717 201.35 232.6V225.08C201.35 224.973 201.388 224.883 201.462 224.808C201.537 224.723 201.633 224.68 201.75 224.68H203.59C203.708 224.68 203.804 224.723 203.878 224.808C203.953 224.883 203.99 224.973 203.99 225.08V225.72C204.278 225.389 204.62 225.133 205.014 224.952C205.42 224.771 205.873 224.68 206.374 224.68H207.078C207.185 224.68 207.276 224.717 207.35 224.792C207.436 224.867 207.478 224.963 207.478 225.08V226.728C207.478 226.835 207.436 226.931 207.35 227.016C207.276 227.091 207.185 227.128 207.078 227.128H205.526C205.089 227.128 204.748 227.251 204.502 227.496C204.268 227.731 204.15 228.067 204.15 228.504V232.6C204.15 232.717 204.108 232.813 204.022 232.888C203.948 232.963 203.852 233 203.734 233H201.75ZM212.393 233.16C211.135 233.16 210.132 232.819 209.385 232.136C208.639 231.453 208.249 230.44 208.217 229.096C208.217 229.021 208.217 228.925 208.217 228.808C208.217 228.691 208.217 228.6 208.217 228.536C208.249 227.693 208.436 226.973 208.777 226.376C209.129 225.768 209.609 225.309 210.217 225C210.836 224.68 211.556 224.52 212.377 224.52C213.316 224.52 214.089 224.707 214.697 225.08C215.316 225.453 215.78 225.96 216.089 226.6C216.399 227.24 216.553 227.971 216.553 228.792V229.176C216.553 229.293 216.511 229.389 216.425 229.464C216.351 229.539 216.26 229.576 216.153 229.576H211.033C211.033 229.587 211.033 229.603 211.033 229.624C211.033 229.645 211.033 229.667 211.033 229.688C211.044 229.997 211.097 230.28 211.193 230.536C211.289 230.792 211.439 230.995 211.641 231.144C211.844 231.293 212.089 231.368 212.377 231.368C212.591 231.368 212.767 231.336 212.905 231.272C213.055 231.197 213.177 231.117 213.273 231.032C213.369 230.936 213.444 230.856 213.497 230.792C213.593 230.685 213.668 230.621 213.721 230.6C213.785 230.568 213.881 230.552 214.009 230.552H215.993C216.1 230.552 216.185 230.584 216.249 230.648C216.324 230.701 216.356 230.781 216.345 230.888C216.335 231.069 216.244 231.288 216.073 231.544C215.903 231.8 215.652 232.056 215.321 232.312C215.001 232.557 214.596 232.76 214.105 232.92C213.615 233.08 213.044 233.16 212.393 233.16ZM211.033 227.992H213.737V227.96C213.737 227.619 213.684 227.32 213.577 227.064C213.481 226.808 213.327 226.611 213.113 226.472C212.911 226.333 212.665 226.264 212.377 226.264C212.089 226.264 211.844 226.333 211.641 226.472C211.449 226.611 211.3 226.808 211.193 227.064C211.087 227.32 211.033 227.619 211.033 227.96V227.992ZM225.284 233.16C224.494 233.16 223.796 233.016 223.188 232.728C222.58 232.44 222.094 232.024 221.732 231.48C221.38 230.925 221.188 230.264 221.156 229.496C221.145 229.325 221.14 229.112 221.14 228.856C221.14 228.589 221.145 228.371 221.156 228.2C221.188 227.421 221.38 226.76 221.732 226.216C222.084 225.661 222.564 225.24 223.172 224.952C223.79 224.664 224.494 224.52 225.284 224.52C226.02 224.52 226.649 224.627 227.172 224.84C227.694 225.043 228.121 225.299 228.452 225.608C228.782 225.917 229.028 226.237 229.188 226.568C229.358 226.888 229.449 227.171 229.46 227.416C229.47 227.523 229.433 227.619 229.348 227.704C229.262 227.779 229.166 227.816 229.06 227.816H227.028C226.91 227.816 226.82 227.789 226.756 227.736C226.692 227.683 226.633 227.603 226.58 227.496C226.452 227.165 226.286 226.931 226.084 226.792C225.892 226.653 225.641 226.584 225.332 226.584C224.905 226.584 224.574 226.723 224.34 227C224.116 227.277 223.993 227.704 223.972 228.28C223.961 228.707 223.961 229.085 223.972 229.416C223.993 230.003 224.116 230.429 224.34 230.696C224.574 230.963 224.905 231.096 225.332 231.096C225.662 231.096 225.924 231.027 226.116 230.888C226.308 230.749 226.462 230.515 226.58 230.184C226.633 230.077 226.692 229.997 226.756 229.944C226.82 229.891 226.91 229.864 227.028 229.864H229.06C229.166 229.864 229.262 229.907 229.348 229.992C229.433 230.067 229.47 230.157 229.46 230.264C229.449 230.445 229.396 230.659 229.3 230.904C229.204 231.139 229.054 231.389 228.852 231.656C228.649 231.923 228.382 232.173 228.052 232.408C227.732 232.632 227.342 232.813 226.884 232.952C226.425 233.091 225.892 233.16 225.284 233.16ZM234.833 233.16C233.937 233.16 233.18 233.016 232.561 232.728C231.953 232.44 231.484 232.029 231.153 231.496C230.833 230.952 230.652 230.307 230.609 229.56C230.598 229.347 230.593 229.107 230.593 228.84C230.593 228.563 230.598 228.323 230.609 228.12C230.652 227.363 230.844 226.717 231.185 226.184C231.526 225.651 232.001 225.24 232.609 224.952C233.228 224.664 233.969 224.52 234.833 224.52C235.708 224.52 236.449 224.664 237.057 224.952C237.676 225.24 238.156 225.651 238.497 226.184C238.838 226.717 239.03 227.363 239.073 228.12C239.084 228.323 239.089 228.563 239.089 228.84C239.089 229.107 239.084 229.347 239.073 229.56C239.03 230.307 238.844 230.952 238.513 231.496C238.193 232.029 237.724 232.44 237.105 232.728C236.497 233.016 235.74 233.16 234.833 233.16ZM234.833 231.208C235.313 231.208 235.66 231.064 235.873 230.776C236.097 230.488 236.225 230.056 236.257 229.48C236.268 229.32 236.273 229.107 236.273 228.84C236.273 228.573 236.268 228.36 236.257 228.2C236.225 227.635 236.097 227.208 235.873 226.92C235.66 226.621 235.313 226.472 234.833 226.472C234.364 226.472 234.017 226.621 233.793 226.92C233.569 227.208 233.446 227.635 233.425 228.2C233.414 228.36 233.409 228.573 233.409 228.84C233.409 229.107 233.414 229.32 233.425 229.48C233.446 230.056 233.569 230.488 233.793 230.776C234.017 231.064 234.364 231.208 234.833 231.208ZM241.063 233C240.945 233 240.849 232.963 240.775 232.888C240.7 232.813 240.663 232.717 240.663 232.6V225.08C240.663 224.963 240.7 224.867 240.775 224.792C240.849 224.717 240.945 224.68 241.063 224.68H242.807C242.924 224.68 243.02 224.717 243.095 224.792C243.169 224.867 243.207 224.963 243.207 225.08V225.624C243.42 225.336 243.719 225.085 244.103 224.872C244.487 224.648 244.94 224.531 245.463 224.52C246.689 224.499 247.532 224.963 247.991 225.912C248.236 225.507 248.588 225.176 249.047 224.92C249.505 224.653 250.007 224.52 250.551 224.52C251.105 224.52 251.601 224.648 252.039 224.904C252.487 225.149 252.844 225.533 253.111 226.056C253.377 226.568 253.511 227.235 253.511 228.056V232.6C253.511 232.717 253.468 232.813 253.383 232.888C253.308 232.963 253.217 233 253.111 233H251.255C251.137 233 251.036 232.963 250.951 232.888C250.876 232.813 250.839 232.717 250.839 232.6V228.168C250.839 227.795 250.785 227.501 250.679 227.288C250.572 227.064 250.428 226.904 250.247 226.808C250.065 226.712 249.857 226.664 249.623 226.664C249.431 226.664 249.239 226.712 249.047 226.808C248.865 226.904 248.716 227.064 248.599 227.288C248.492 227.501 248.439 227.795 248.439 228.168V232.6C248.439 232.717 248.401 232.813 248.327 232.888C248.252 232.963 248.156 233 248.039 233H246.183C246.065 233 245.969 232.963 245.895 232.888C245.82 232.813 245.783 232.717 245.783 232.6V228.168C245.783 227.795 245.724 227.501 245.607 227.288C245.489 227.064 245.34 226.904 245.159 226.808C244.977 226.712 244.775 226.664 244.551 226.664C244.359 226.664 244.167 226.712 243.975 226.808C243.793 226.904 243.644 227.064 243.527 227.288C243.42 227.501 243.367 227.789 243.367 228.152V232.6C243.367 232.717 243.324 232.813 243.239 232.888C243.164 232.963 243.068 233 242.951 233H241.063ZM255.703 233C255.586 233 255.49 232.963 255.415 232.888C255.341 232.813 255.303 232.717 255.303 232.6V225.08C255.303 224.963 255.341 224.867 255.415 224.792C255.49 224.717 255.586 224.68 255.703 224.68H257.591C257.698 224.68 257.789 224.717 257.863 224.792C257.949 224.867 257.991 224.963 257.991 225.08V232.6C257.991 232.717 257.949 232.813 257.863 232.888C257.789 232.963 257.698 233 257.591 233H255.703ZM255.687 223.48C255.57 223.48 255.474 223.443 255.399 223.368C255.325 223.293 255.287 223.197 255.287 223.08V221.656C255.287 221.539 255.325 221.443 255.399 221.368C255.474 221.283 255.57 221.24 255.687 221.24H257.591C257.709 221.24 257.805 221.283 257.879 221.368C257.965 221.443 258.007 221.539 258.007 221.656V223.08C258.007 223.197 257.965 223.293 257.879 223.368C257.805 223.443 257.709 223.48 257.591 223.48H255.687ZM260.766 233C260.649 233 260.553 232.963 260.478 232.888C260.403 232.813 260.366 232.717 260.366 232.6V225.08C260.366 224.963 260.403 224.867 260.478 224.792C260.553 224.717 260.649 224.68 260.766 224.68H262.606C262.723 224.68 262.819 224.717 262.894 224.792C262.969 224.867 263.006 224.963 263.006 225.08V225.688C263.283 225.357 263.646 225.08 264.094 224.856C264.542 224.632 265.07 224.52 265.678 224.52C266.297 224.52 266.841 224.659 267.31 224.936C267.79 225.213 268.163 225.624 268.43 226.168C268.707 226.701 268.846 227.357 268.846 228.136V232.6C268.846 232.717 268.803 232.813 268.718 232.888C268.643 232.963 268.553 233 268.446 233H266.43C266.323 233 266.227 232.963 266.142 232.888C266.067 232.813 266.03 232.717 266.03 232.6V228.232C266.03 227.731 265.907 227.347 265.662 227.08C265.427 226.803 265.075 226.664 264.606 226.664C264.169 226.664 263.817 226.803 263.55 227.08C263.294 227.347 263.166 227.731 263.166 228.232V232.6C263.166 232.717 263.123 232.813 263.038 232.888C262.963 232.963 262.873 233 262.766 233H260.766ZM274.712 236.52C273.89 236.52 273.208 236.413 272.664 236.2C272.13 235.987 271.704 235.731 271.384 235.432C271.074 235.133 270.85 234.835 270.712 234.536C270.573 234.248 270.498 234.019 270.488 233.848C270.477 233.731 270.514 233.635 270.6 233.56C270.685 233.485 270.786 233.448 270.904 233.448H272.936C273.032 233.448 273.112 233.469 273.176 233.512C273.25 233.565 273.309 233.651 273.352 233.768C273.405 233.885 273.474 234.008 273.56 234.136C273.656 234.264 273.784 234.365 273.944 234.44C274.114 234.525 274.344 234.568 274.632 234.568C274.952 234.568 275.218 234.515 275.432 234.408C275.645 234.312 275.805 234.147 275.912 233.912C276.018 233.688 276.072 233.384 276.072 233V231.928C275.826 232.195 275.512 232.413 275.128 232.584C274.744 232.744 274.28 232.824 273.736 232.824C273.192 232.824 272.712 232.744 272.296 232.584C271.88 232.424 271.533 232.184 271.256 231.864C270.978 231.544 270.76 231.155 270.6 230.696C270.45 230.237 270.36 229.709 270.328 229.112C270.317 228.835 270.317 228.557 270.328 228.28C270.36 227.704 270.45 227.187 270.6 226.728C270.749 226.269 270.962 225.875 271.24 225.544C271.528 225.213 271.88 224.963 272.296 224.792C272.712 224.611 273.192 224.52 273.736 224.52C274.312 224.52 274.802 224.632 275.208 224.856C275.624 225.069 275.965 225.341 276.232 225.672V225.08C276.232 224.973 276.269 224.883 276.344 224.808C276.418 224.723 276.514 224.68 276.632 224.68H278.472C278.589 224.68 278.685 224.723 278.76 224.808C278.845 224.883 278.888 224.973 278.888 225.08V232.776C278.888 233.587 278.722 234.269 278.392 234.824C278.061 235.379 277.586 235.8 276.968 236.088C276.349 236.376 275.597 236.52 274.712 236.52ZM274.6 230.744C274.941 230.744 275.218 230.669 275.432 230.52C275.645 230.371 275.8 230.179 275.896 229.944C276.002 229.709 276.061 229.459 276.072 229.192C276.082 229.075 276.088 228.909 276.088 228.696C276.088 228.483 276.082 228.323 276.072 228.216C276.061 227.939 276.002 227.683 275.896 227.448C275.8 227.213 275.645 227.027 275.432 226.888C275.218 226.739 274.941 226.664 274.6 226.664C274.248 226.664 273.965 226.739 273.752 226.888C273.549 227.037 273.4 227.24 273.304 227.496C273.218 227.752 273.165 228.035 273.144 228.344C273.133 228.579 273.133 228.819 273.144 229.064C273.165 229.373 273.218 229.656 273.304 229.912C273.4 230.168 273.549 230.371 273.752 230.52C273.965 230.669 274.248 230.744 274.6 230.744ZM287.602 233.16C286.909 233.16 286.317 233.085 285.826 232.936C285.346 232.776 284.952 232.584 284.642 232.36C284.344 232.136 284.12 231.907 283.97 231.672C283.821 231.427 283.741 231.219 283.73 231.048C283.72 230.931 283.757 230.835 283.842 230.76C283.928 230.675 284.018 230.632 284.114 230.632H285.938C285.97 230.632 285.997 230.637 286.018 230.648C286.04 230.659 286.072 230.68 286.114 230.712C286.253 230.787 286.392 230.883 286.53 231C286.669 231.107 286.829 231.203 287.01 231.288C287.192 231.373 287.41 231.416 287.666 231.416C287.965 231.416 288.216 231.357 288.418 231.24C288.621 231.123 288.722 230.947 288.722 230.712C288.722 230.541 288.674 230.403 288.578 230.296C288.482 230.179 288.285 230.067 287.986 229.96C287.698 229.853 287.261 229.747 286.674 229.64C286.12 229.512 285.634 229.347 285.218 229.144C284.802 228.931 284.482 228.659 284.258 228.328C284.034 227.987 283.922 227.576 283.922 227.096C283.922 226.669 284.061 226.259 284.338 225.864C284.616 225.469 285.021 225.149 285.554 224.904C286.088 224.648 286.744 224.52 287.522 224.52C288.141 224.52 288.674 224.595 289.122 224.744C289.581 224.883 289.965 225.064 290.274 225.288C290.594 225.512 290.834 225.741 290.994 225.976C291.154 226.211 291.24 226.424 291.25 226.616C291.261 226.723 291.229 226.819 291.154 226.904C291.08 226.979 290.994 227.016 290.898 227.016H289.234C289.192 227.016 289.149 227.011 289.106 227C289.064 226.979 289.026 226.957 288.994 226.936C288.866 226.872 288.738 226.787 288.61 226.68C288.482 226.573 288.333 226.477 288.162 226.392C287.992 226.307 287.778 226.264 287.522 226.264C287.234 226.264 287.01 226.328 286.85 226.456C286.69 226.584 286.61 226.749 286.61 226.952C286.61 227.091 286.653 227.219 286.738 227.336C286.834 227.453 287.021 227.56 287.298 227.656C287.586 227.752 288.029 227.859 288.626 227.976C289.362 228.093 289.949 228.285 290.386 228.552C290.824 228.808 291.133 229.112 291.314 229.464C291.496 229.805 291.586 230.168 291.586 230.552C291.586 231.064 291.432 231.517 291.122 231.912C290.824 232.307 290.376 232.616 289.778 232.84C289.181 233.053 288.456 233.16 287.602 233.16ZM296.958 233.16C296.062 233.16 295.305 233.016 294.686 232.728C294.078 232.44 293.609 232.029 293.278 231.496C292.958 230.952 292.777 230.307 292.734 229.56C292.723 229.347 292.718 229.107 292.718 228.84C292.718 228.563 292.723 228.323 292.734 228.12C292.777 227.363 292.969 226.717 293.31 226.184C293.651 225.651 294.126 225.24 294.734 224.952C295.353 224.664 296.094 224.52 296.958 224.52C297.833 224.52 298.574 224.664 299.182 224.952C299.801 225.24 300.281 225.651 300.622 226.184C300.963 226.717 301.155 227.363 301.198 228.12C301.209 228.323 301.214 228.563 301.214 228.84C301.214 229.107 301.209 229.347 301.198 229.56C301.155 230.307 300.969 230.952 300.638 231.496C300.318 232.029 299.849 232.44 299.23 232.728C298.622 233.016 297.865 233.16 296.958 233.16ZM296.958 231.208C297.438 231.208 297.785 231.064 297.998 230.776C298.222 230.488 298.35 230.056 298.382 229.48C298.393 229.32 298.398 229.107 298.398 228.84C298.398 228.573 298.393 228.36 298.382 228.2C298.35 227.635 298.222 227.208 297.998 226.92C297.785 226.621 297.438 226.472 296.958 226.472C296.489 226.472 296.142 226.621 295.918 226.92C295.694 227.208 295.571 227.635 295.55 228.2C295.539 228.36 295.534 228.573 295.534 228.84C295.534 229.107 295.539 229.32 295.55 229.48C295.571 230.056 295.694 230.488 295.918 230.776C296.142 231.064 296.489 231.208 296.958 231.208ZM306.724 233.16C305.828 233.16 305.07 233.016 304.452 232.728C303.844 232.44 303.374 232.029 303.044 231.496C302.724 230.952 302.542 230.307 302.5 229.56C302.489 229.347 302.484 229.107 302.484 228.84C302.484 228.563 302.489 228.323 302.5 228.12C302.542 227.363 302.734 226.717 303.076 226.184C303.417 225.651 303.892 225.24 304.5 224.952C305.118 224.664 305.86 224.52 306.724 224.52C307.598 224.52 308.34 224.664 308.948 224.952C309.566 225.24 310.046 225.651 310.388 226.184C310.729 226.717 310.921 227.363 310.964 228.12C310.974 228.323 310.98 228.563 310.98 228.84C310.98 229.107 310.974 229.347 310.964 229.56C310.921 230.307 310.734 230.952 310.404 231.496C310.084 232.029 309.614 232.44 308.996 232.728C308.388 233.016 307.63 233.16 306.724 233.16ZM306.724 231.208C307.204 231.208 307.55 231.064 307.764 230.776C307.988 230.488 308.116 230.056 308.148 229.48C308.158 229.32 308.164 229.107 308.164 228.84C308.164 228.573 308.158 228.36 308.148 228.2C308.116 227.635 307.988 227.208 307.764 226.92C307.55 226.621 307.204 226.472 306.724 226.472C306.254 226.472 305.908 226.621 305.684 226.92C305.46 227.208 305.337 227.635 305.316 228.2C305.305 228.36 305.3 228.573 305.3 228.84C305.3 229.107 305.305 229.32 305.316 229.48C305.337 230.056 305.46 230.488 305.684 230.776C305.908 231.064 306.254 231.208 306.724 231.208ZM312.953 233C312.836 233 312.74 232.963 312.665 232.888C312.591 232.813 312.553 232.717 312.553 232.6V225.08C312.553 224.963 312.591 224.867 312.665 224.792C312.74 224.717 312.836 224.68 312.953 224.68H314.793C314.911 224.68 315.007 224.717 315.081 224.792C315.156 224.867 315.193 224.963 315.193 225.08V225.688C315.471 225.357 315.833 225.08 316.281 224.856C316.729 224.632 317.257 224.52 317.865 224.52C318.484 224.52 319.028 224.659 319.497 224.936C319.977 225.213 320.351 225.624 320.617 226.168C320.895 226.701 321.033 227.357 321.033 228.136V232.6C321.033 232.717 320.991 232.813 320.905 232.888C320.831 232.963 320.74 233 320.633 233H318.617C318.511 233 318.415 232.963 318.329 232.888C318.255 232.813 318.217 232.717 318.217 232.6V228.232C318.217 227.731 318.095 227.347 317.849 227.08C317.615 226.803 317.263 226.664 316.793 226.664C316.356 226.664 316.004 226.803 315.737 227.08C315.481 227.347 315.353 227.731 315.353 228.232V232.6C315.353 232.717 315.311 232.813 315.225 232.888C315.151 232.963 315.06 233 314.953 233H312.953Z" fill="#535353"/>
</svg>
