<svg width="88" height="88" viewBox="0 0 88 88" fill="none" xmlns="http://www.w3.org/2000/svg">
<path d="M50.1535 5.14913C49.8706 5.10432 49.6231 4.99441 49.4111 4.81942C49.1995 4.64209 49.0421 4.4254 48.9388 4.16935C48.8379 3.91367 48.8098 3.64437 48.8546 3.36144C48.8998 3.07617 49.0097 2.82871 49.1844 2.61907C49.3617 2.40747 49.5782 2.2512 49.8339 2.15028C50.0899 2.04702 50.3594 2.01779 50.6423 2.0626C50.9276 2.10779 51.1749 2.21886 51.3841 2.39582C51.5961 2.57081 51.7526 2.78615 51.8535 3.04182C51.9571 3.29554 51.9864 3.56503 51.9412 3.85029C51.8964 4.13323 51.7853 4.3805 51.608 4.5921C51.433 4.80408 51.2174 4.9617 50.9614 5.06496C50.7081 5.16626 50.4388 5.19431 50.1535 5.14913Z" fill="#676464"/>
<path d="M64.9065 5.88223L64.5841 6.51505L62.0655 5.23175L62.3879 4.59894L64.9065 5.88223ZM63.7153 3.80858L64.462 4.18906L62.1018 8.82128C61.9943 9.03222 61.9443 9.206 61.9517 9.34264C61.9623 9.47825 62.007 9.5887 62.0858 9.674C62.1677 9.75826 62.2635 9.82834 62.3732 9.88423C62.4555 9.92615 62.5251 9.95632 62.5822 9.97475C62.6403 9.99108 62.6868 10.0041 62.7216 10.0139L62.5317 10.7621C62.4714 10.7553 62.3911 10.7383 62.2907 10.711C62.1892 10.6859 62.0689 10.6379 61.9297 10.5669C61.7188 10.4595 61.5351 10.3088 61.3789 10.1149C61.2247 9.9221 61.1284 9.69902 61.0901 9.44569C61.0539 9.19342 61.1078 8.92596 61.2519 8.6433L63.7153 3.80858Z" fill="#676464"/>
<path d="M64.8931 12.2091L66.7547 6.8194L67.4672 7.33706L65.9663 11.4086L66.0123 11.442L69.4093 8.74807L70.1333 9.27408L68.6178 13.3174L68.6637 13.3508L72.0639 10.6767L72.7764 11.1944L68.2257 14.6304L67.5592 14.1461L69.0569 10.0547L68.988 10.0046L65.5597 12.6933L64.8931 12.2091Z" fill="#676464"/>
<path d="M70.769 17.0286L74.6259 13.1717L75.2185 13.7643L71.3616 17.6212L70.769 17.0286ZM75.5701 12.8302C75.4546 12.7147 75.3943 12.5757 75.3893 12.4133C75.3859 12.2526 75.4395 12.117 75.55 12.0065C75.6605 11.8961 75.7961 11.8425 75.9568 11.8458C76.1191 11.8509 76.2581 11.9111 76.3736 12.0266C76.4891 12.1421 76.5485 12.2802 76.5519 12.441C76.5569 12.6033 76.5042 12.7398 76.3937 12.8503C76.2832 12.9607 76.1468 13.0135 75.9844 13.0084C75.8237 13.0051 75.6856 12.9457 75.5701 12.8302Z" fill="#676464"/>
<path d="M79.933 19.5283L79.3584 19.9458L77.697 17.6589L78.2715 17.2415L79.933 19.5283ZM79.813 17.1399L80.3056 17.8179L76.0997 20.8737C75.9081 21.0128 75.7847 21.145 75.7293 21.2701C75.6772 21.3957 75.6668 21.5145 75.6983 21.6262C75.733 21.7385 75.7866 21.8444 75.859 21.944C75.9132 22.0187 75.9616 22.0772 76.004 22.1195C76.0484 22.1605 76.0839 22.1932 76.1105 22.2178L75.6016 22.7982C75.551 22.7647 75.4872 22.7131 75.4101 22.6433C75.3311 22.5748 75.2457 22.4774 75.1538 22.351C75.0147 22.1595 74.9195 21.9418 74.8683 21.6981C74.8184 21.4563 74.8339 21.2139 74.9148 20.9708C74.9971 20.7296 75.1665 20.5157 75.4232 20.3293L79.813 17.1399Z" fill="#676464"/>
<path d="M83.3187 25.4506L82.6859 25.773L81.4026 23.2544L82.0354 22.932L83.3187 25.4506ZM83.5738 23.0728L83.9543 23.8195L79.3221 26.1797C79.1112 26.2872 78.9685 26.3984 78.8942 26.5133C78.8231 26.6292 78.7944 26.7449 78.8079 26.8602C78.8247 26.9765 78.861 27.0895 78.9169 27.1992C78.9588 27.2815 78.9974 27.3468 79.0328 27.3953C79.0702 27.4426 79.1001 27.4805 79.1226 27.5089L78.5292 28.0026C78.4844 27.9616 78.4294 27.9006 78.3642 27.8196C78.2969 27.7397 78.2278 27.6301 78.1568 27.4908C78.0493 27.2799 77.9894 27.0501 77.9769 26.8014C77.9655 26.5548 78.0187 26.3177 78.1367 26.0902C78.2556 25.8649 78.4565 25.6802 78.7391 25.5362L83.5738 23.0728Z" fill="#676464"/>
<path d="M80.0766 32.4293C79.9142 31.9295 79.8844 31.4624 79.9873 31.0282C80.0931 30.5956 80.3135 30.2165 80.6484 29.8912C80.9862 29.5673 81.4208 29.3191 81.9522 29.1464C82.4836 28.9738 82.9834 28.9184 83.4516 28.9804C83.9227 29.0438 84.3287 29.2131 84.6695 29.4882C85.0133 29.7648 85.2613 30.1373 85.4135 30.6056C85.5012 30.8758 85.5429 31.1573 85.5384 31.45C85.534 31.7426 85.4655 32.03 85.3331 32.312C85.203 32.5932 84.9932 32.8518 84.704 33.0877C84.4147 33.3236 84.028 33.5202 83.5439 33.6774L83.2062 33.7872L81.9069 29.7884L82.5959 29.5646L83.6318 32.7528C83.9245 32.6577 84.1667 32.5143 84.3583 32.3225C84.5506 32.1331 84.6785 31.9098 84.7418 31.6528C84.8059 31.398 84.7911 31.1265 84.6975 30.8383C84.5943 30.5208 84.4263 30.2717 84.1933 30.091C83.9633 29.9118 83.7032 29.8009 83.4131 29.7583C83.1229 29.7157 82.8349 29.7408 82.5489 29.8337L82.0896 29.983C81.6978 30.1103 81.3877 30.2857 81.1591 30.5093C80.9336 30.7345 80.7894 30.9917 80.7265 31.2809C80.666 31.5694 80.688 31.8747 80.7926 32.1967C80.8606 32.4061 80.9513 32.5857 81.0648 32.7355C81.1811 32.8869 81.3191 33.0051 81.4787 33.0902C81.6405 33.1745 81.8225 33.2212 82.0245 33.2302L82.0586 34.0704C81.7711 34.0743 81.4971 34.0127 81.2368 33.8857C80.9788 33.7579 80.7488 33.5713 80.5471 33.3257C80.3475 33.0793 80.1907 32.7805 80.0766 32.4293Z" fill="#676464"/>
<path d="M81.3612 36.9754L86.7486 36.1222L86.8752 36.9219L86.0615 37.0507L86.0704 37.1068C86.3525 37.1628 86.5969 37.3063 86.8037 37.5372C87.0105 37.7681 87.1394 38.0449 87.1905 38.3676C87.2001 38.4284 87.211 38.5046 87.2231 38.5961C87.2352 38.6877 87.2426 38.7572 87.2454 38.8047L86.4036 38.9381C86.4061 38.9089 86.4065 38.8429 86.4046 38.7402C86.4054 38.6394 86.3971 38.534 86.3797 38.4241C86.3382 38.1622 86.2462 37.9371 86.1037 37.7487C85.964 37.5623 85.7888 37.4247 85.5781 37.3358C85.3702 37.2489 85.1447 37.2247 84.9015 37.2632L81.4923 37.8032L81.3612 36.9754Z" fill="#676464"/>
<path d="M82.8509 50.1535C82.8957 49.8706 83.0056 49.6231 83.1806 49.4111C83.3579 49.1995 83.5746 49.0421 83.8306 48.9388C84.0863 48.8379 84.3556 48.8098 84.6386 48.8546C84.9238 48.8998 85.1713 49.0097 85.3809 49.1844C85.5925 49.3617 85.7488 49.5782 85.8497 49.8339C85.953 50.0899 85.9822 50.3594 85.9374 50.6423C85.8922 50.9276 85.7811 51.1749 85.6042 51.3841C85.4292 51.5961 85.2139 51.7526 84.9582 51.8535C84.7045 51.9571 84.435 51.9864 84.1497 51.9412C83.8668 51.8964 83.6195 51.7853 83.4079 51.608C83.1959 51.433 83.0383 51.2174 82.935 50.9614C82.8337 50.7081 82.8057 50.4388 82.8509 50.1535Z" fill="#676464"/>
<path d="M82.1178 64.9065L81.4849 64.5841L82.7682 62.0655L83.4011 62.3879L82.1178 64.9065ZM84.1914 63.7153L83.8109 64.462L79.1787 62.1018C78.9678 61.9943 78.794 61.9443 78.6574 61.9517C78.5218 61.9623 78.4113 62.007 78.326 62.0858C78.2417 62.1677 78.1717 62.2635 78.1158 62.3732C78.0739 62.4555 78.0437 62.5251 78.0252 62.5822C78.0089 62.6403 77.9959 62.6868 77.9861 62.7216L77.2379 62.5317C77.2447 62.4714 77.2617 62.3911 77.289 62.2907C77.3141 62.1892 77.3621 62.0689 77.4331 61.9297C77.5405 61.7188 77.6912 61.5351 77.8851 61.3789C78.0779 61.2247 78.301 61.1284 78.5543 61.0901C78.8066 61.0539 79.074 61.1078 79.3567 61.2519L84.1914 63.7153Z" fill="#676464"/>
<path d="M75.7909 64.8931L81.1806 66.7547L80.6629 67.4672L76.5914 65.9663L76.558 66.0123L79.2519 69.4093L78.7259 70.1333L74.6826 68.6178L74.6492 68.6637L77.3233 72.0639L76.8056 72.7764L73.3696 68.2257L73.8539 67.5592L77.9453 69.0569L77.9954 68.988L75.3067 65.5597L75.7909 64.8931Z" fill="#676464"/>
<path d="M70.9714 70.769L74.8283 74.6259L74.2357 75.2185L70.3788 71.3616L70.9714 70.769ZM75.1698 75.5701C75.2853 75.4546 75.4243 75.3943 75.5867 75.3893C75.7474 75.3859 75.883 75.4395 75.9935 75.55C76.1039 75.6605 76.1575 75.7961 76.1542 75.9568C76.1491 76.1191 76.0889 76.2581 75.9734 76.3736C75.8579 76.4891 75.7198 76.5485 75.559 76.5519C75.3967 76.5569 75.2602 76.5042 75.1497 76.3937C75.0393 76.2832 74.9865 76.1468 74.9916 75.9844C74.9949 75.8237 75.0543 75.6856 75.1698 75.5701Z" fill="#676464"/>
<path d="M68.4717 79.933L68.0542 79.3584L70.3411 77.697L70.7585 78.2715L68.4717 79.933ZM70.8601 79.813L70.1821 80.3056L67.1263 76.0997C66.9872 75.9081 66.855 75.7847 66.7299 75.7293C66.6043 75.6772 66.4855 75.6668 66.3738 75.6983C66.2615 75.733 66.1556 75.7866 66.056 75.859C65.9813 75.9132 65.9228 75.9616 65.8805 76.004C65.8395 76.0484 65.8068 76.0839 65.7822 76.1105L65.2018 75.6016C65.2353 75.551 65.2869 75.4872 65.3567 75.4101C65.4252 75.3311 65.5226 75.2457 65.649 75.1538C65.8405 75.0147 66.0582 74.9195 66.3019 74.8683C66.5437 74.8184 66.7861 74.8339 67.0292 74.9148C67.2704 74.9971 67.4843 75.1665 67.6707 75.4232L70.8601 79.813Z" fill="#676464"/>
<path d="M62.5494 83.3187L62.227 82.6859L64.7456 81.4026L65.068 82.0354L62.5494 83.3187ZM64.9272 83.5738L64.1805 83.9543L61.8203 79.3221C61.7128 79.1112 61.6016 78.9685 61.4867 78.8942C61.3708 78.8231 61.2551 78.7944 61.1398 78.8079C61.0235 78.8247 60.9105 78.861 60.8008 78.9169C60.7185 78.9588 60.6532 78.9974 60.6047 79.0328C60.5574 79.0702 60.5195 79.1001 60.4911 79.1226L59.9974 78.5292C60.0384 78.4844 60.0994 78.4294 60.1804 78.3642C60.2603 78.2969 60.3699 78.2278 60.5092 78.1568C60.7201 78.0493 60.9499 77.9894 61.1986 77.9769C61.4452 77.9655 61.6823 78.0187 61.9098 78.1367C62.1351 78.2556 62.3198 78.4565 62.4638 78.7391L64.9272 83.5738Z" fill="#676464"/>
<path d="M55.5707 80.0766C56.0705 79.9142 56.5376 79.8844 56.9718 79.9873C57.4044 80.0931 57.7835 80.3135 58.1088 80.6484C58.4327 80.9862 58.6809 81.4208 58.8536 81.9522C59.0262 82.4836 59.0816 82.9834 59.0196 83.4516C58.9562 83.9227 58.7869 84.3287 58.5118 84.6695C58.2352 85.0133 57.8627 85.2613 57.3944 85.4135C57.1242 85.5012 56.8427 85.5429 56.55 85.5384C56.2574 85.534 55.97 85.4655 55.688 85.3331C55.4068 85.203 55.1482 84.9932 54.9123 84.704C54.6764 84.4147 54.4798 84.028 54.3226 83.5439L54.2128 83.2062L58.2116 81.9069L58.4354 82.5959L55.2472 83.6318C55.3423 83.9245 55.4857 84.1667 55.6775 84.3583C55.8669 84.5506 56.0902 84.6785 56.3472 84.7418C56.602 84.8059 56.8735 84.7911 57.1617 84.6975C57.4792 84.5943 57.7283 84.4263 57.909 84.1933C58.0882 83.9633 58.1991 83.7032 58.2417 83.4131C58.2843 83.1229 58.2592 82.8349 58.1663 82.5489L58.017 82.0896C57.8897 81.6978 57.7143 81.3877 57.4907 81.1591C57.2655 80.9336 57.0083 80.7894 56.7191 80.7265C56.4306 80.666 56.1253 80.688 55.8033 80.7926C55.5939 80.8606 55.4143 80.9513 55.2645 81.0648C55.1131 81.1811 54.9949 81.3191 54.9098 81.4787C54.8255 81.6405 54.7788 81.8225 54.7698 82.0245L53.9296 82.0586C53.9257 81.7711 53.9873 81.4971 54.1143 81.2368C54.2421 80.9788 54.4287 80.7488 54.6743 80.5471C54.9207 80.3475 55.2195 80.1907 55.5707 80.0766Z" fill="#676464"/>
<path d="M51.0246 81.3612L51.8778 86.7486L51.0781 86.8752L50.9493 86.0615L50.8932 86.0704C50.8372 86.3525 50.6937 86.5969 50.4628 86.8037C50.2319 87.0105 49.9551 87.1394 49.6324 87.1905C49.5716 87.2001 49.4954 87.211 49.4039 87.2231C49.3123 87.2352 49.2428 87.2426 49.1953 87.2454L49.0619 86.4036C49.0911 86.4061 49.1571 86.4065 49.2598 86.4046C49.3606 86.4054 49.466 86.3971 49.5759 86.3797C49.8378 86.3382 50.0629 86.2462 50.2513 86.1037C50.4377 85.964 50.5753 85.7888 50.6642 85.5781C50.7511 85.3702 50.7753 85.1447 50.7368 84.9015L50.1968 81.4923L51.0246 81.3612Z" fill="#676464"/>
<path d="M37.8465 82.8509C38.1294 82.8957 38.3769 83.0056 38.5889 83.1806C38.8005 83.3579 38.9579 83.5746 39.0612 83.8306C39.1621 84.0863 39.1902 84.3556 39.1454 84.6386C39.1002 84.9238 38.9903 85.1713 38.8156 85.3809C38.6383 85.5925 38.4218 85.7488 38.1661 85.8497C37.9101 85.953 37.6406 85.9822 37.3577 85.9374C37.0724 85.8922 36.8251 85.7811 36.6159 85.6042C36.4039 85.4292 36.2474 85.2139 36.1465 84.9582C36.0429 84.7045 36.0136 84.435 36.0588 84.1497C36.1036 83.8668 36.2147 83.6195 36.392 83.4079C36.567 83.1959 36.7826 83.0383 37.0386 82.935C37.2919 82.8337 37.5612 82.8057 37.8465 82.8509Z" fill="#676464"/>
<path d="M23.0935 82.1178L23.4159 81.4849L25.9345 82.7682L25.6121 83.4011L23.0935 82.1178ZM24.2847 84.1914L23.538 83.8109L25.8982 79.1787C26.0057 78.9678 26.0557 78.794 26.0483 78.6574C26.0377 78.5218 25.993 78.4113 25.9142 78.326C25.8323 78.2417 25.7365 78.1717 25.6268 78.1158C25.5445 78.0739 25.4749 78.0437 25.4178 78.0252C25.3597 78.0089 25.3132 77.9959 25.2784 77.9861L25.4683 77.2379C25.5286 77.2447 25.6089 77.2617 25.7093 77.289C25.8108 77.3141 25.9311 77.3621 26.0703 77.4331C26.2812 77.5405 26.4649 77.6912 26.6211 77.8851C26.7753 78.0779 26.8716 78.301 26.9099 78.5543C26.9461 78.8066 26.8922 79.074 26.7481 79.3567L24.2847 84.1914Z" fill="#676464"/>
<path d="M23.1069 75.7909L21.2453 81.1806L20.5328 80.6629L22.0337 76.5914L21.9877 76.558L18.5907 79.2519L17.8667 78.7259L19.3822 74.6826L19.3363 74.6492L15.9361 77.3233L15.2236 76.8056L19.7743 73.3696L20.4408 73.8539L18.9431 77.9453L19.012 77.9954L22.4403 75.3067L23.1069 75.7909Z" fill="#676464"/>
<path d="M17.231 70.9714L13.3741 74.8283L12.7815 74.2357L16.6384 70.3788L17.231 70.9714ZM12.4299 75.1698C12.5454 75.2853 12.6057 75.4243 12.6107 75.5867C12.6141 75.7474 12.5605 75.883 12.45 75.9935C12.3395 76.1039 12.2039 76.1575 12.0432 76.1542C11.8809 76.1491 11.7419 76.0889 11.6264 75.9734C11.5109 75.8579 11.4515 75.7198 11.4481 75.559C11.4431 75.3967 11.4958 75.2602 11.6063 75.1497C11.7168 75.0393 11.8532 74.9865 12.0156 74.9916C12.1763 74.9949 12.3144 75.0543 12.4299 75.1698Z" fill="#676464"/>
<path d="M8.06697 68.4717L8.64155 68.0542L10.303 70.3411L9.72846 70.7585L8.06697 68.4717ZM8.18697 70.8601L7.69437 70.1821L11.9003 67.1263C12.0919 66.9872 12.2153 66.855 12.2707 66.7299C12.3228 66.6043 12.3332 66.4855 12.3017 66.3738C12.267 66.2615 12.2134 66.1556 12.141 66.056C12.0868 65.9813 12.0384 65.9228 11.996 65.8805C11.9516 65.8395 11.9161 65.8068 11.8895 65.7822L12.3984 65.2018C12.449 65.2353 12.5128 65.2869 12.5899 65.3567C12.6689 65.4252 12.7543 65.5226 12.8462 65.649C12.9853 65.8405 13.0805 66.0582 13.1317 66.3019C13.1816 66.5437 13.1661 66.7861 13.0852 67.0292C13.0029 67.2704 12.8335 67.4843 12.5768 67.6707L8.18697 70.8601Z" fill="#676464"/>
<path d="M4.68126 62.5494L5.31408 62.227L6.59738 64.7456L5.96456 65.068L4.68126 62.5494ZM4.42615 64.9272L4.04568 64.1805L8.6779 61.8203C8.88884 61.7128 9.03146 61.6016 9.10576 61.4867C9.17687 61.3708 9.20564 61.2551 9.19206 61.1398C9.1753 61.0235 9.13897 60.9105 9.08308 60.8008C9.04116 60.7185 9.00255 60.6532 8.96724 60.6047C8.92983 60.5574 8.89989 60.5195 8.87744 60.4911L9.47085 59.9974C9.51562 60.0384 9.57061 60.0994 9.63582 60.1804C9.70312 60.2603 9.77225 60.3699 9.84318 60.5092C9.95066 60.7201 10.0106 60.9499 10.0231 61.1986C10.0345 61.4452 9.98126 61.6823 9.86335 61.9098C9.74436 62.1351 9.54353 62.3198 9.26087 62.4638L4.42615 64.9272Z" fill="#676464"/>
<path d="M7.92341 55.5707C8.08582 56.0705 8.11559 56.5376 8.01272 56.9718C7.90687 57.4044 7.6865 57.7835 7.35163 58.1088C7.01377 58.4327 6.57915 58.6809 6.04778 58.8536C5.51642 59.0262 5.01664 59.0816 4.54844 59.0196C4.07726 58.9562 3.67127 58.7869 3.33047 58.5118C2.98669 58.2352 2.73871 57.8627 2.58655 57.3944C2.49876 57.1242 2.4571 56.8427 2.46156 56.55C2.46603 56.2574 2.53447 55.97 2.66688 55.688C2.79704 55.4068 3.00675 55.1482 3.29603 54.9123C3.58531 54.6764 3.97199 54.4798 4.45608 54.3226L4.79381 54.2128L6.09309 58.2116L5.40411 58.4354L4.3682 55.2472C4.0755 55.3423 3.83334 55.4857 3.64172 55.6775C3.44938 55.8669 3.32153 56.0902 3.25819 56.3472C3.19411 56.602 3.2089 56.8735 3.30254 57.1617C3.40569 57.4792 3.57375 57.7283 3.80671 57.909C4.03669 58.0882 4.29676 58.1991 4.58691 58.2417C4.87707 58.2843 5.16513 58.2592 5.45107 58.1663L5.91039 58.017C6.30216 57.8897 6.61232 57.7143 6.84086 57.4907C7.06642 57.2655 7.21062 57.0083 7.27346 56.7191C7.33405 56.4306 7.31203 56.1253 7.20742 55.8033C7.13938 55.5939 7.04866 55.4143 6.93525 55.2645C6.81886 55.1131 6.68088 54.9949 6.52131 54.9098C6.35949 54.8255 6.17754 54.7788 5.97547 54.7698L5.94142 53.9296C6.22894 53.9257 6.50286 53.9873 6.76318 54.1143C7.02125 54.2421 7.25117 54.4287 7.45294 54.6743C7.65246 54.9207 7.80929 55.2195 7.92341 55.5707Z" fill="#676464"/>
<path d="M6.63882 51.0246L1.25143 51.8778L1.12477 51.0781L1.9385 50.9493L1.92961 50.8932C1.64749 50.8372 1.40305 50.6937 1.1963 50.4628C0.98954 50.2319 0.860608 49.9551 0.8095 49.6324C0.799871 49.5716 0.789004 49.4954 0.776899 49.4039C0.764794 49.3123 0.757376 49.2428 0.754646 49.1953L1.59643 49.0619C1.59385 49.0911 1.59352 49.1571 1.59541 49.2598C1.5946 49.3606 1.6029 49.466 1.6203 49.5759C1.66178 49.8378 1.75376 50.0629 1.89625 50.2513C2.03603 50.4377 2.21124 50.5753 2.42187 50.6642C2.62978 50.7511 2.85533 50.7753 3.09851 50.7368L6.50772 50.1968L6.63882 51.0246Z" fill="#676464"/>
<path d="M5.14913 37.8465C5.10432 38.1294 4.99441 38.3769 4.81942 38.5889C4.64209 38.8005 4.4254 38.9579 4.16935 39.0612C3.91367 39.1621 3.64437 39.1902 3.36144 39.1454C3.07617 39.1002 2.82871 38.9903 2.61907 38.8156C2.40747 38.6383 2.2512 38.4218 2.15028 38.1661C2.04702 37.9101 2.01779 37.6406 2.0626 37.3577C2.10779 37.0724 2.21886 36.8251 2.39582 36.6159C2.57081 36.4039 2.78615 36.2474 3.04182 36.1465C3.29554 36.0429 3.56503 36.0136 3.85029 36.0588C4.13323 36.1036 4.3805 36.2147 4.5921 36.392C4.80408 36.567 4.9617 36.7826 5.06496 37.0386C5.16626 37.2919 5.19431 37.5612 5.14913 37.8465Z" fill="#676464"/>
<path d="M5.88223 23.0935L6.51505 23.4159L5.23175 25.9345L4.59894 25.6121L5.88223 23.0935ZM3.80858 24.2847L4.18906 23.538L8.82128 25.8982C9.03222 26.0057 9.206 26.0557 9.34264 26.0483C9.47825 26.0377 9.5887 25.993 9.674 25.9142C9.75826 25.8323 9.82834 25.7365 9.88423 25.6268C9.92615 25.5445 9.95632 25.4749 9.97475 25.4178C9.99108 25.3597 10.0041 25.3132 10.0139 25.2784L10.7621 25.4683C10.7553 25.5286 10.7383 25.6089 10.711 25.7093C10.6859 25.8108 10.6379 25.9311 10.5669 26.0703C10.4595 26.2812 10.3088 26.4649 10.1149 26.6211C9.9221 26.7753 9.69902 26.8716 9.44569 26.9099C9.19342 26.9461 8.92596 26.8922 8.6433 26.7481L3.80858 24.2847Z" fill="#676464"/>
<path d="M12.2091 23.1069L6.8194 21.2453L7.33706 20.5328L11.4086 22.0337L11.442 21.9877L8.74807 18.5907L9.27408 17.8667L13.3174 19.3822L13.3508 19.3363L10.6767 15.9361L11.1944 15.2236L14.6304 19.7743L14.1461 20.4408L10.0547 18.9431L10.0046 19.012L12.6933 22.4403L12.2091 23.1069Z" fill="#676464"/>
<path d="M17.0286 17.231L13.1717 13.3741L13.7643 12.7815L17.6212 16.6384L17.0286 17.231ZM12.8302 12.4299C12.7147 12.5454 12.5757 12.6057 12.4133 12.6107C12.2526 12.6141 12.117 12.5605 12.0065 12.45C11.8961 12.3395 11.8425 12.2039 11.8458 12.0432C11.8509 11.8809 11.9111 11.7419 12.0266 11.6264C12.1421 11.5109 12.2802 11.4515 12.441 11.4481C12.6033 11.4431 12.7398 11.4958 12.8503 11.6063C12.9607 11.7168 13.0135 11.8532 13.0084 12.0156C13.0051 12.1763 12.9457 12.3144 12.8302 12.4299Z" fill="#676464"/>
<path d="M19.5283 8.06697L19.9458 8.64155L17.6589 10.303L17.2415 9.72846L19.5283 8.06697ZM17.1399 8.18697L17.8179 7.69437L20.8737 11.9003C21.0128 12.0919 21.145 12.2153 21.2701 12.2707C21.3957 12.3228 21.5145 12.3332 21.6262 12.3017C21.7385 12.267 21.8444 12.2134 21.944 12.141C22.0187 12.0868 22.0772 12.0384 22.1195 11.996C22.1605 11.9516 22.1932 11.9161 22.2178 11.8895L22.7982 12.3984C22.7647 12.449 22.7131 12.5128 22.6433 12.5899C22.5748 12.6689 22.4774 12.7543 22.351 12.8462C22.1595 12.9853 21.9418 13.0805 21.6981 13.1317C21.4563 13.1816 21.2139 13.1661 20.9708 13.0852C20.7296 13.0029 20.5157 12.8335 20.3293 12.5768L17.1399 8.18697Z" fill="#676464"/>
<path d="M25.4506 4.68126L25.773 5.31408L23.2544 6.59738L22.932 5.96456L25.4506 4.68126ZM23.0728 4.42615L23.8195 4.04568L26.1797 8.6779C26.2872 8.88884 26.3984 9.03146 26.5133 9.10576C26.6292 9.17687 26.7449 9.20564 26.8602 9.19206C26.9765 9.1753 27.0895 9.13897 27.1992 9.08308C27.2815 9.04116 27.3468 9.00255 27.3953 8.96724C27.4426 8.92983 27.4805 8.89989 27.5089 8.87744L28.0026 9.47085C27.9616 9.51562 27.9006 9.57061 27.8196 9.63582C27.7397 9.70312 27.6301 9.77225 27.4908 9.84318C27.2799 9.95066 27.0501 10.0106 26.8014 10.0231C26.5548 10.0345 26.3177 9.98126 26.0902 9.86335C25.8649 9.74436 25.6802 9.54353 25.5362 9.26087L23.0728 4.42615Z" fill="#676464"/>
<path d="M32.4293 7.92341C31.9295 8.08582 31.4624 8.11559 31.0282 8.01272C30.5956 7.90687 30.2165 7.6865 29.8912 7.35163C29.5673 7.01377 29.3191 6.57915 29.1464 6.04778C28.9738 5.51642 28.9184 5.01664 28.9804 4.54844C29.0438 4.07726 29.2131 3.67127 29.4882 3.33047C29.7648 2.98669 30.1373 2.73871 30.6056 2.58655C30.8758 2.49876 31.1573 2.4571 31.45 2.46156C31.7426 2.46603 32.03 2.53447 32.312 2.66688C32.5932 2.79704 32.8518 3.00675 33.0877 3.29603C33.3236 3.58531 33.5202 3.97199 33.6774 4.45608L33.7872 4.79381L29.7884 6.09309L29.5646 5.40411L32.7528 4.3682C32.6577 4.0755 32.5143 3.83334 32.3225 3.64172C32.1331 3.44938 31.9098 3.32153 31.6528 3.25819C31.398 3.19411 31.1265 3.2089 30.8383 3.30254C30.5208 3.40569 30.2717 3.57375 30.091 3.80671C29.9118 4.03669 29.8009 4.29676 29.7583 4.58691C29.7157 4.87707 29.7408 5.16513 29.8337 5.45107L29.983 5.91039C30.1103 6.30216 30.2857 6.61232 30.5093 6.84086C30.7345 7.06642 30.9917 7.21062 31.2809 7.27346C31.5694 7.33405 31.8747 7.31203 32.1967 7.20742C32.4061 7.13938 32.5857 7.04866 32.7355 6.93525C32.8869 6.81886 33.0051 6.68088 33.0902 6.52131C33.1745 6.35949 33.2212 6.17754 33.2302 5.97547L34.0704 5.94142C34.0743 6.22894 34.0127 6.50286 33.8857 6.76318C33.7579 7.02125 33.5713 7.25117 33.3257 7.45294C33.0793 7.65246 32.7805 7.80929 32.4293 7.92341Z" fill="#676464"/>
<path d="M36.9754 6.63882L36.1222 1.25143L36.9219 1.12477L37.0507 1.9385L37.1068 1.92961C37.1628 1.64749 37.3063 1.40305 37.5372 1.1963C37.7681 0.98954 38.0449 0.860608 38.3676 0.8095C38.4284 0.799871 38.5046 0.789004 38.5961 0.776899C38.6877 0.764794 38.7572 0.757376 38.8047 0.754646L38.9381 1.59643C38.9089 1.59385 38.8429 1.59352 38.7402 1.59541C38.6394 1.5946 38.534 1.6029 38.4241 1.6203C38.1622 1.66178 37.9371 1.75376 37.7487 1.89625C37.5623 2.03603 37.4247 2.21124 37.3358 2.42187C37.2489 2.62978 37.2247 2.85533 37.2632 3.09851L37.8032 6.50772L36.9754 6.63882Z" fill="#676464"/>
</svg>
